AnekTamil-Thin.ufo
<glyph name="plus" format="2">
  <advance width="992"/>
  <unicode hex="002B"/>
  <outline>
    <contour>
      <point x="515" y="211" type="line"/>
      <point x="515" y="1040" type="line"/>
      <point x="478" y="1040" type="line"/>
      <point x="478" y="211" type="line"/>
    </contour>
    <contour>
      <point x="120" y="609" type="line"/>
      <point x="872" y="609" type="line"/>
      <point x="872" y="642" type="line"/>
      <point x="120" y="642" type="line"/>
    </contour>
  </outline>
</glyph>
<glyph name="slash" format="2">
  <advance width="766"/>
  <unicode hex="002F"/>
  <outline>
    <contour>
      <point x="72" y="-231" type="line"/>
      <point x="112" y="-231" type="line"/>
      <point x="694" y="1335" type="line"/>
      <point x="654" y="1335" type="line"/>
    </contour>
  </outline>
</glyph>
<glyph name="two" format="2">
  <advance width="899"/>
  <unicode hex="0032"/>
  <outline>
    <contour>
      <point x="86" y="0" type="line"/>
      <point x="802" y="0" type="line"/>
      <point x="802" y="36" type="line"/>
      <point x="110" y="36" type="line"/>
      <point x="127" y="19" type="line"/>
      <point x="127" y="42" type="line"/>
      <point x="438" y="376" type="line" smooth="yes"/>
      <point x="640" y="593"/>
      <point x="778" y="737"/>
      <point x="778" y="949" type="curve" smooth="yes"/>
      <point x="778" y="962" type="line" smooth="yes"/>
      <point x="778" y="1179"/>
      <point x="661" y="1295"/>
      <point x="435" y="1295" type="curve" smooth="yes"/>
      <point x="276" y="1295"/>
      <point x="164" y="1233"/>
      <point x="94" y="1181" type="curve"/>
      <point x="88" y="1138" type="line"/>
      <point x="179" y="1204"/>
      <point x="292" y="1259"/>
      <point x="434" y="1259" type="curve" smooth="yes"/>
      <point x="637" y="1259"/>
      <point x="739" y="1154"/>
      <point x="739" y="962" type="curve" smooth="yes"/>
      <point x="739" y="950" type="line" smooth="yes"/>
      <point x="739" y="753"/>
      <point x="606" y="611"/>
      <point x="410" y="400" type="curve" smooth="yes"/>
      <point x="86" y="50" type="line"/>
    </contour>
  </outline>
</glyph>
<glyph name="O" format="2">
  <advance width="1133"/>
  <unicode hex="004F"/>
  <anchor x="567" y="0" name="bottom"/>
  <anchor x="567" y="639" name="center"/>
  <anchor x="759" y="5" name="ogonek"/>
  <anchor x="567" y="1278" name="top"/>
  <anchor x="7" y="1278" name="topleft"/>
  <anchor x="896" y="1278" name="topright"/>
  <outline>
    <contour>
      <point x="566" y="-18" type="curve" smooth="yes"/>
      <point x="850" y="-18"/>
      <point x="1006" y="156"/>
      <point x="1006" y="465" type="curve"/>
      <point x="1006" y="813" type="line"/>
      <point x="1006" y="1122"/>
      <point x="850" y="1296"/>
      <point x="566" y="1296" type="curve" smooth="yes"/>
      <point x="282" y="1296"/>
      <point x="127" y="1122"/>
      <point x="127" y="813" type="curve"/>
      <point x="127" y="465" type="line"/>
      <point x="127" y="156"/>
      <point x="282" y="-18"/>
    </contour>
    <contour>
      <point x="566" y="18" type="curve" smooth="yes"/>
      <point x="304" y="18"/>
      <point x="166" y="180"/>
      <point x="166" y="465" type="curve" smooth="yes"/>
      <point x="166" y="814" type="line" smooth="yes"/>
      <point x="166" y="1099"/>
      <point x="304" y="1260"/>
      <point x="566" y="1260" type="curve" smooth="yes"/>
      <point x="829" y="1260"/>
      <point x="967" y="1099"/>
      <point x="967" y="814" type="curve" smooth="yes"/>
      <point x="967" y="465" type="line" smooth="yes"/>
      <point x="967" y="180"/>
      <point x="829" y="18"/>
    </contour>
  </outline>
</glyph>
<glyph name="registered" format="2">
  <advance width="822"/>
  <unicode hex="00AE"/>
  <outline>
    <contour>
      <point x="411" y="572" type="curve" smooth="yes"/>
      <point x="613" y="572"/>
      <point x="728" y="685"/>
      <point x="728" y="890" type="curve" smooth="yes"/>
      <point x="728" y="976" type="line" smooth="yes"/>
      <point x="728" y="1182"/>
      <point x="613" y="1294"/>
      <point x="411" y="1294" type="curve" smooth="yes"/>
      <point x="209" y="1294"/>
      <point x="94" y="1182"/>
      <point x="94" y="976" type="curve" smooth="yes"/>
      <point x="94" y="890" type="line" smooth="yes"/>
      <point x="94" y="685"/>
      <point x="209" y="572"/>
    </contour>
    <contour>
      <point x="411" y="603" type="curve" smooth="yes"/>
      <point x="228" y="603"/>
      <point x="128" y="699"/>
      <point x="128" y="890" type="curve" smooth="yes"/>
      <point x="128" y="976" type="line" smooth="yes"/>
      <point x="128" y="1167"/>
      <point x="228" y="1262"/>
      <point x="411" y="1262" type="curve" smooth="yes"/>
      <point x="594" y="1262"/>
      <point x="694" y="1167"/>
      <point x="694" y="976" type="curve" smooth="yes"/>
      <point x="694" y="890" type="line" smooth="yes"/>
      <point x="694" y="699"/>
      <point x="594" y="603"/>
    </contour>
    <contour>
      <point x="522" y="742" type="line"/>
      <point x="556" y="742" type="line"/>
      <point x="541" y="821" type="line" smooth="yes"/>
      <point x="529" y="885"/>
      <point x="511" y="919"/>
      <point x="447" y="923" type="curve"/>
      <point x="456" y="915" type="line"/>
      <point x="460" y="919" type="line"/>
      <point x="525" y="923"/>
      <point x="550" y="961"/>
      <point x="550" y="1011" type="curve" smooth="yes"/>
      <point x="550" y="1024" type="line" smooth="yes"/>
      <point x="550" y="1090"/>
      <point x="515" y="1126"/>
      <point x="439" y="1126" type="curve" smooth="yes"/>
      <point x="318" y="1126" type="line"/>
      <point x="318" y="1097" type="line"/>
      <point x="438" y="1097" type="line" smooth="yes"/>
      <point x="496" y="1097"/>
      <point x="517" y="1066"/>
      <point x="517" y="1022" type="curve" smooth="yes"/>
      <point x="517" y="1009" type="line" smooth="yes"/>
      <point x="517" y="962"/>
      <point x="494" y="933"/>
      <point x="439" y="933" type="curve" smooth="yes"/>
      <point x="320" y="933" type="line"/>
      <point x="320" y="904" type="line"/>
      <point x="423" y="904" type="line" smooth="yes"/>
      <point x="475" y="904"/>
      <point x="498" y="884"/>
      <point x="509" y="819" type="curve" smooth="yes"/>
    </contour>
    <contour>
      <point x="297" y="742" type="line"/>
      <point x="330" y="742" type="line"/>
      <point x="330" y="912" type="line"/>
      <point x="330" y="924" type="line"/>
      <point x="330" y="1126" type="line"/>
      <point x="297" y="1126" type="line"/>
    </contour>
  </outline>
</glyph>
<glyph name="paragraph" format="2">
  <advance width="647"/>
  <unicode hex="00B6"/>
  <outline>
    <contour>
      <point x="357" y="676" type="curve"/>
      <point x="440" y="676" type="line"/>
      <point x="439" y="1278" type="line"/>
      <point x="356" y="1278" type="line" smooth="yes"/>
      <point x="189" y="1278"/>
      <point x="110" y="1172"/>
      <point x="110" y="1011" type="curve" smooth="yes"/>
      <point x="110" y="945" type="line" smooth="yes"/>
      <point x="110" y="783"/>
      <point x="189" y="676"/>
    </contour>
    <contour>
      <point x="462" y="0" type="line"/>
      <point x="462" y="1278" type="line"/>
      <point x="423" y="1278" type="line"/>
      <point x="423" y="0" type="line"/>
    </contour>
  </outline>
</glyph>
<glyph name="onesuperior" format="2">
  <advance width="407"/>
  <unicode hex="00B9"/>
  <outline>
    <contour>
      <point x="260" y="725" type="line"/>
      <point x="294" y="725" type="line"/>
      <point x="294" y="1403" type="line"/>
      <point x="246" y="1403" type="line"/>
      <point x="43" y="1269" type="line"/>
      <point x="42" y="1232" type="line"/>
      <point x="254" y="1370" type="line"/>
      <point x="260" y="1370" type="line"/>
    </contour>
  </outline>
</glyph>
<glyph name="Anusvara.tm" format="2">
  <unicode hex="0B82"/>
  <note>
Anusvara.tm
</note>
  <outline>
    <contour>
      <point x="206" y="1673" type="curve" smooth="yes"/>
      <point x="67" y="1673"/>
      <point x="3" y="1601"/>
      <point x="3" y="1477" type="curve" smooth="yes"/>
      <point x="3" y="1426" type="line"/>
      <point x="3" y="1300"/>
      <point x="67" y="1230"/>
      <point x="206" y="1230" type="curve" smooth="yes"/>
      <point x="345" y="1230"/>
      <point x="408" y="1300"/>
      <point x="408" y="1426" type="curve" smooth="yes"/>
      <point x="408" y="1477" type="line"/>
      <point x="408" y="1601"/>
      <point x="345" y="1673"/>
    </contour>
    <contour>
      <point x="206" y="1641" type="curve" smooth="yes"/>
      <point x="322" y="1641"/>
      <point x="374" y="1585"/>
      <point x="374" y="1476" type="curve" smooth="yes"/>
      <point x="374" y="1427" type="line"/>
      <point x="374" y="1319"/>
      <point x="322" y="1260"/>
      <point x="206" y="1260" type="curve" smooth="yes"/>
      <point x="91" y="1260"/>
      <point x="37" y="1319"/>
      <point x="37" y="1427" type="curve" smooth="yes"/>
      <point x="37" y="1476" type="line"/>
      <point x="37" y="1585"/>
      <point x="91" y="1641"/>
    </contour>
  </outline>
</glyph>
<glyph name="VowelAa.tm" format="2">
  <advance width="2411"/>
  <unicode hex="0B86"/>
  <note>
vowelAa.tm
</note>
  <outline>
    <contour>
      <point x="2064" y="598" type="curve" smooth="yes"/>
      <point x="1932" y="598"/>
      <point x="1847" y="509"/>
      <point x="1817" y="401" type="curve"/>
      <point x="1806" y="401" type="line"/>
      <point x="1806" y="308" type="line"/>
      <point x="1811" y="308" type="line"/>
      <point x="1843" y="469"/>
      <point x="1932" y="564"/>
      <point x="2063" y="564" type="curve" smooth="yes"/>
      <point x="2227" y="564"/>
      <point x="2284" y="447"/>
      <point x="2284" y="240" type="curve" smooth="yes"/>
      <point x="2284" y="126" type="line" smooth="yes"/>
      <point x="2284" y="-152"/>
      <point x="2180" y="-287"/>
      <point x="1905" y="-287" type="curve" smooth="yes"/>
      <point x="1763" y="-287"/>
      <point x="1627" y="-241"/>
      <point x="1520" y="-175" type="curve"/>
      <point x="1531" y="-220" type="line"/>
      <point x="1623" y="-278"/>
      <point x="1760" y="-321"/>
      <point x="1905" y="-321" type="curve" smooth="yes"/>
      <point x="2205" y="-321"/>
      <point x="2321" y="-175"/>
      <point x="2321" y="126" type="curve" smooth="yes"/>
      <point x="2321" y="243" type="line" smooth="yes"/>
      <point x="2321" y="473"/>
      <point x="2247" y="598"/>
    </contour>
    <component base="VowelA.tm"/>
  </outline>
</glyph>
<glyph name="VowelIi.tm" format="2">
  <advance width="1285"/>
  <unicode hex="0B88"/>
  <note>
vowelIi.tm
</note>
  <outline>
    <contour>
      <point x="843" y="0" type="line"/>
      <point x="879" y="0" type="line"/>
      <point x="879" y="1109" type="line"/>
      <point x="843" y="1109" type="line"/>
    </contour>
    <contour>
      <point x="542" y="518" type="curve" smooth="yes"/>
      <point x="576" y="518"/>
      <point x="592" y="540"/>
      <point x="592" y="584" type="curve" smooth="yes"/>
      <point x="592" y="616" type="line" smooth="yes"/>
      <point x="592" y="658"/>
      <point x="573" y="679"/>
      <point x="542" y="679" type="curve" smooth="yes"/>
      <point x="511" y="679"/>
      <point x="493" y="658"/>
      <point x="493" y="616" type="curve" smooth="yes"/>
      <point x="493" y="584" type="line" smooth="yes"/>
      <point x="493" y="540"/>
      <point x="509" y="518"/>
    </contour>
    <contour>
      <point x="1151" y="518" type="curve" smooth="yes"/>
      <point x="1184" y="518"/>
      <point x="1200" y="540"/>
      <point x="1200" y="584" type="curve" smooth="yes"/>
      <point x="1200" y="616" type="line" smooth="yes"/>
      <point x="1200" y="658"/>
      <point x="1183" y="679"/>
      <point x="1151" y="679" type="curve" smooth="yes"/>
      <point x="1119" y="679"/>
      <point x="1101" y="658"/>
      <point x="1101" y="616" type="curve" smooth="yes"/>
      <point x="1101" y="584" type="line" smooth="yes"/>
      <point x="1101" y="540"/>
      <point x="1117" y="518"/>
    </contour>
    <contour>
      <point x="906" y="1131" type="line"/>
      <point x="205" y="1131" type="line"/>
      <point x="205" y="0" type="line"/>
      <point x="241" y="0" type="line"/>
      <point x="241" y="1098" type="line"/>
      <point x="906" y="1098" type="line"/>
    </contour>
    <component base="RaBeak_Nonexporting" xOffset="708"/>
  </outline>
</glyph>
<glyph name="VowelU.tm" format="2">
  <advance width="1641"/>
  <unicode hex="0B89"/>
  <note>
vowelU.tm
</note>
  <outline>
    <contour>
      <point x="631" y="1166" type="curve" smooth="yes"/>
      <point x="328" y="1166"/>
      <point x="166" y="1025"/>
      <point x="166" y="767" type="curve" smooth="yes"/>
      <point x="166" y="692" type="line" smooth="yes"/>
      <point x="166" y="519"/>
      <point x="249" y="416"/>
      <point x="426" y="416" type="curve" smooth="yes"/>
      <point x="597" y="416"/>
      <point x="669" y="511"/>
      <point x="669" y="673" type="curve" smooth="yes"/>
      <point x="669" y="691" type="line" smooth="yes"/>
      <point x="669" y="849"/>
      <point x="589" y="930"/>
      <point x="445" y="930" type="curve" smooth="yes"/>
      <point x="325" y="930"/>
      <point x="235" y="862"/>
      <point x="201" y="772" type="curve"/>
      <point x="193" y="772" type="line"/>
      <point x="193" y="691" type="line"/>
      <point x="217" y="812"/>
      <point x="315" y="897"/>
      <point x="441" y="897" type="curve" smooth="yes"/>
      <point x="570" y="897"/>
      <point x="634" y="829"/>
      <point x="634" y="690" type="curve" smooth="yes"/>
      <point x="634" y="674" type="line" smooth="yes"/>
      <point x="634" y="533"/>
      <point x="573" y="448"/>
      <point x="426" y="448" type="curve" smooth="yes"/>
      <point x="274" y="448"/>
      <point x="203" y="541"/>
      <point x="203" y="688" type="curve" smooth="yes"/>
      <point x="203" y="772" type="line"/>
      <point x="201" y="772" type="line"/>
      <point x="201" y="1003"/>
      <point x="345" y="1133"/>
      <point x="630" y="1133" type="curve" smooth="yes"/>
      <point x="925" y="1133"/>
      <point x="1044" y="995"/>
      <point x="1044" y="747" type="curve" smooth="yes"/>
      <point x="1044" y="701" type="line" smooth="yes"/>
      <point x="1044" y="449"/>
      <point x="960" y="332"/>
      <point x="648" y="305" type="curve" smooth="yes"/>
      <point x="304" y="275" type="line" smooth="yes"/>
      <point x="184" y="265"/>
      <point x="140" y="215"/>
      <point x="140" y="129" type="curve" smooth="yes"/>
      <point x="140" y="81"/>
      <point x="156" y="32"/>
      <point x="171" y="0" type="curve"/>
      <point x="1624" y="0" type="line"/>
      <point x="1633" y="33" type="line"/>
      <point x="196" y="33" type="line"/>
      <point x="184" y="61"/>
      <point x="176" y="94"/>
      <point x="176" y="129" type="curve" smooth="yes"/>
      <point x="176" y="201"/>
      <point x="212" y="235"/>
      <point x="313" y="244" type="curve" smooth="yes"/>
      <point x="656" y="274" type="line" smooth="yes"/>
      <point x="984" y="303"/>
      <point x="1080" y="432"/>
      <point x="1080" y="700" type="curve" smooth="yes"/>
      <point x="1080" y="747" type="line" smooth="yes"/>
      <point x="1080" y="1016"/>
      <point x="947" y="1166"/>
    </contour>
  </outline>
</glyph>
<glyph name="VowelE.tm" format="2">
  <advance width="1401"/>
  <unicode hex="0B8E"/>
  <note>
vowelE.tm
</note>
  <outline>
    <contour>
      <point x="781" y="1098" type="line"/>
      <point x="1406" y="1098" type="line"/>
      <point x="1397" y="1131" type="line"/>
      <point x="781" y="1131" type="line"/>
    </contour>
    <contour>
      <point x="1106" y="1107" type="line"/>
      <point x="1106" y="0" type="line"/>
      <point x="1142" y="0" type="line"/>
      <point x="1142" y="1107" type="line"/>
    </contour>
    <component base="VowelE_NonExporting" xOffset="26"/>
  </outline>
</glyph>
<glyph name="VowelEe.tm" format="2">
  <advance width="1419"/>
  <unicode hex="0B8F"/>
  <note>
vowelEe.tm
</note>
  <outline>
    <contour>
      <point x="1124" y="1113" type="line"/>
      <point x="1124" y="-185" type="line"/>
      <point x="542" y="-269" type="line"/>
      <point x="542" y="-302" type="line"/>
      <point x="1160" y="-216" type="line"/>
      <point x="1160" y="1113" type="line"/>
    </contour>
    <contour>
      <point x="792" y="1098" type="line"/>
      <point x="1424" y="1098" type="line"/>
      <point x="1415" y="1131" type="line"/>
      <point x="792" y="1131" type="line"/>
    </contour>
    <component base="VowelE_NonExporting" xOffset="26"/>
  </outline>
</glyph>
<glyph name="VowelO.tm" format="2">
  <advance width="1693"/>
  <unicode hex="0B92"/>
  <note>
vowelO.tm
</note>
  <outline>
    <contour>
      <point x="855" y="1205" type="curve" smooth="yes"/>
      <point x="393" y="1205"/>
      <point x="140" y="993"/>
      <point x="140" y="612" type="curve" smooth="yes"/>
      <point x="140" y="485" type="line" smooth="yes"/>
      <point x="140" y="261"/>
      <point x="240" y="129"/>
      <point x="439" y="129" type="curve" smooth="yes"/>
      <point x="621" y="129"/>
      <point x="708" y="244"/>
      <point x="708" y="435" type="curve" smooth="yes"/>
      <point x="708" y="522" type="line" smooth="yes"/>
      <point x="708" y="707"/>
      <point x="621" y="808"/>
      <point x="452" y="808" type="curve" smooth="yes"/>
      <point x="313" y="808"/>
      <point x="213" y="729"/>
      <point x="176" y="630" type="curve"/>
      <point x="168" y="630" type="line"/>
      <point x="168" y="546" type="line"/>
      <point x="195" y="676"/>
      <point x="304" y="774"/>
      <point x="449" y="774" type="curve" smooth="yes"/>
      <point x="599" y="774"/>
      <point x="672" y="684"/>
      <point x="672" y="521" type="curve" smooth="yes"/>
      <point x="672" y="436" type="line" smooth="yes"/>
      <point x="672" y="263"/>
      <point x="596" y="162"/>
      <point x="439" y="162" type="curve" smooth="yes"/>
      <point x="265" y="162"/>
      <point x="177" y="280"/>
      <point x="177" y="473" type="curve" smooth="yes"/>
      <point x="177" y="630" type="line"/>
      <point x="176" y="630" type="line"/>
      <point x="186" y="977"/>
      <point x="416" y="1171"/>
      <point x="855" y="1171" type="curve" smooth="yes"/>
      <point x="1324" y="1171"/>
      <point x="1500" y="943"/>
      <point x="1500" y="614" type="curve" smooth="yes"/>
      <point x="1500" y="512" type="line" smooth="yes"/>
      <point x="1500" y="308"/>
      <point x="1428" y="200"/>
      <point x="1261" y="200" type="curve" smooth="yes"/>
      <point x="1085" y="200"/>
      <point x="1010" y="311"/>
      <point x="1010" y="524" type="curve" smooth="yes"/>
      <point x="1010" y="613"/>
      <point x="1013" y="689"/>
      <point x="1020" y="774" type="curve"/>
      <point x="984" y="774" type="line"/>
      <point x="977" y="691"/>
      <point x="972" y="614"/>
      <point x="972" y="523" type="curve" smooth="yes"/>
      <point x="972" y="300"/>
      <point x="1057" y="171"/>
      <point x="1262" y="171" type="curve" smooth="yes"/>
      <point x="1286" y="171"/>
      <point x="1312" y="176"/>
      <point x="1335" y="182" type="curve"/>
      <point x="1476" y="205"/>
      <point x="1537" y="328"/>
      <point x="1537" y="511" type="curve" smooth="yes"/>
      <point x="1537" y="614" type="line" smooth="yes"/>
      <point x="1537" y="961"/>
      <point x="1345" y="1205"/>
    </contour>
    <contour>
      <point x="1557" y="189" type="line"/>
      <point x="1326" y="189" type="line"/>
      <point x="1278" y="174" type="line"/>
      <point x="1278" y="171" type="line"/>
      <point x="1214" y="148"/>
      <point x="1187" y="98"/>
      <point x="1181" y="-3" type="curve" smooth="yes"/>
      <point x="1177" y="-90" type="line" smooth="yes"/>
      <point x="1166" y="-331"/>
      <point x="1076" y="-436"/>
      <point x="882" y="-436" type="curve" smooth="yes"/>
      <point x="685" y="-436"/>
      <point x="574" y="-328"/>
      <point x="574" y="-86" type="curve" smooth="yes"/>
      <point x="574" y="-59"/>
      <point x="576" y="-24"/>
      <point x="577" y="-4" type="curve"/>
      <point x="540" y="-14" type="line"/>
      <point x="539" y="-36"/>
      <point x="538" y="-61"/>
      <point x="538" y="-87" type="curve" smooth="yes"/>
      <point x="538" y="-347"/>
      <point x="661" y="-470"/>
      <point x="882" y="-470" type="curve" smooth="yes"/>
      <point x="1100" y="-470"/>
      <point x="1202" y="-351"/>
      <point x="1213" y="-95" type="curve" smooth="yes"/>
      <point x="1217" y="-5" type="line" smooth="yes"/>
      <point x="1222" y="94"/>
      <point x="1248" y="157"/>
      <point x="1360" y="157" type="curve" smooth="yes"/>
      <point x="1548" y="157" type="line"/>
    </contour>
  </outline>
</glyph>
<glyph name="VowelOo.tm" format="2">
  <advance width="1693"/>
  <unicode hex="0B93"/>
  <note>
vowelOo.tm
</note>
  <outline>
    <contour>
      <point x="1557" y="189" type="line"/>
      <point x="1336" y="189" type="line"/>
      <point x="1292" y="175" type="line"/>
      <point x="1292" y="171" type="line"/>
      <point x="1229" y="148"/>
      <point x="1199" y="98"/>
      <point x="1195" y="-3" type="curve" smooth="yes"/>
      <point x="1192" y="-81" type="line" smooth="yes"/>
      <point x="1182" y="-341"/>
      <point x="1076" y="-455"/>
      <point x="857" y="-455" type="curve" smooth="yes"/>
      <point x="849" y="-455"/>
      <point x="840" y="-455"/>
      <point x="827" y="-454" type="curve"/>
      <point x="827" y="-452" type="line"/>
      <point x="816" y="-454" type="line"/>
      <point x="598" y="-443"/>
      <point x="484" y="-346"/>
      <point x="484" y="-166" type="curve" smooth="yes"/>
      <point x="484" y="-162" type="line" smooth="yes"/>
      <point x="484" y="-36"/>
      <point x="555" y="40"/>
      <point x="675" y="40" type="curve" smooth="yes"/>
      <point x="794" y="40"/>
      <point x="855" y="-25"/>
      <point x="855" y="-167" type="curve" smooth="yes"/>
      <point x="855" y="-193" type="line" smooth="yes"/>
      <point x="855" y="-301"/>
      <point x="825" y="-403"/>
      <point x="789" y="-465" type="curve"/>
      <point x="827" y="-469" type="line"/>
      <point x="827" y="-454" type="line"/>
      <point x="863" y="-396"/>
      <point x="890" y="-295"/>
      <point x="890" y="-190" type="curve" smooth="yes"/>
      <point x="890" y="-166" type="line" smooth="yes"/>
      <point x="890" y="-5"/>
      <point x="813" y="73"/>
      <point x="675" y="73" type="curve" smooth="yes"/>
      <point x="537" y="73"/>
      <point x="449" y="-19"/>
      <point x="449" y="-162" type="curve" smooth="yes"/>
      <point x="449" y="-167" type="line" smooth="yes"/>
      <point x="449" y="-374"/>
      <point x="584" y="-487"/>
      <point x="853" y="-487" type="curve" smooth="yes"/>
      <point x="1100" y="-487"/>
      <point x="1213" y="-360"/>
      <point x="1227" y="-85" type="curve" smooth="yes"/>
      <point x="1231" y="-5" type="line" smooth="yes"/>
      <point x="1236" y="94"/>
      <point x="1262" y="157"/>
      <point x="1374" y="157" type="curve" smooth="yes"/>
      <point x="1548" y="157" type="line"/>
    </contour>
    <contour>
      <point x="855" y="1205" type="curve" smooth="yes"/>
      <point x="393" y="1205"/>
      <point x="140" y="993"/>
      <point x="140" y="612" type="curve" smooth="yes"/>
      <point x="140" y="511" type="line" smooth="yes"/>
      <point x="140" y="287"/>
      <point x="240" y="155"/>
      <point x="439" y="155" type="curve" smooth="yes"/>
      <point x="621" y="155"/>
      <point x="708" y="269"/>
      <point x="708" y="460" type="curve" smooth="yes"/>
      <point x="708" y="522" type="line" smooth="yes"/>
      <point x="708" y="707"/>
      <point x="621" y="808"/>
      <point x="452" y="808" type="curve" smooth="yes"/>
      <point x="314" y="808"/>
      <point x="214" y="729"/>
      <point x="176" y="630" type="curve"/>
      <point x="168" y="630" type="line"/>
      <point x="168" y="546" type="line"/>
      <point x="195" y="676"/>
      <point x="304" y="774"/>
      <point x="449" y="774" type="curve" smooth="yes"/>
      <point x="599" y="774"/>
      <point x="672" y="684"/>
      <point x="672" y="521" type="curve" smooth="yes"/>
      <point x="672" y="461" type="line" smooth="yes"/>
      <point x="672" y="288"/>
      <point x="596" y="188"/>
      <point x="439" y="188" type="curve" smooth="yes"/>
      <point x="265" y="188"/>
      <point x="177" y="306"/>
      <point x="177" y="498" type="curve"/>
      <point x="177" y="630" type="line"/>
      <point x="176" y="630" type="line"/>
      <point x="186" y="977"/>
      <point x="416" y="1171"/>
      <point x="855" y="1171" type="curve" smooth="yes"/>
      <point x="1324" y="1171"/>
      <point x="1500" y="943"/>
      <point x="1500" y="614" type="curve" smooth="yes"/>
      <point x="1500" y="512" type="line" smooth="yes"/>
      <point x="1500" y="308"/>
      <point x="1428" y="200"/>
      <point x="1261" y="200" type="curve" smooth="yes"/>
      <point x="1085" y="200"/>
      <point x="1010" y="311"/>
      <point x="1010" y="524" type="curve" smooth="yes"/>
      <point x="1010" y="613"/>
      <point x="1013" y="689"/>
      <point x="1020" y="774" type="curve"/>
      <point x="984" y="774" type="line"/>
      <point x="977" y="691"/>
      <point x="972" y="614"/>
      <point x="972" y="523" type="curve" smooth="yes"/>
      <point x="972" y="300"/>
      <point x="1057" y="171"/>
      <point x="1262" y="171" type="curve" smooth="yes"/>
      <point x="1286" y="171"/>
      <point x="1312" y="176"/>
      <point x="1335" y="182" type="curve"/>
      <point x="1476" y="205"/>
      <point x="1537" y="328"/>
      <point x="1537" y="511" type="curve" smooth="yes"/>
      <point x="1537" y="614" type="line" smooth="yes"/>
      <point x="1537" y="961"/>
      <point x="1345" y="1205"/>
    </contour>
  </outline>
</glyph>
<glyph name="Nga.tm" format="2">
  <advance width="1976"/>
  <unicode hex="0B99"/>
  <note>
Nga.tm
</note>
  <anchor x="1068" y="1245" name="top"/>
  <outline>
    <contour>
      <point x="791" y="1111" type="line"/>
      <point x="791" y="0" type="line"/>
      <point x="827" y="0" type="line"/>
      <point x="827" y="1111" type="line"/>
    </contour>
    <contour>
      <point x="1108" y="734" type="curve" smooth="yes"/>
      <point x="964" y="734"/>
      <point x="864" y="643"/>
      <point x="827" y="528" type="curve"/>
      <point x="821" y="528" type="line"/>
      <point x="821" y="464" type="line"/>
      <point x="824" y="464" type="line"/>
      <point x="869" y="612"/>
      <point x="966" y="699"/>
      <point x="1105" y="699" type="curve" smooth="yes"/>
      <point x="1261" y="699"/>
      <point x="1331" y="602"/>
      <point x="1331" y="427" type="curve" smooth="yes"/>
      <point x="1331" y="376" type="line" smooth="yes"/>
      <point x="1331" y="198"/>
      <point x="1291" y="102"/>
      <point x="1195" y="8" type="curve"/>
      <point x="1195" y="0" type="line"/>
      <point x="1755" y="0" type="line"/>
      <point x="1755" y="33" type="line"/>
      <point x="1238" y="33" type="line"/>
      <point x="1243" y="14" type="line"/>
      <point x="1322" y="92"/>
      <point x="1368" y="192"/>
      <point x="1368" y="375" type="curve" smooth="yes"/>
      <point x="1368" y="428" type="line" smooth="yes"/>
      <point x="1368" y="626"/>
      <point x="1282" y="734"/>
    </contour>
    <contour>
      <point x="1735" y="1131" type="line"/>
      <point x="1735" y="0" type="line"/>
      <point x="1771" y="0" type="line"/>
      <point x="1771" y="1131" type="line"/>
    </contour>
    <contour>
      <point x="1123" y="1131" type="line"/>
      <point x="205" y="1131" type="line"/>
      <point x="205" y="0" type="line"/>
      <point x="241" y="0" type="line"/>
      <point x="241" y="1098" type="line"/>
      <point x="1123" y="1098" type="line"/>
    </contour>
    <component base="RaBeak_Nonexporting" xOffset="866"/>
  </outline>
</glyph>
<glyph name="Tta.tm" format="2">
  <advance width="1407"/>
  <unicode hex="0B9F"/>
  <note>
Tta.tm
</note>
  <anchor x="733" y="1245" name="top"/>
  <outline>
    <contour>
      <point x="241" y="1131" type="line"/>
      <point x="205" y="1131" type="line"/>
      <point x="205" y="0" type="line"/>
      <point x="1390" y="0" type="line"/>
      <point x="1399" y="34" type="line"/>
      <point x="241" y="34" type="line"/>
    </contour>
  </outline>
</glyph>
<glyph name="Nna.tm" format="2">
  <advance width="3133"/>
  <unicode hex="0BA3"/>
  <note>
Nna.tm
</note>
  <anchor x="1736" y="1245" name="top"/>
  <outline>
    <contour>
      <point x="1743" y="1156" type="curve" smooth="yes"/>
      <point x="1548" y="1156"/>
      <point x="1402" y="1128"/>
      <point x="1294" y="1078" type="curve"/>
      <point x="1323" y="1058" type="line"/>
      <point x="1412" y="1096"/>
      <point x="1556" y="1123"/>
      <point x="1743" y="1123" type="curve" smooth="yes"/>
      <point x="1930" y="1123"/>
      <point x="2067" y="1096"/>
      <point x="2153" y="1064" type="curve"/>
      <point x="2161" y="1060" type="line"/>
      <point x="2374" y="965"/>
      <point x="2435" y="772"/>
      <point x="2435" y="525" type="curve" smooth="yes"/>
      <point x="2435" y="376" type="line" smooth="yes"/>
      <point x="2435" y="151"/>
      <point x="2361" y="15"/>
      <point x="2180" y="15" type="curve" smooth="yes"/>
      <point x="1995" y="15"/>
      <point x="1918" y="151"/>
      <point x="1918" y="376" type="curve" smooth="yes"/>
      <point x="1918" y="525" type="line" smooth="yes"/>
      <point x="1918" y="770"/>
      <point x="1983" y="965"/>
      <point x="2196" y="1060" type="curve"/>
      <point x="2161" y="1077" type="line"/>
      <point x="1953" y="980"/>
      <point x="1881" y="782"/>
      <point x="1881" y="527" type="curve" smooth="yes"/>
      <point x="1881" y="375" type="line" smooth="yes"/>
      <point x="1881" y="132"/>
      <point x="1971" y="-20"/>
      <point x="2180" y="-20" type="curve" smooth="yes"/>
      <point x="2384" y="-20"/>
      <point x="2472" y="132"/>
      <point x="2472" y="375" type="curve" smooth="yes"/>
      <point x="2472" y="527" type="line" smooth="yes"/>
      <point x="2472" y="781"/>
      <point x="2403" y="981"/>
      <point x="2207" y="1074" type="curve"/>
      <point x="2206" y="1075" type="line"/>
      <point x="2104" y="1123"/>
      <point x="1952" y="1156"/>
    </contour>
    <contour>
      <point x="2838" y="1108" type="line"/>
      <point x="2838" y="0" type="line"/>
      <point x="2874" y="0" type="line"/>
      <point x="2874" y="1108" type="line"/>
    </contour>
    <contour>
      <point x="2865" y="1131" type="line"/>
      <point x="2460" y="1131" type="line" smooth="yes"/>
      <point x="2335" y="1131"/>
      <point x="2256" y="1116"/>
      <point x="2211" y="1100" type="curve"/>
      <point x="2201" y="1065" type="line"/>
      <point x="2264" y="1087"/>
      <point x="2342" y="1098"/>
      <point x="2463" y="1098" type="curve" smooth="yes"/>
      <point x="2865" y="1098" type="line"/>
    </contour>
    <contour>
      <point x="892" y="1156" type="curve" smooth="yes"/>
      <point x="421" y="1156"/>
      <point x="165" y="949"/>
      <point x="165" y="548" type="curve" smooth="yes"/>
      <point x="165" y="356" type="line" smooth="yes"/>
      <point x="165" y="119"/>
      <point x="262" y="-20"/>
      <point x="471" y="-20" type="curve" smooth="yes"/>
      <point x="661" y="-20"/>
      <point x="751" y="100"/>
      <point x="751" y="300" type="curve" smooth="yes"/>
      <point x="751" y="423" type="line" smooth="yes"/>
      <point x="751" y="618"/>
      <point x="662" y="724"/>
      <point x="486" y="724" type="curve" smooth="yes"/>
      <point x="341" y="724"/>
      <point x="238" y="637"/>
      <point x="201" y="531" type="curve"/>
      <point x="193" y="531" type="line"/>
      <point x="193" y="443" type="line"/>
      <point x="222" y="584"/>
      <point x="329" y="689"/>
      <point x="482" y="689" type="curve" smooth="yes"/>
      <point x="640" y="689"/>
      <point x="715" y="595"/>
      <point x="715" y="422" type="curve" smooth="yes"/>
      <point x="715" y="301" type="line" smooth="yes"/>
      <point x="715" y="119"/>
      <point x="637" y="14"/>
      <point x="471" y="14" type="curve" smooth="yes"/>
      <point x="287" y="14"/>
      <point x="202" y="139"/>
      <point x="202" y="345" type="curve"/>
      <point x="202" y="531" type="line"/>
      <point x="201" y="531" type="line"/>
      <point x="201" y="536"/>
      <point x="201" y="542"/>
      <point x="201" y="547" type="curve" smooth="yes"/>
      <point x="201" y="926"/>
      <point x="441" y="1122"/>
      <point x="892" y="1122" type="curve" smooth="yes"/>
      <point x="1074" y="1122"/>
      <point x="1206" y="1098"/>
      <point x="1288" y="1068" type="curve"/>
      <point x="1298" y="1063" type="line"/>
      <point x="1509" y="968"/>
      <point x="1570" y="774"/>
      <point x="1570" y="525" type="curve" smooth="yes"/>
      <point x="1570" y="376" type="line" smooth="yes"/>
      <point x="1570" y="151"/>
      <point x="1496" y="15"/>
      <point x="1315" y="15" type="curve" smooth="yes"/>
      <point x="1130" y="15"/>
      <point x="1054" y="151"/>
      <point x="1054" y="376" type="curve" smooth="yes"/>
      <point x="1054" y="525" type="line" smooth="yes"/>
      <point x="1054" y="773"/>
      <point x="1119" y="968"/>
      <point x="1332" y="1063" type="curve"/>
      <point x="1296" y="1081" type="line"/>
      <point x="1089" y="984"/>
      <point x="1017" y="784"/>
      <point x="1017" y="527" type="curve" smooth="yes"/>
      <point x="1017" y="375" type="line" smooth="yes"/>
      <point x="1017" y="132"/>
      <point x="1107" y="-20"/>
      <point x="1315" y="-20" type="curve" smooth="yes"/>
      <point x="1520" y="-20"/>
      <point x="1607" y="132"/>
      <point x="1607" y="375" type="curve" smooth="yes"/>
      <point x="1607" y="527" type="line" smooth="yes"/>
      <point x="1607" y="783"/>
      <point x="1537" y="984"/>
      <point x="1343" y="1077" type="curve"/>
      <point x="1342" y="1078" type="line"/>
      <point x="1243" y="1125"/>
      <point x="1095" y="1156"/>
    </contour>
    <component base="RaBeak_Nonexporting" xOffset="2689"/>
  </outline>
</glyph>
<glyph name="Na.tm" format="2">
  <advance width="1540"/>
  <unicode hex="0BA8"/>
  <note>
Na.tm
</note>
  <anchor x="798" y="1245" name="top"/>
  <outline>
    <contour>
      <point x="779" y="1111" type="line"/>
      <point x="779" y="0" type="line"/>
      <point x="815" y="0" type="line"/>
      <point x="815" y="1111" type="line"/>
    </contour>
    <contour>
      <point x="1103" y="734" type="curve" smooth="yes"/>
      <point x="949" y="734"/>
      <point x="849" y="644"/>
      <point x="815" y="524" type="curve"/>
      <point x="802" y="524" type="line"/>
      <point x="802" y="431" type="line"/>
      <point x="809" y="431" type="line"/>
      <point x="847" y="602"/>
      <point x="949" y="699"/>
      <point x="1100" y="699" type="curve" smooth="yes"/>
      <point x="1290" y="699"/>
      <point x="1359" y="576"/>
      <point x="1359" y="344" type="curve" smooth="yes"/>
      <point x="1359" y="266" type="line" smooth="yes"/>
      <point x="1359" y="-155"/>
      <point x="1203" y="-285"/>
      <point x="714" y="-285" type="curve" smooth="yes"/>
      <point x="396" y="-285" type="line"/>
      <point x="406" y="-318" type="line"/>
      <point x="717" y="-318" type="line" smooth="yes"/>
      <point x="1227" y="-318"/>
      <point x="1396" y="-168"/>
      <point x="1396" y="264" type="curve" smooth="yes"/>
      <point x="1396" y="347" type="line" smooth="yes"/>
      <point x="1396" y="601"/>
      <point x="1310" y="734"/>
    </contour>
    <contour>
      <point x="988" y="1131" type="line"/>
      <point x="205" y="1131" type="line"/>
      <point x="205" y="0" type="line"/>
      <point x="241" y="0" type="line"/>
      <point x="241" y="1098" type="line"/>
      <point x="988" y="1098" type="line"/>
    </contour>
    <component base="Tail_NonExporting" xOffset="9"/>
    <component base="RaBeak_Nonexporting" xOffset="790"/>
  </outline>
</glyph>
<glyph name="Pa.tm" format="2">
  <advance width="1426"/>
  <unicode hex="0BAA"/>
  <note>
Pa.tm
</note>
  <anchor x="663" y="1245" name="top"/>
  <outline>
    <contour>
      <point x="1185" y="1131" type="line"/>
      <point x="1185" y="34" type="line"/>
      <point x="701" y="34" type="line"/>
      <point x="701" y="0" type="line"/>
      <point x="1221" y="0" type="line"/>
      <point x="1221" y="1131" type="line"/>
    </contour>
    <contour>
      <point x="241" y="1131" type="line"/>
      <point x="205" y="1131" type="line"/>
      <point x="205" y="0" type="line"/>
      <point x="967" y="0" type="line"/>
      <point x="967" y="34" type="line"/>
      <point x="241" y="34" type="line"/>
    </contour>
  </outline>
</glyph>
<glyph name="Ma.tm" format="2">
  <advance width="1607"/>
  <unicode hex="0BAE"/>
  <note>
Ma.tm
</note>
  <anchor x="793" y="1245" name="top"/>
  <outline>
    <contour>
      <point x="205" y="1131" type="line"/>
      <point x="205" y="0" type="line"/>
      <point x="945" y="0" type="line" smooth="yes"/>
      <point x="1313" y="0"/>
      <point x="1427" y="134"/>
      <point x="1427" y="492" type="curve" smooth="yes"/>
      <point x="1427" y="708" type="line" smooth="yes"/>
      <point x="1427" y="992"/>
      <point x="1308" y="1131"/>
      <point x="993" y="1131" type="curve" smooth="yes"/>
      <point x="798" y="1131" type="line"/>
      <point x="798" y="19" type="line"/>
      <point x="834" y="19" type="line"/>
      <point x="834" y="1098" type="line"/>
      <point x="991" y="1098" type="line" smooth="yes"/>
      <point x="1291" y="1098"/>
      <point x="1390" y="970"/>
      <point x="1390" y="707" type="curve" smooth="yes"/>
      <point x="1390" y="492" type="line" smooth="yes"/>
      <point x="1390" y="155"/>
      <point x="1295" y="33"/>
      <point x="943" y="33" type="curve" smooth="yes"/>
      <point x="241" y="33" type="line"/>
      <point x="241" y="1131" type="line"/>
    </contour>
  </outline>
</glyph>
<glyph name="Ra.tm" format="2">
  <advance width="1093"/>
  <unicode hex="0BB0"/>
  <note>
Ra.tm
</note>
  <anchor x="510" y="1245" name="top"/>
  <outline>
    <contour>
      <point x="834" y="1109" type="line"/>
      <point x="798" y="1109" type="line"/>
      <point x="798" y="-150" type="line"/>
      <point x="159" y="-242" type="line"/>
      <point x="159" y="-274" type="line"/>
      <point x="834" y="-179" type="line"/>
    </contour>
    <contour>
      <point x="831" y="1131" type="line"/>
      <point x="205" y="1131" type="line"/>
      <point x="205" y="0" type="line"/>
      <point x="241" y="0" type="line"/>
      <point x="241" y="1098" type="line"/>
      <point x="831" y="1098" type="line"/>
    </contour>
    <component base="RaBeak_Nonexporting" xOffset="649"/>
  </outline>
</glyph>
<glyph name="Rra.tm" format="2">
  <advance width="1562"/>
  <unicode hex="0BB1"/>
  <note>
Rra.tm
</note>
  <anchor x="782" y="1245" name="top"/>
  <outline>
    <contour>
      <point x="495" y="1150" type="curve" smooth="yes"/>
      <point x="305" y="1150"/>
      <point x="197" y="1033"/>
      <point x="197" y="788" type="curve" smooth="yes"/>
      <point x="197" y="0" type="line"/>
      <point x="233" y="0" type="line"/>
      <point x="233" y="786" type="line" smooth="yes"/>
      <point x="233" y="1012"/>
      <point x="326" y="1115"/>
      <point x="495" y="1115" type="curve" smooth="yes"/>
      <point x="676" y="1115"/>
      <point x="751" y="1013"/>
      <point x="751" y="786" type="curve"/>
      <point x="751" y="0" type="line"/>
      <point x="787" y="0" type="line"/>
      <point x="787" y="763" type="line" smooth="yes"/>
      <point x="787" y="1019"/>
      <point x="900" y="1115"/>
      <point x="1079" y="1115" type="curve" smooth="yes"/>
      <point x="1265" y="1115"/>
      <point x="1338" y="1009"/>
      <point x="1338" y="836" type="curve" smooth="yes"/>
      <point x="1338" y="816" type="line" smooth="yes"/>
      <point x="1338" y="651"/>
      <point x="1259" y="550"/>
      <point x="1064" y="548" type="curve" smooth="yes"/>
      <point x="973" y="547" type="line"/>
      <point x="973" y="516" type="line"/>
      <point x="1060" y="515" type="line" smooth="yes"/>
      <point x="1260" y="513"/>
      <point x="1370" y="424"/>
      <point x="1370" y="196" type="curve" smooth="yes"/>
      <point x="1370" y="171" type="line" smooth="yes"/>
      <point x="1370" y="-169"/>
      <point x="1237" y="-285"/>
      <point x="810" y="-285" type="curve" smooth="yes"/>
      <point x="378" y="-285" type="line"/>
      <point x="388" y="-318" type="line"/>
      <point x="814" y="-318" type="line" smooth="yes"/>
      <point x="1263" y="-318"/>
      <point x="1407" y="-188"/>
      <point x="1407" y="169" type="curve" smooth="yes"/>
      <point x="1407" y="197" type="line" smooth="yes"/>
      <point x="1407" y="435"/>
      <point x="1287" y="523"/>
      <point x="1125" y="530" type="curve"/>
      <point x="1125" y="532" type="line"/>
      <point x="1281" y="541"/>
      <point x="1375" y="639"/>
      <point x="1375" y="816" type="curve" smooth="yes"/>
      <point x="1375" y="838" type="line" smooth="yes"/>
      <point x="1375" y="1030"/>
      <point x="1284" y="1150"/>
      <point x="1081" y="1150" type="curve" smooth="yes"/>
      <point x="896" y="1150"/>
      <point x="786" y="1043"/>
      <point x="772" y="859" type="curve"/>
      <point x="771" y="859" type="line"/>
      <point x="758" y="1046"/>
      <point x="677" y="1150"/>
    </contour>
    <component base="Tail_NonExporting" xOffset="1"/>
  </outline>
</glyph>
<glyph name="La.tm" format="2">
  <advance width="1865"/>
  <unicode hex="0BB2"/>
  <note>
La.tm
</note>
  <anchor x="1047" y="1245" name="top"/>
  <outline>
    <contour>
      <point x="656" y="1150" type="curve" smooth="yes"/>
      <point x="334" y="1150"/>
      <point x="170" y="958"/>
      <point x="170" y="589" type="curve" smooth="yes"/>
      <point x="170" y="356" type="line" smooth="yes"/>
      <point x="170" y="119"/>
      <point x="268" y="-20"/>
      <point x="476" y="-20" type="curve" smooth="yes"/>
      <point x="666" y="-20"/>
      <point x="756" y="100"/>
      <point x="756" y="300" type="curve" smooth="yes"/>
      <point x="756" y="423" type="line" smooth="yes"/>
      <point x="756" y="618"/>
      <point x="667" y="724"/>
      <point x="491" y="724" type="curve" smooth="yes"/>
      <point x="346" y="724"/>
      <point x="243" y="637"/>
      <point x="206" y="531" type="curve"/>
      <point x="198" y="531" type="line"/>
      <point x="198" y="443" type="line"/>
      <point x="227" y="584"/>
      <point x="334" y="689"/>
      <point x="487" y="689" type="curve" smooth="yes"/>
      <point x="645" y="689"/>
      <point x="720" y="595"/>
      <point x="720" y="422" type="curve" smooth="yes"/>
      <point x="720" y="301" type="line" smooth="yes"/>
      <point x="720" y="119"/>
      <point x="642" y="14"/>
      <point x="476" y="14" type="curve" smooth="yes"/>
      <point x="293" y="14"/>
      <point x="207" y="139"/>
      <point x="207" y="345" type="curve"/>
      <point x="207" y="531" type="line"/>
      <point x="206" y="531" type="line"/>
      <point x="206" y="552"/>
      <point x="206" y="567"/>
      <point x="206" y="588" type="curve" smooth="yes"/>
      <point x="206" y="934"/>
      <point x="355" y="1115"/>
      <point x="656" y="1115" type="curve" smooth="yes"/>
      <point x="954" y="1115"/>
      <point x="1062" y="935"/>
      <point x="1062" y="614" type="curve" smooth="yes"/>
      <point x="1062" y="381" type="line" smooth="yes"/>
      <point x="1062" y="116"/>
      <point x="1165" y="-19"/>
      <point x="1377" y="-19" type="curve" smooth="yes"/>
      <point x="1588" y="-19"/>
      <point x="1685" y="126"/>
      <point x="1685" y="402" type="curve" smooth="yes"/>
      <point x="1685" y="692" type="line" smooth="yes"/>
      <point x="1685" y="977"/>
      <point x="1596" y="1150"/>
      <point x="1319" y="1150" type="curve" smooth="yes"/>
      <point x="1285" y="1150"/>
      <point x="1253" y="1146"/>
      <point x="1226" y="1142" type="curve"/>
      <point x="1215" y="1106" type="line"/>
      <point x="1247" y="1111"/>
      <point x="1281" y="1115"/>
      <point x="1320" y="1115" type="curve" smooth="yes"/>
      <point x="1576" y="1115"/>
      <point x="1648" y="955"/>
      <point x="1648" y="692" type="curve" smooth="yes"/>
      <point x="1648" y="403" type="line" smooth="yes"/>
      <point x="1648" y="150"/>
      <point x="1568" y="15"/>
      <point x="1377" y="15" type="curve" smooth="yes"/>
      <point x="1185" y="15"/>
      <point x="1099" y="136"/>
      <point x="1099" y="385" type="curve" smooth="yes"/>
      <point x="1099" y="617" type="line" smooth="yes"/>
      <point x="1099" y="958"/>
      <point x="972" y="1150"/>
    </contour>
  </outline>
</glyph>
<glyph name="Sha.tm" format="2">
  <advance width="2037"/>
  <unicode hex="0BB6"/>
  <note>
Sha.tm
</note>
  <anchor x="1024" y="1245" name="top"/>
  <outline>
    <contour>
      <point x="200" y="1131" type="line"/>
      <point x="200" y="361" type="line" smooth="yes"/>
      <point x="200" y="102"/>
      <point x="297" y="-20"/>
      <point x="511" y="-20" type="curve" smooth="yes"/>
      <point x="723" y="-20"/>
      <point x="820" y="102"/>
      <point x="820" y="360" type="curve" smooth="yes"/>
      <point x="820" y="1131" type="line"/>
      <point x="784" y="1131" type="line"/>
      <point x="784" y="365" type="line" smooth="yes"/>
      <point x="784" y="122"/>
      <point x="694" y="15"/>
      <point x="511" y="15" type="curve" smooth="yes"/>
      <point x="328" y="15"/>
      <point x="236" y="122"/>
      <point x="236" y="365" type="curve" smooth="yes"/>
      <point x="236" y="1131" type="line"/>
    </contour>
    <contour>
      <point x="1228" y="1131" type="line"/>
      <point x="1228" y="361" type="line" smooth="yes"/>
      <point x="1228" y="102"/>
      <point x="1324" y="-20"/>
      <point x="1533" y="-20" type="curve" smooth="yes"/>
      <point x="1742" y="-20"/>
      <point x="1837" y="102"/>
      <point x="1837" y="360" type="curve" smooth="yes"/>
      <point x="1837" y="1131" type="line"/>
      <point x="1801" y="1131" type="line"/>
      <point x="1801" y="365" type="line" smooth="yes"/>
      <point x="1801" y="122"/>
      <point x="1713" y="15"/>
      <point x="1533" y="15" type="curve" smooth="yes"/>
      <point x="1354" y="15"/>
      <point x="1264" y="122"/>
      <point x="1264" y="365" type="curve" smooth="yes"/>
      <point x="1264" y="1131" type="line"/>
    </contour>
    <contour>
      <point x="807" y="1131" type="line"/>
      <point x="807" y="1098" type="line"/>
      <point x="1825" y="1098" type="line"/>
      <point x="1825" y="1131" type="line"/>
    </contour>
  </outline>
</glyph>
<glyph name="Sa.tm" format="2">
  <advance width="2438"/>
  <unicode hex="0BB8"/>
  <note>
Sa.tm
</note>
  <anchor x="1381" y="1245" name="top"/>
  <outline>
    <contour>
      <point x="666" y="1150" type="curve" smooth="yes"/>
      <point x="339" y="1150"/>
      <point x="170" y="958"/>
      <point x="170" y="591" type="curve" smooth="yes"/>
      <point x="170" y="356" type="line" smooth="yes"/>
      <point x="170" y="119"/>
      <point x="268" y="-20"/>
      <point x="476" y="-20" type="curve" smooth="yes"/>
      <point x="666" y="-20"/>
      <point x="756" y="100"/>
      <point x="756" y="300" type="curve" smooth="yes"/>
      <point x="756" y="423" type="line" smooth="yes"/>
      <point x="756" y="618"/>
      <point x="667" y="724"/>
      <point x="491" y="724" type="curve" smooth="yes"/>
      <point x="346" y="724"/>
      <point x="243" y="637"/>
      <point x="206" y="531" type="curve"/>
      <point x="198" y="531" type="line"/>
      <point x="198" y="443" type="line"/>
      <point x="227" y="584"/>
      <point x="334" y="689"/>
      <point x="487" y="689" type="curve" smooth="yes"/>
      <point x="645" y="689"/>
      <point x="720" y="595"/>
      <point x="720" y="422" type="curve" smooth="yes"/>
      <point x="720" y="301" type="line" smooth="yes"/>
      <point x="720" y="119"/>
      <point x="642" y="14"/>
      <point x="476" y="14" type="curve" smooth="yes"/>
      <point x="293" y="14"/>
      <point x="207" y="139"/>
      <point x="207" y="345" type="curve"/>
      <point x="207" y="531" type="line"/>
      <point x="206" y="531" type="line"/>
      <point x="206" y="553"/>
      <point x="206" y="568"/>
      <point x="206" y="590" type="curve" smooth="yes"/>
      <point x="206" y="934"/>
      <point x="360" y="1115"/>
      <point x="666" y="1115" type="curve" smooth="yes"/>
      <point x="992" y="1115"/>
      <point x="1092" y="915"/>
      <point x="1092" y="571" type="curve" smooth="yes"/>
      <point x="1092" y="0" type="line"/>
      <point x="1128" y="0" type="line"/>
      <point x="1128" y="783" type="line" smooth="yes"/>
      <point x="1128" y="1020"/>
      <point x="1224" y="1115"/>
      <point x="1386" y="1115" type="curve" smooth="yes"/>
      <point x="1553" y="1115"/>
      <point x="1627" y="1018"/>
      <point x="1627" y="781" type="curve" smooth="yes"/>
      <point x="1627" y="395" type="line" smooth="yes"/>
      <point x="1627" y="113"/>
      <point x="1724" y="-19"/>
      <point x="1946" y="-19" type="curve" smooth="yes"/>
      <point x="2161" y="-19"/>
      <point x="2258" y="127"/>
      <point x="2258" y="406" type="curve" smooth="yes"/>
      <point x="2258" y="706" type="line" smooth="yes"/>
      <point x="2248" y="983"/>
      <point x="2166" y="1150"/>
      <point x="1887" y="1150" type="curve" smooth="yes"/>
      <point x="1854" y="1150"/>
      <point x="1826" y="1147"/>
      <point x="1800" y="1143" type="curve"/>
      <point x="1790" y="1108" type="line"/>
      <point x="1820" y="1112"/>
      <point x="1851" y="1115"/>
      <point x="1888" y="1115" type="curve" smooth="yes"/>
      <point x="2146" y="1115"/>
      <point x="2211" y="961"/>
      <point x="2221" y="706" type="curve" smooth="yes"/>
      <point x="2221" y="407" type="line" smooth="yes"/>
      <point x="2221" y="151"/>
      <point x="2141" y="15"/>
      <point x="1946" y="15" type="curve" smooth="yes"/>
      <point x="1747" y="15"/>
      <point x="1663" y="135"/>
      <point x="1663" y="400" type="curve" smooth="yes"/>
      <point x="1663" y="784" type="line" smooth="yes"/>
      <point x="1663" y="1037"/>
      <point x="1573" y="1150"/>
      <point x="1386" y="1150" type="curve" smooth="yes"/>
      <point x="1204" y="1150"/>
      <point x="1102" y="1041"/>
      <point x="1102" y="795" type="curve" smooth="yes"/>
      <point x="1102" y="746" type="line"/>
      <point x="1100" y="746" type="line"/>
      <point x="1081" y="988"/>
      <point x="951" y="1150"/>
    </contour>
  </outline>
</glyph>
<glyph name="Ha.tm" format="2">
  <advance width="2916"/>
  <unicode hex="0BB9"/>
  <note>
Ha.tm
</note>
  <anchor x="1308" y="1245" name="top"/>
  <outline>
    <contour>
      <point x="1246" y="33" type="line"/>
      <point x="1246" y="0" type="line"/>
      <point x="1577" y="0" type="line"/>
      <point x="1577" y="33" type="line"/>
    </contour>
    <contour>
      <point x="1607" y="-285" type="line"/>
      <point x="421" y="-285" type="line"/>
      <point x="431" y="-318" type="line"/>
      <point x="1607" y="-318" type="line"/>
    </contour>
    <component base="Va_NonExporting" xOffset="25"/>
    <component base="Rra_Simple.tm" xOffset="1354"/>
    <component base="Tail_NonExporting" xOffset="52"/>
  </outline>
</glyph>
<glyph name="MatraIDflt.tm" format="2">
  <advance width="869"/>
  <unicode hex="0BBF"/>
  <note>
MatraIDflt.tm
</note>
  <outline>
    <contour>
      <point x="332" y="1698" type="curve" smooth="yes"/>
      <point x="112" y="1698"/>
      <point x="0" y="1576"/>
      <point x="0" y="1357" type="curve" smooth="yes"/>
      <point x="0" y="1350" type="line" smooth="yes"/>
      <point x="0" y="1256"/>
      <point x="28" y="1175"/>
      <point x="59" y="1129" type="curve"/>
      <point x="97" y="1129" type="line"/>
      <point x="60" y="1184"/>
      <point x="37" y="1254"/>
      <point x="37" y="1350" type="curve" smooth="yes"/>
      <point x="37" y="1355" type="line" smooth="yes"/>
      <point x="37" y="1556"/>
      <point x="134" y="1663"/>
      <point x="332" y="1663" type="curve" smooth="yes"/>
      <point x="543" y="1663"/>
      <point x="628" y="1553"/>
      <point x="628" y="1314" type="curve" smooth="yes"/>
      <point x="628" y="0" type="line"/>
      <point x="664" y="0" type="line"/>
      <point x="664" y="1319" type="line" smooth="yes"/>
      <point x="664" y="1575"/>
      <point x="563" y="1698"/>
    </contour>
  </outline>
</glyph>
<glyph name="MatraEe.tm" format="2">
  <advance width="879"/>
  <unicode hex="0BC7"/>
  <note>
MatraEe.tm
</note>
  <outline>
    <contour>
      <point x="485" y="1424" type="curve" smooth="yes"/>
      <point x="266" y="1424"/>
      <point x="160" y="1277"/>
      <point x="160" y="1024" type="curve"/>
      <point x="160" y="380" type="line"/>
      <point x="160" y="126"/>
      <point x="266" y="-20"/>
      <point x="485" y="-20" type="curve" smooth="yes"/>
      <point x="678" y="-20"/>
      <point x="771" y="97"/>
      <point x="771" y="287" type="curve" smooth="yes"/>
      <point x="771" y="345" type="line" smooth="yes"/>
      <point x="771" y="533"/>
      <point x="675" y="636"/>
      <point x="487" y="636" type="curve" smooth="yes"/>
      <point x="340" y="636"/>
      <point x="237" y="569"/>
      <point x="196" y="486" type="curve"/>
      <point x="188" y="486" type="line"/>
      <point x="188" y="415" type="line"/>
      <point x="218" y="524"/>
      <point x="332" y="604"/>
      <point x="483" y="604" type="curve" smooth="yes"/>
      <point x="652" y="604"/>
      <point x="734" y="512"/>
      <point x="734" y="344" type="curve" smooth="yes"/>
      <point x="734" y="288" type="line" smooth="yes"/>
      <point x="734" y="116"/>
      <point x="654" y="14"/>
      <point x="485" y="14" type="curve" smooth="yes"/>
      <point x="290" y="14"/>
      <point x="197" y="148"/>
      <point x="197" y="365" type="curve"/>
      <point x="197" y="486" type="line"/>
      <point x="196" y="486" type="line"/>
      <point x="196" y="916" type="line"/>
      <point x="197" y="916" type="line"/>
      <point x="197" y="1039" type="line"/>
      <point x="197" y="1257"/>
      <point x="290" y="1390"/>
      <point x="485" y="1390" type="curve" smooth="yes"/>
      <point x="654" y="1390"/>
      <point x="734" y="1289"/>
      <point x="734" y="1117" type="curve" smooth="yes"/>
      <point x="734" y="1058" type="line" smooth="yes"/>
      <point x="734" y="892"/>
      <point x="652" y="800"/>
      <point x="483" y="800" type="curve" smooth="yes"/>
      <point x="332" y="800"/>
      <point x="218" y="880"/>
      <point x="188" y="989" type="curve"/>
      <point x="188" y="916" type="line"/>
      <point x="196" y="916" type="line"/>
      <point x="235" y="834"/>
      <point x="340" y="767"/>
      <point x="487" y="767" type="curve" smooth="yes"/>
      <point x="675" y="767"/>
      <point x="771" y="871"/>
      <point x="771" y="1057" type="curve" smooth="yes"/>
      <point x="771" y="1117" type="line" smooth="yes"/>
      <point x="771" y="1307"/>
      <point x="678" y="1424"/>
    </contour>
  </outline>
</glyph>
<glyph name="MatraAi.tm" format="2">
  <advance width="2292"/>
  <unicode hex="0BC8"/>
  <note>
MatraAi.tm
</note>
  <outline>
    <contour>
      <point x="1702" y="-12" type="line"/>
      <point x="1721" y="-17"/>
      <point x="1757" y="-21"/>
      <point x="1785" y="-21" type="curve" smooth="yes"/>
      <point x="2028" y="-21"/>
      <point x="2117" y="152"/>
      <point x="2117" y="411" type="curve" smooth="yes"/>
      <point x="2117" y="645" type="line" smooth="yes"/>
      <point x="2117" y="990"/>
      <point x="1971" y="1154"/>
      <point x="1636" y="1154" type="curve" smooth="yes"/>
      <point x="1496" y="1154"/>
      <point x="1373" y="1121"/>
      <point x="1293" y="1085" type="curve"/>
      <point x="1322" y="1064" type="line"/>
      <point x="1399" y="1096"/>
      <point x="1507" y="1122"/>
      <point x="1634" y="1122" type="curve" smooth="yes"/>
      <point x="1949" y="1122"/>
      <point x="2081" y="965"/>
      <point x="2081" y="643" type="curve" smooth="yes"/>
      <point x="2081" y="412" type="line" smooth="yes"/>
      <point x="2081" y="172"/>
      <point x="2005" y="13"/>
      <point x="1786" y="13" type="curve" smooth="yes"/>
      <point x="1750" y="13"/>
      <point x="1718" y="16"/>
      <point x="1689" y="23" type="curve"/>
    </contour>
    <contour>
      <point x="892" y="1156" type="curve" smooth="yes"/>
      <point x="421" y="1156"/>
      <point x="165" y="949"/>
      <point x="165" y="548" type="curve" smooth="yes"/>
      <point x="165" y="356" type="line" smooth="yes"/>
      <point x="165" y="119"/>
      <point x="262" y="-20"/>
      <point x="471" y="-20" type="curve" smooth="yes"/>
      <point x="661" y="-20"/>
      <point x="751" y="100"/>
      <point x="751" y="300" type="curve" smooth="yes"/>
      <point x="751" y="423" type="line" smooth="yes"/>
      <point x="751" y="618"/>
      <point x="662" y="724"/>
      <point x="486" y="724" type="curve" smooth="yes"/>
      <point x="341" y="724"/>
      <point x="238" y="637"/>
      <point x="201" y="531" type="curve"/>
      <point x="193" y="531" type="line"/>
      <point x="193" y="443" type="line"/>
      <point x="222" y="584"/>
      <point x="329" y="689"/>
      <point x="482" y="689" type="curve" smooth="yes"/>
      <point x="640" y="689"/>
      <point x="715" y="595"/>
      <point x="715" y="422" type="curve" smooth="yes"/>
      <point x="715" y="301" type="line" smooth="yes"/>
      <point x="715" y="119"/>
      <point x="637" y="14"/>
      <point x="471" y="14" type="curve" smooth="yes"/>
      <point x="287" y="14"/>
      <point x="202" y="139"/>
      <point x="202" y="345" type="curve"/>
      <point x="202" y="531" type="line"/>
      <point x="201" y="531" type="line"/>
      <point x="201" y="536"/>
      <point x="201" y="542"/>
      <point x="201" y="547" type="curve" smooth="yes"/>
      <point x="201" y="926"/>
      <point x="441" y="1122"/>
      <point x="892" y="1122" type="curve" smooth="yes"/>
      <point x="1075" y="1122"/>
      <point x="1207" y="1100"/>
      <point x="1288" y="1071" type="curve"/>
      <point x="1299" y="1067" type="line"/>
      <point x="1511" y="969"/>
      <point x="1570" y="777"/>
      <point x="1570" y="525" type="curve" smooth="yes"/>
      <point x="1570" y="376" type="line" smooth="yes"/>
      <point x="1570" y="151"/>
      <point x="1496" y="15"/>
      <point x="1315" y="15" type="curve" smooth="yes"/>
      <point x="1130" y="15"/>
      <point x="1054" y="151"/>
      <point x="1054" y="376" type="curve" smooth="yes"/>
      <point x="1054" y="525" type="line" smooth="yes"/>
      <point x="1054" y="777"/>
      <point x="1119" y="968"/>
      <point x="1331" y="1066" type="curve"/>
      <point x="1297" y="1085" type="line"/>
      <point x="1090" y="984"/>
      <point x="1017" y="790"/>
      <point x="1017" y="527" type="curve" smooth="yes"/>
      <point x="1017" y="375" type="line" smooth="yes"/>
      <point x="1017" y="132"/>
      <point x="1107" y="-20"/>
      <point x="1315" y="-20" type="curve" smooth="yes"/>
      <point x="1520" y="-20"/>
      <point x="1607" y="132"/>
      <point x="1607" y="375" type="curve" smooth="yes"/>
      <point x="1607" y="527" type="line" smooth="yes"/>
      <point x="1607" y="790"/>
      <point x="1537" y="984"/>
      <point x="1342" y="1081" type="curve"/>
      <point x="1341" y="1082" type="line"/>
      <point x="1243" y="1127"/>
      <point x="1096" y="1156"/>
    </contour>
  </outline>
</glyph>
<glyph name="PulliDflt.tm" format="2">
  <unicode hex="0BCD"/>
  <note>
PulliDflt.tm
</note>
  <anchor x="53" y="1245" name="_top"/>
  <outline>
    <contour>
      <point x="53" y="1344" type="curve" smooth="yes"/>
      <point x="90" y="1344"/>
      <point x="106" y="1366"/>
      <point x="106" y="1408" type="curve" smooth="yes"/>
      <point x="106" y="1433" type="line" smooth="yes"/>
      <point x="106" y="1474"/>
      <point x="88" y="1494"/>
      <point x="53" y="1494" type="curve" smooth="yes"/>
      <point x="18" y="1494"/>
      <point x="-1" y="1474"/>
      <point x="-1" y="1433" type="curve" smooth="yes"/>
      <point x="-1" y="1408" type="line" smooth="yes"/>
      <point x="-1" y="1366"/>
      <point x="16" y="1344"/>
    </contour>
  </outline>
</glyph>
<glyph name="Om.tm" format="2">
  <advance width="1970"/>
  <unicode hex="0BD0"/>
  <note>
Om.tm
</note>
  <outline>
    <contour>
      <point x="994" y="1241" type="curve" smooth="yes"/>
      <point x="448" y="1241"/>
      <point x="140" y="1013"/>
      <point x="140" y="591" type="curve" smooth="yes"/>
      <point x="140" y="471" type="line" smooth="yes"/>
      <point x="140" y="246"/>
      <point x="240" y="114"/>
      <point x="439" y="114" type="curve" smooth="yes"/>
      <point x="621" y="114"/>
      <point x="708" y="229"/>
      <point x="708" y="420" type="curve" smooth="yes"/>
      <point x="708" y="506" type="line" smooth="yes"/>
      <point x="708" y="691"/>
      <point x="622" y="793"/>
      <point x="453" y="793" type="curve" smooth="yes"/>
      <point x="310" y="793"/>
      <point x="213" y="712"/>
      <point x="176" y="615" type="curve"/>
      <point x="168" y="615" type="line"/>
      <point x="168" y="531" type="line"/>
      <point x="195" y="662"/>
      <point x="304" y="759"/>
      <point x="449" y="759" type="curve" smooth="yes"/>
      <point x="600" y="759"/>
      <point x="672" y="669"/>
      <point x="672" y="505" type="curve" smooth="yes"/>
      <point x="672" y="421" type="line" smooth="yes"/>
      <point x="672" y="248"/>
      <point x="596" y="147"/>
      <point x="439" y="147" type="curve" smooth="yes"/>
      <point x="265" y="147"/>
      <point x="177" y="265"/>
      <point x="177" y="459" type="curve"/>
      <point x="177" y="615" type="line"/>
      <point x="176" y="615" type="line"/>
      <point x="185" y="991"/>
      <point x="466" y="1207"/>
      <point x="994" y="1207" type="curve" smooth="yes"/>
      <point x="1554" y="1207"/>
      <point x="1777" y="955"/>
      <point x="1777" y="595" type="curve" smooth="yes"/>
      <point x="1777" y="512" type="line" smooth="yes"/>
      <point x="1777" y="307"/>
      <point x="1705" y="198"/>
      <point x="1538" y="198" type="curve" smooth="yes"/>
      <point x="1362" y="198"/>
      <point x="1287" y="309"/>
      <point x="1287" y="522" type="curve" smooth="yes"/>
      <point x="1287" y="611"/>
      <point x="1290" y="687"/>
      <point x="1297" y="772" type="curve"/>
      <point x="1261" y="772" type="line"/>
      <point x="1254" y="689"/>
      <point x="1249" y="612"/>
      <point x="1249" y="521" type="curve" smooth="yes"/>
      <point x="1249" y="298"/>
      <point x="1334" y="169"/>
      <point x="1539" y="169" type="curve" smooth="yes"/>
      <point x="1563" y="169"/>
      <point x="1589" y="174"/>
      <point x="1612" y="180" type="curve"/>
      <point x="1753" y="203"/>
      <point x="1814" y="327"/>
      <point x="1814" y="511" type="curve" smooth="yes"/>
      <point x="1814" y="595" type="line" smooth="yes"/>
      <point x="1814" y="974"/>
      <point x="1574" y="1241"/>
    </contour>
    <contour>
      <point x="1834" y="189" type="line"/>
      <point x="1609" y="187" type="line"/>
      <point x="1581" y="174" type="line"/>
      <point x="1581" y="171" type="line"/>
      <point x="1518" y="144"/>
      <point x="1490" y="93"/>
      <point x="1486" y="-18" type="curve" smooth="yes"/>
      <point x="1484" y="-74" type="line" smooth="yes"/>
      <point x="1472" y="-410"/>
      <point x="1319" y="-553"/>
      <point x="998" y="-553" type="curve" smooth="yes"/>
      <point x="661" y="-553"/>
      <point x="479" y="-400"/>
      <point x="479" y="-52" type="curve" smooth="yes"/>
      <point x="479" y="14"/>
      <point x="481" y="77"/>
      <point x="488" y="128" type="curve"/>
      <point x="452" y="128" type="line"/>
      <point x="445" y="76"/>
      <point x="443" y="17"/>
      <point x="443" y="-53" type="curve" smooth="yes"/>
      <point x="443" y="-417"/>
      <point x="640" y="-586"/>
      <point x="998" y="-586" type="curve" smooth="yes"/>
      <point x="1340" y="-586"/>
      <point x="1508" y="-426"/>
      <point x="1520" y="-78" type="curve" smooth="yes"/>
      <point x="1522" y="-19" type="line" smooth="yes"/>
      <point x="1526" y="92"/>
      <point x="1551" y="157"/>
      <point x="1661" y="157" type="curve" smooth="yes"/>
      <point x="1825" y="157" type="line"/>
    </contour>
    <contour>
      <point x="752" y="114" type="line"/>
      <point x="752" y="-304" type="line"/>
      <point x="1054" y="-304" type="line" smooth="yes"/>
      <point x="1238" y="-304"/>
      <point x="1294" y="-241"/>
      <point x="1294" y="-65" type="curve" smooth="yes"/>
      <point x="1294" y="4" type="line" smooth="yes"/>
      <point x="1294" y="145"/>
      <point x="1235" y="210"/>
      <point x="1077" y="210" type="curve" smooth="yes"/>
      <point x="995" y="210" type="line"/>
      <point x="995" y="-296" type="line"/>
      <point x="1025" y="-296" type="line"/>
      <point x="1025" y="182" type="line"/>
      <point x="1076" y="182" type="line" smooth="yes"/>
      <point x="1218" y="182"/>
      <point x="1263" y="125"/>
      <point x="1263" y="4" type="curve" smooth="yes"/>
      <point x="1263" y="-65" type="line" smooth="yes"/>
      <point x="1263" y="-221"/>
      <point x="1220" y="-276"/>
      <point x="1053" y="-276" type="curve" smooth="yes"/>
      <point x="782" y="-276" type="line"/>
      <point x="782" y="114" type="line"/>
    </contour>
    <contour>
      <point x="997" y="337" type="curve" smooth="yes"/>
      <point x="1025" y="337"/>
      <point x="1038" y="356"/>
      <point x="1038" y="394" type="curve" smooth="yes"/>
      <point x="1038" y="408" type="line" smooth="yes"/>
      <point x="1038" y="447"/>
      <point x="1024" y="464"/>
      <point x="997" y="464" type="curve" smooth="yes"/>
      <point x="970" y="464"/>
      <point x="954" y="447"/>
      <point x="954" y="408" type="curve" smooth="yes"/>
      <point x="954" y="394" type="line" smooth="yes"/>
      <point x="954" y="356"/>
      <point x="968" y="337"/>
    </contour>
    <contour>
      <point x="782" y="113" type="line"/>
      <point x="782" y="116" type="line" smooth="yes"/>
      <point x="782" y="218"/>
      <point x="749" y="266"/>
      <point x="675" y="276" type="curve"/>
      <point x="667" y="247" type="line"/>
      <point x="730" y="240"/>
      <point x="752" y="205"/>
      <point x="752" y="113" type="curve"/>
    </contour>
  </outline>
</glyph>
<glyph name="Zero.tm" format="2">
  <advance width="1110"/>
  <unicode hex="0BE6"/>
  <note>
Zero.tm
</note>
  <outline>
    <contour>
      <point x="558" y="1132" type="curve" smooth="yes"/>
      <point x="820" y="1132"/>
      <point x="930" y="978"/>
      <point x="930" y="695" type="curve" smooth="yes"/>
      <point x="930" y="453" type="line" smooth="yes"/>
      <point x="930" y="169"/>
      <point x="820" y="17"/>
      <point x="558" y="17" type="curve" smooth="yes"/>
      <point x="294" y="17"/>
      <point x="180" y="169"/>
      <point x="180" y="453" type="curve" smooth="yes"/>
      <point x="180" y="695" type="line" smooth="yes"/>
      <point x="180" y="978"/>
      <point x="294" y="1132"/>
    </contour>
    <contour>
      <point x="558" y="1166" type="curve" smooth="yes"/>
      <point x="273" y="1166"/>
      <point x="143" y="1004"/>
      <point x="143" y="696" type="curve" smooth="yes"/>
      <point x="143" y="452" type="line" smooth="yes"/>
      <point x="143" y="145"/>
      <point x="273" y="-18"/>
      <point x="558" y="-18" type="curve" smooth="yes"/>
      <point x="841" y="-18"/>
      <point x="967" y="145"/>
      <point x="967" y="452" type="curve" smooth="yes"/>
      <point x="967" y="696" type="line" smooth="yes"/>
      <point x="967" y="1004"/>
      <point x="841" y="1166"/>
    </contour>
  </outline>
</glyph>
<glyph name="Two.tm" format="2">
  <advance width="1631"/>
  <unicode hex="0BE8"/>
  <note>
Two.tm
</note>
  <outline>
    <contour>
      <point x="441" y="288" type="curve"/>
      <point x="469" y="300" type="line"/>
      <point x="273" y="335"/>
      <point x="193" y="458"/>
      <point x="193" y="659" type="curve" smooth="yes"/>
      <point x="193" y="760" type="line" smooth="yes"/>
      <point x="193" y="1004"/>
      <point x="310" y="1132"/>
      <point x="563" y="1132" type="curve" smooth="yes"/>
      <point x="817" y="1132"/>
      <point x="919" y="1004"/>
      <point x="919" y="772" type="curve" smooth="yes"/>
      <point x="919" y="707" type="line" smooth="yes"/>
      <point x="919" y="459"/>
      <point x="831" y="339"/>
      <point x="518" y="316" type="curve" smooth="yes"/>
      <point x="317" y="301" type="line" smooth="yes"/>
      <point x="192" y="292"/>
      <point x="140" y="230"/>
      <point x="140" y="136" type="curve" smooth="yes"/>
      <point x="140" y="84"/>
      <point x="156" y="32"/>
      <point x="171" y="0" type="curve"/>
      <point x="1614" y="0" type="line"/>
      <point x="1623" y="33" type="line"/>
      <point x="195" y="33" type="line"/>
      <point x="183" y="64"/>
      <point x="176" y="98"/>
      <point x="176" y="136" type="curve" smooth="yes"/>
      <point x="176" y="218"/>
      <point x="220" y="264"/>
      <point x="329" y="272" type="curve" smooth="yes"/>
      <point x="527" y="286" type="line" smooth="yes"/>
      <point x="861" y="310"/>
      <point x="956" y="449"/>
      <point x="956" y="706" type="curve" smooth="yes"/>
      <point x="956" y="772" type="line" smooth="yes"/>
      <point x="956" y="1024"/>
      <point x="841" y="1166"/>
      <point x="564" y="1166" type="curve" smooth="yes"/>
      <point x="290" y="1166"/>
      <point x="156" y="1025"/>
      <point x="156" y="760" type="curve" smooth="yes"/>
      <point x="156" y="657" type="line" smooth="yes"/>
      <point x="156" y="451"/>
      <point x="239" y="318"/>
    </contour>
  </outline>
</glyph>
<glyph name="Three.tm" format="2">
  <advance width="1716"/>
  <unicode hex="0BE9"/>
  <note>
Three.tm
</note>
  <outline>
    <contour>
      <point x="791" y="1111" type="line"/>
      <point x="791" y="0" type="line"/>
      <point x="827" y="0" type="line"/>
      <point x="827" y="1111" type="line"/>
    </contour>
    <contour>
      <point x="1108" y="734" type="curve" smooth="yes"/>
      <point x="964" y="734"/>
      <point x="864" y="643"/>
      <point x="827" y="528" type="curve"/>
      <point x="821" y="528" type="line"/>
      <point x="821" y="464" type="line"/>
      <point x="824" y="464" type="line"/>
      <point x="869" y="612"/>
      <point x="966" y="699"/>
      <point x="1105" y="699" type="curve" smooth="yes"/>
      <point x="1261" y="699"/>
      <point x="1331" y="602"/>
      <point x="1331" y="427" type="curve" smooth="yes"/>
      <point x="1331" y="376" type="line" smooth="yes"/>
      <point x="1331" y="198"/>
      <point x="1291" y="102"/>
      <point x="1195" y="8" type="curve"/>
      <point x="1195" y="0" type="line"/>
      <point x="1699" y="0" type="line"/>
      <point x="1708" y="33" type="line"/>
      <point x="1238" y="33" type="line"/>
      <point x="1243" y="14" type="line"/>
      <point x="1322" y="92"/>
      <point x="1368" y="192"/>
      <point x="1368" y="375" type="curve" smooth="yes"/>
      <point x="1368" y="428" type="line" smooth="yes"/>
      <point x="1368" y="626"/>
      <point x="1282" y="734"/>
    </contour>
    <contour>
      <point x="1123" y="1131" type="line"/>
      <point x="205" y="1131" type="line"/>
      <point x="205" y="0" type="line"/>
      <point x="241" y="0" type="line"/>
      <point x="241" y="1098" type="line"/>
      <point x="1123" y="1098" type="line"/>
    </contour>
    <component base="RaBeak_Nonexporting" xOffset="866"/>
  </outline>
</glyph>
<glyph name="Four.tm" format="2">
  <advance width="1485"/>
  <unicode hex="0BEA"/>
  <note>
Four.tm
</note>
  <outline>
    <contour>
      <point x="885" y="624" type="line"/>
      <point x="1350" y="624" type="line"/>
      <point x="1350" y="656" type="line"/>
      <point x="885" y="656" type="line"/>
    </contour>
    <contour>
      <point x="1341" y="1131" type="line"/>
      <point x="1341" y="624" type="line"/>
      <point x="1376" y="624" type="line"/>
      <point x="1376" y="1131" type="line"/>
    </contour>
    <component base="KaComponent_Nonexporting" xOffset="88"/>
    <component base="KaBeak_Nonexporting" xOffset="919"/>
  </outline>
</glyph>
<glyph name="Five.tm" format="2">
  <advance width="2063"/>
  <unicode hex="0BEB"/>
  <note>
Five.tm
</note>
  <outline>
    <contour>
      <point x="1317" y="1109" type="line"/>
      <point x="1317" y="0" type="line"/>
      <point x="1353" y="0" type="line"/>
      <point x="1353" y="1109" type="line"/>
    </contour>
    <contour>
      <point x="1637" y="734" type="curve" smooth="yes"/>
      <point x="1482" y="734"/>
      <point x="1385" y="636"/>
      <point x="1353" y="504" type="curve"/>
      <point x="1340" y="504" type="line"/>
      <point x="1340" y="411" type="line"/>
      <point x="1347" y="411" type="line"/>
      <point x="1381" y="595"/>
      <point x="1481" y="699"/>
      <point x="1634" y="699" type="curve" smooth="yes"/>
      <point x="1816" y="699"/>
      <point x="1882" y="576"/>
      <point x="1882" y="350" type="curve" smooth="yes"/>
      <point x="1882" y="300" type="line" smooth="yes"/>
      <point x="1882" y="-186"/>
      <point x="1627" y="-424"/>
      <point x="1120" y="-424" type="curve" smooth="yes"/>
      <point x="1112" y="-424" type="line" smooth="yes"/>
      <point x="509" y="-424"/>
      <point x="200" y="-125"/>
      <point x="200" y="477" type="curve" smooth="yes"/>
      <point x="200" y="639" type="line" smooth="yes"/>
      <point x="200" y="1277"/>
      <point x="530" y="1591"/>
      <point x="1195" y="1591" type="curve" smooth="yes"/>
      <point x="1465" y="1591"/>
      <point x="1661" y="1542"/>
      <point x="1813" y="1481" type="curve"/>
      <point x="1804" y="1518" type="line"/>
      <point x="1656" y="1579"/>
      <point x="1462" y="1625"/>
      <point x="1194" y="1625" type="curve" smooth="yes"/>
      <point x="507" y="1625"/>
      <point x="163" y="1293"/>
      <point x="163" y="639" type="curve" smooth="yes"/>
      <point x="163" y="477" type="line" smooth="yes"/>
      <point x="163" y="-144"/>
      <point x="485" y="-459"/>
      <point x="1112" y="-459" type="curve" smooth="yes"/>
      <point x="1120" y="-459" type="line" smooth="yes"/>
      <point x="1656" y="-459"/>
      <point x="1919" y="-201"/>
      <point x="1919" y="300" type="curve" smooth="yes"/>
      <point x="1919" y="353" type="line" smooth="yes"/>
      <point x="1919" y="601"/>
      <point x="1836" y="734"/>
    </contour>
    <contour>
      <point x="1510" y="1131" type="line"/>
      <point x="743" y="1131" type="line"/>
      <point x="743" y="0" type="line"/>
      <point x="779" y="0" type="line"/>
      <point x="779" y="1098" type="line"/>
      <point x="1510" y="1098" type="line"/>
    </contour>
    <component base="RaBeak_Nonexporting" xOffset="1318"/>
  </outline>
</glyph>
<glyph name="Eight.tm" format="2">
  <advance width="1828"/>
  <unicode hex="0BEE"/>
  <note>
Eight.tm
</note>
  <outline>
    <contour>
      <point x="1587" y="1131" type="line"/>
      <point x="1587" y="-33" type="line"/>
      <point x="1623" y="-33" type="line"/>
      <point x="1623" y="1131" type="line"/>
    </contour>
    <contour>
      <point x="836" y="1163" type="curve" smooth="yes"/>
      <point x="564" y="1163"/>
      <point x="428" y="997"/>
      <point x="428" y="696" type="curve" smooth="yes"/>
      <point x="428" y="664"/>
      <point x="428" y="632"/>
      <point x="429" y="598" type="curve"/>
      <point x="464" y="598" type="line"/>
      <point x="463" y="631"/>
      <point x="463" y="661"/>
      <point x="463" y="693" type="curve" smooth="yes"/>
      <point x="463" y="972"/>
      <point x="584" y="1129"/>
      <point x="836" y="1129" type="curve" smooth="yes"/>
      <point x="1111" y="1129"/>
      <point x="1209" y="967"/>
      <point x="1209" y="680" type="curve" smooth="yes"/>
      <point x="1209" y="518" type="line" smooth="yes"/>
      <point x="1209" y="172"/>
      <point x="1064" y="-17"/>
      <point x="700" y="-17" type="curve" smooth="yes"/>
      <point x="697" y="-17" type="line" smooth="yes"/>
      <point x="340" y="-17"/>
      <point x="136" y="157"/>
      <point x="136" y="494" type="curve" smooth="yes"/>
      <point x="136" y="528" type="line" smooth="yes"/>
      <point x="136" y="546"/>
      <point x="136" y="563"/>
      <point x="137" y="583" type="curve"/>
      <point x="1605" y="583" type="line"/>
      <point x="1605" y="615" type="line"/>
      <point x="102" y="615" type="line"/>
      <point x="101" y="595"/>
      <point x="100" y="563"/>
      <point x="100" y="530" type="curve" smooth="yes"/>
      <point x="100" y="495" type="line" smooth="yes"/>
      <point x="100" y="136"/>
      <point x="320" y="-51"/>
      <point x="697" y="-51" type="curve" smooth="yes"/>
      <point x="700" y="-51" type="line" smooth="yes"/>
      <point x="1090" y="-51"/>
      <point x="1246" y="154"/>
      <point x="1246" y="518" type="curve" smooth="yes"/>
      <point x="1246" y="682" type="line" smooth="yes"/>
      <point x="1246" y="992"/>
      <point x="1133" y="1163"/>
    </contour>
  </outline>
</glyph>
<glyph name="Nine.tm" format="2">
  <advance width="1986"/>
  <unicode hex="0BEF"/>
  <note>
Nine.tm
</note>
  <outline>
    <contour>
      <point x="885" y="624" type="line"/>
      <point x="1025" y="624" type="line" smooth="yes"/>
      <point x="1225" y="624"/>
      <point x="1294" y="549"/>
      <point x="1294" y="352" type="curve" smooth="yes"/>
      <point x="1294" y="0" type="line"/>
      <point x="1330" y="0" type="line"/>
      <point x="1330" y="412" type="line" smooth="yes"/>
      <point x="1330" y="645"/>
      <point x="1441" y="747"/>
      <point x="1598" y="747" type="curve" smooth="yes"/>
      <point x="1761" y="747"/>
      <point x="1834" y="647"/>
      <point x="1834" y="471" type="curve" smooth="yes"/>
      <point x="1834" y="380" type="line" smooth="yes"/>
      <point x="1834" y="203"/>
      <point x="1795" y="94"/>
      <point x="1735" y="0" type="curve"/>
      <point x="1778" y="0" type="line"/>
      <point x="1829" y="86"/>
      <point x="1871" y="194"/>
      <point x="1871" y="379" type="curve" smooth="yes"/>
      <point x="1871" y="472" type="line" smooth="yes"/>
      <point x="1871" y="672"/>
      <point x="1785" y="781"/>
      <point x="1602" y="781" type="curve" smooth="yes"/>
      <point x="1422" y="781"/>
      <point x="1310" y="663"/>
      <point x="1310" y="442" type="curve" smooth="yes"/>
      <point x="1310" y="420" type="line"/>
      <point x="1308" y="420" type="line"/>
      <point x="1301" y="578"/>
      <point x="1232" y="656"/>
      <point x="1027" y="656" type="curve" smooth="yes"/>
      <point x="885" y="656" type="line"/>
    </contour>
    <component base="KaComponent_Nonexporting" xOffset="88"/>
    <component base="KaBeak_Nonexporting" xOffset="953"/>
  </outline>
</glyph>
<glyph name="Hundred.tm" format="2">
  <advance width="1628"/>
  <unicode hex="0BF1"/>
  <note>
Hundred.tm
</note>
  <outline>
    <contour>
      <point x="1333" y="1109" type="line"/>
      <point x="1333" y="0" type="line"/>
      <point x="1369" y="0" type="line"/>
      <point x="1369" y="1109" type="line"/>
    </contour>
    <contour>
      <point x="1363" y="1131" type="line"/>
      <point x="750" y="1131" type="line"/>
      <point x="754" y="906" type="line"/>
      <point x="753" y="906" type="line"/>
      <point x="737" y="1056"/>
      <point x="660" y="1150"/>
      <point x="498" y="1150" type="curve" smooth="yes"/>
      <point x="312" y="1150"/>
      <point x="207" y="1036"/>
      <point x="207" y="800" type="curve" smooth="yes"/>
      <point x="207" y="0" type="line"/>
      <point x="243" y="0" type="line"/>
      <point x="243" y="798" type="line" smooth="yes"/>
      <point x="243" y="1016"/>
      <point x="333" y="1116"/>
      <point x="498" y="1116" type="curve" smooth="yes"/>
      <point x="672" y="1116"/>
      <point x="746" y="1008"/>
      <point x="746" y="770" type="curve" smooth="yes"/>
      <point x="746" y="0" type="line"/>
      <point x="782" y="0" type="line"/>
      <point x="782" y="1098" type="line"/>
      <point x="1363" y="1098" type="line"/>
    </contour>
    <component base="RaBeak_Nonexporting" xOffset="1184"/>
  </outline>
</glyph>
<glyph name="Thousand.tm" format="2">
  <advance width="2064"/>
  <unicode hex="0BF2"/>
  <note>
Thousand.tm
</note>
  <outline>
    <contour>
      <point x="884" y="624" type="line"/>
      <point x="1855" y="624" type="line"/>
      <point x="1846" y="656" type="line"/>
      <point x="884" y="656" type="line"/>
    </contour>
    <contour>
      <point x="1566" y="639" type="line"/>
      <point x="1566" y="309" type="line"/>
      <point x="1565" y="302" type="line"/>
      <point x="1565" y="57" type="line" smooth="yes"/>
      <point x="1565" y="-131"/>
      <point x="1497" y="-215"/>
      <point x="1339" y="-215" type="curve" smooth="yes"/>
      <point x="1190" y="-215"/>
      <point x="1104" y="-132"/>
      <point x="1104" y="26" type="curve" smooth="yes"/>
      <point x="1104" y="76" type="line" smooth="yes"/>
      <point x="1104" y="231"/>
      <point x="1168" y="288"/>
      <point x="1315" y="288" type="curve" smooth="yes"/>
      <point x="1575" y="288" type="line"/>
      <point x="1588" y="288" type="line"/>
      <point x="1627" y="288" type="line" smooth="yes"/>
      <point x="1866" y="288"/>
      <point x="1959" y="207"/>
      <point x="1959" y="-26" type="curve" smooth="yes"/>
      <point x="1959" y="-63" type="line" smooth="yes"/>
      <point x="1959" y="-372"/>
      <point x="1852" y="-479"/>
      <point x="1519" y="-479" type="curve" smooth="yes"/>
      <point x="1269" y="-479" type="line"/>
      <point x="1280" y="-509" type="line"/>
      <point x="1520" y="-509" type="line" smooth="yes"/>
      <point x="1871" y="-509"/>
      <point x="1994" y="-394"/>
      <point x="1994" y="-63" type="curve" smooth="yes"/>
      <point x="1994" y="-26" type="line" smooth="yes"/>
      <point x="1994" y="224"/>
      <point x="1888" y="318"/>
      <point x="1630" y="318" type="curve" smooth="yes"/>
      <point x="1588" y="318" type="line"/>
      <point x="1575" y="318" type="line"/>
      <point x="1313" y="318" type="line" smooth="yes"/>
      <point x="1143" y="318"/>
      <point x="1069" y="248"/>
      <point x="1069" y="77" type="curve" smooth="yes"/>
      <point x="1069" y="25" type="line" smooth="yes"/>
      <point x="1069" y="-150"/>
      <point x="1164" y="-247"/>
      <point x="1339" y="-247" type="curve" smooth="yes"/>
      <point x="1520" y="-247"/>
      <point x="1600" y="-149"/>
      <point x="1600" y="55" type="curve" smooth="yes"/>
      <point x="1600" y="302" type="line"/>
      <point x="1600" y="309" type="line"/>
      <point x="1600" y="639" type="line"/>
    </contour>
    <contour>
      <point x="1399" y="-479" type="line"/>
      <point x="1233" y="-479" type="line"/>
      <point x="1057" y="-479"/>
      <point x="996" y="-507"/>
      <point x="939" y="-544" type="curve"/>
      <point x="934" y="-590" type="line"/>
      <point x="1003" y="-539"/>
      <point x="1057" y="-509"/>
      <point x="1234" y="-509" type="curve" smooth="yes"/>
      <point x="1399" y="-509" type="line"/>
    </contour>
    <component base="KaComponent_Nonexporting" xOffset="88"/>
    <component base="KaBeak_Nonexporting" xOffset="953"/>
  </outline>
</glyph>
<glyph name="DebitSign.tm" format="2">
  <advance width="1922"/>
  <unicode hex="0BF6"/>
  <note>
DebitSign.tm
</note>
  <anchor x="663" y="1245" name="top"/>
  <outline>
    <contour>
      <point x="1681" y="1131" type="line"/>
      <point x="1681" y="-318" type="line"/>
      <point x="1717" y="-318" type="line"/>
      <point x="1717" y="1131" type="line"/>
    </contour>
    <contour>
      <point x="655" y="-673" type="curve" smooth="yes"/>
      <point x="1007" y="-673"/>
      <point x="1168" y="-542"/>
      <point x="1206" y="-311" type="curve"/>
      <point x="1208" y="-304" type="line"/>
      <point x="1215" y="-250"/>
      <point x="1221" y="-125"/>
      <point x="1221" y="-5" type="curve" smooth="yes"/>
      <point x="1221" y="24" type="line"/>
      <point x="1184" y="24" type="line"/>
      <point x="1184" y="-5" type="line" smooth="yes"/>
      <point x="1184" y="-125"/>
      <point x="1177" y="-250"/>
      <point x="1169" y="-303" type="curve"/>
      <point x="1168" y="-310" type="line"/>
      <point x="1136" y="-515"/>
      <point x="986" y="-639"/>
      <point x="655" y="-639" type="curve" smooth="yes"/>
      <point x="278" y="-639"/>
      <point x="144" y="-475"/>
      <point x="127" y="-318" type="curve"/>
      <point x="1178" y="-318" type="line"/>
      <point x="1188" y="-318" type="line"/>
      <point x="1717" y="-318" type="line"/>
      <point x="1717" y="-286" type="line"/>
      <point x="84" y="-286" type="line"/>
      <point x="100" y="-508"/>
      <point x="264" y="-673"/>
    </contour>
    <component base="Pa.tm"/>
  </outline>
</glyph>
<glyph name="AsAboveSign.tm" format="2">
  <advance width="3556"/>
  <unicode hex="0BF8"/>
  <note>
AsAboveSign.tm
</note>
  <outline>
    <contour>
      <point x="180" y="740" type="curve" smooth="yes"/>
      <point x="180" y="520" type="line" smooth="yes"/>
      <point x="180" y="181"/>
      <point x="331" y="-20"/>
      <point x="682" y="-20" type="curve" smooth="yes"/>
      <point x="931" y="-20"/>
      <point x="1041" y="115"/>
      <point x="1041" y="346" type="curve" smooth="yes"/>
      <point x="1041" y="439" type="line" smooth="yes"/>
      <point x="1041" y="640"/>
      <point x="954" y="747"/>
      <point x="774" y="747" type="curve" smooth="yes"/>
      <point x="598" y="747"/>
      <point x="493" y="639"/>
      <point x="493" y="435" type="curve"/>
      <point x="493" y="315" type="line" smooth="yes"/>
      <point x="493" y="187"/>
      <point x="532" y="84"/>
      <point x="582" y="20" type="curve"/>
      <point x="582" y="11" type="line"/>
      <point x="629" y="6" type="line"/>
      <point x="569" y="79"/>
      <point x="529" y="190"/>
      <point x="529" y="314" type="curve" smooth="yes"/>
      <point x="529" y="434" type="line" smooth="yes"/>
      <point x="529" y="622"/>
      <point x="623" y="713"/>
      <point x="774" y="713" type="curve" smooth="yes"/>
      <point x="932" y="713"/>
      <point x="1004" y="620"/>
      <point x="1004" y="437" type="curve" smooth="yes"/>
      <point x="1004" y="347" type="line" smooth="yes"/>
      <point x="1004" y="137"/>
      <point x="910" y="13"/>
      <point x="682" y="13" type="curve" smooth="yes"/>
      <point x="660" y="13"/>
      <point x="637" y="14"/>
      <point x="599" y="18" type="curve"/>
      <point x="582" y="20" type="line"/>
      <point x="582" y="20" type="line"/>
      <point x="327" y="59"/>
      <point x="217" y="234"/>
      <point x="217" y="523" type="curve" smooth="yes"/>
      <point x="217" y="739" type="line" smooth="yes"/>
      <point x="217" y="1156"/>
      <point x="423" y="1377"/>
      <point x="814" y="1377" type="curve" smooth="yes"/>
      <point x="1218" y="1377"/>
      <point x="1375" y="1167"/>
      <point x="1404" y="899" type="curve"/>
      <point x="1430" y="942" type="line"/>
      <point x="1395" y="1195"/>
      <point x="1228" y="1411"/>
      <point x="814" y="1411" type="curve" smooth="yes"/>
      <point x="400" y="1411"/>
      <point x="180" y="1178"/>
    </contour>
    <contour>
      <point x="1330" y="588" type="curve" smooth="yes"/>
      <point x="1330" y="356" type="line" smooth="yes"/>
      <point x="1330" y="119"/>
      <point x="1427" y="-20"/>
      <point x="1636" y="-20" type="curve" smooth="yes"/>
      <point x="1826" y="-20"/>
      <point x="1916" y="100"/>
      <point x="1916" y="300" type="curve" smooth="yes"/>
      <point x="1916" y="423" type="line" smooth="yes"/>
      <point x="1916" y="618"/>
      <point x="1827" y="724"/>
      <point x="1651" y="724" type="curve" smooth="yes"/>
      <point x="1506" y="724"/>
      <point x="1403" y="637"/>
      <point x="1366" y="531" type="curve"/>
      <point x="1358" y="531" type="line"/>
      <point x="1358" y="443" type="line"/>
      <point x="1387" y="584"/>
      <point x="1494" y="689"/>
      <point x="1647" y="689" type="curve" smooth="yes"/>
      <point x="1805" y="689"/>
      <point x="1880" y="595"/>
      <point x="1880" y="422" type="curve" smooth="yes"/>
      <point x="1880" y="301" type="line" smooth="yes"/>
      <point x="1880" y="119"/>
      <point x="1802" y="14"/>
      <point x="1636" y="14" type="curve" smooth="yes"/>
      <point x="1452" y="14"/>
      <point x="1367" y="139"/>
      <point x="1367" y="345" type="curve"/>
      <point x="1367" y="531" type="line"/>
      <point x="1366" y="531" type="line"/>
      <point x="1366" y="552"/>
      <point x="1366" y="566"/>
      <point x="1366" y="587" type="curve" smooth="yes"/>
      <point x="1366" y="931"/>
      <point x="1530" y="1116"/>
      <point x="1848" y="1116" type="curve" smooth="yes"/>
      <point x="2166" y="1116"/>
      <point x="2288" y="933"/>
      <point x="2288" y="632" type="curve" smooth="yes"/>
      <point x="2288" y="515" type="line" smooth="yes"/>
      <point x="2288" y="286"/>
      <point x="2240" y="141"/>
      <point x="2139" y="8" type="curve"/>
      <point x="2139" y="0" type="line"/>
      <point x="2610" y="0" type="line"/>
      <point x="2610" y="33" type="line"/>
      <point x="2186" y="33" type="line"/>
      <point x="2185" y="14" type="line"/>
      <point x="2274" y="134"/>
      <point x="2325" y="280"/>
      <point x="2325" y="515" type="curve" smooth="yes"/>
      <point x="2325" y="632" type="line" smooth="yes"/>
      <point x="2325" y="955"/>
      <point x="2185" y="1151"/>
      <point x="1848" y="1151" type="curve" smooth="yes"/>
      <point x="1647" y="1151"/>
      <point x="1492" y="1073"/>
      <point x="1417" y="943" type="curve"/>
      <point x="1410" y="938" type="line"/>
      <point x="1357" y="846"/>
      <point x="1330" y="729"/>
    </contour>
    <component base="Ssa_Above_NonExporting" xOffset="2279"/>
    <component base="Ssa_Below_NonExporting" xOffset="2750"/>
  </outline>
</glyph>
<glyph name="RupeeSign.tm" format="2">
  <advance width="3076"/>
  <unicode hex="0BF9"/>
  <note>
RupeeSign.tm
</note>
  <outline>
    <contour>
      <point x="1344" y="1109" type="line"/>
      <point x="1344" y="1" type="line"/>
      <point x="1380" y="1" type="line"/>
      <point x="1380" y="1109" type="line"/>
    </contour>
    <contour>
      <point x="1664" y="734" type="curve" smooth="yes"/>
      <point x="1509" y="734"/>
      <point x="1412" y="636"/>
      <point x="1380" y="504" type="curve"/>
      <point x="1367" y="504" type="line"/>
      <point x="1367" y="411" type="line"/>
      <point x="1374" y="411" type="line"/>
      <point x="1408" y="595"/>
      <point x="1508" y="699"/>
      <point x="1661" y="699" type="curve" smooth="yes"/>
      <point x="1843" y="699"/>
      <point x="1909" y="576"/>
      <point x="1909" y="350" type="curve" smooth="yes"/>
      <point x="1909" y="300" type="line" smooth="yes"/>
      <point x="1909" y="-186"/>
      <point x="1654" y="-424"/>
      <point x="1147" y="-424" type="curve" smooth="yes"/>
      <point x="1139" y="-424" type="line" smooth="yes"/>
      <point x="536" y="-424"/>
      <point x="227" y="-125"/>
      <point x="227" y="477" type="curve" smooth="yes"/>
      <point x="227" y="639" type="line" smooth="yes"/>
      <point x="227" y="1280"/>
      <point x="555" y="1615"/>
      <point x="1251" y="1615" type="curve" smooth="yes"/>
      <point x="1259" y="1615" type="line" smooth="yes"/>
      <point x="1891" y="1615"/>
      <point x="2173" y="1327"/>
      <point x="2173" y="714" type="curve" smooth="yes"/>
      <point x="2173" y="673" type="line"/>
      <point x="2209" y="673" type="line"/>
      <point x="2209" y="855" type="line" smooth="yes"/>
      <point x="2209" y="1085"/>
      <point x="2309" y="1193"/>
      <point x="2473" y="1193" type="curve" smooth="yes"/>
      <point x="2622" y="1193"/>
      <point x="2693" y="1101"/>
      <point x="2693" y="941" type="curve" smooth="yes"/>
      <point x="2693" y="899" type="line" smooth="yes"/>
      <point x="2693" y="720"/>
      <point x="2634" y="625"/>
      <point x="2536" y="530" type="curve"/>
      <point x="2536" y="522" type="line"/>
      <point x="3067" y="522" type="line"/>
      <point x="3076" y="554" type="line"/>
      <point x="2584" y="554" type="line"/>
      <point x="2587" y="538" type="line"/>
      <point x="2666" y="615"/>
      <point x="2729" y="716"/>
      <point x="2729" y="898" type="curve" smooth="yes"/>
      <point x="2729" y="942" type="line" smooth="yes"/>
      <point x="2729" y="1123"/>
      <point x="2644" y="1225"/>
      <point x="2476" y="1225" type="curve" smooth="yes"/>
      <point x="2295" y="1225"/>
      <point x="2189" y="1110"/>
      <point x="2189" y="886" type="curve" smooth="yes"/>
      <point x="2189" y="879" type="line"/>
      <point x="2187" y="879" type="line"/>
      <point x="2158" y="1359"/>
      <point x="1891" y="1649"/>
      <point x="1259" y="1649" type="curve" smooth="yes"/>
      <point x="1251" y="1649" type="line" smooth="yes"/>
      <point x="531" y="1649"/>
      <point x="190" y="1299"/>
      <point x="190" y="639" type="curve" smooth="yes"/>
      <point x="190" y="477" type="line" smooth="yes"/>
      <point x="190" y="-144"/>
      <point x="512" y="-459"/>
      <point x="1139" y="-459" type="curve" smooth="yes"/>
      <point x="1147" y="-459" type="line" smooth="yes"/>
      <point x="1683" y="-459"/>
      <point x="1946" y="-201"/>
      <point x="1946" y="300" type="curve" smooth="yes"/>
      <point x="1946" y="353" type="line" smooth="yes"/>
      <point x="1946" y="601"/>
      <point x="1863" y="734"/>
    </contour>
    <contour>
      <point x="1537" y="1131" type="line"/>
      <point x="770" y="1131" type="line"/>
      <point x="770" y="0" type="line"/>
      <point x="806" y="0" type="line"/>
      <point x="806" y="1098" type="line"/>
      <point x="1537" y="1098" type="line"/>
    </contour>
    <component base="RaBeak_Nonexporting" xOffset="1345"/>
  </outline>
</glyph>
<glyph name="quoteleft" format="2">
  <advance width="331"/>
  <unicode hex="2018"/>
  <outline>
    <contour>
      <point x="124" y="860" type="curve"/>
      <point x="161" y="860" type="line"/>
      <point x="156" y="898"/>
      <point x="152" y="936"/>
      <point x="152" y="976" type="curve" smooth="yes"/>
      <point x="152" y="1110"/>
      <point x="182" y="1216"/>
      <point x="255" y="1314" type="curve"/>
      <point x="231" y="1334" type="line"/>
      <point x="145" y="1228"/>
      <point x="115" y="1114"/>
      <point x="115" y="974" type="curve" smooth="yes"/>
      <point x="115" y="925"/>
      <point x="120" y="884"/>
    </contour>
  </outline>
</glyph>
<glyph name="AsAboveSign_Simple.tm" format="2">
  <advance width="3295"/>
  <note>
AsAboveSign.tm
</note>
  <outline>
    <contour>
      <point x="690" y="1343" type="curve" smooth="yes"/>
      <point x="337" y="1343"/>
      <point x="157" y="1141"/>
      <point x="157" y="738" type="curve" smooth="yes"/>
      <point x="157" y="389" type="line" smooth="yes"/>
      <point x="157" y="129"/>
      <point x="264" y="-20"/>
      <point x="489" y="-20" type="curve" smooth="yes"/>
      <point x="684" y="-20"/>
      <point x="778" y="106"/>
      <point x="778" y="314" type="curve" smooth="yes"/>
      <point x="778" y="437" type="line" smooth="yes"/>
      <point x="778" y="639"/>
      <point x="683" y="749"/>
      <point x="495" y="749" type="curve" smooth="yes"/>
      <point x="341" y="749"/>
      <point x="232" y="662"/>
      <point x="193" y="556" type="curve"/>
      <point x="184" y="556" type="line"/>
      <point x="184" y="468" type="line"/>
      <point x="216" y="609"/>
      <point x="329" y="714"/>
      <point x="491" y="714" type="curve" smooth="yes"/>
      <point x="660" y="714"/>
      <point x="741" y="616"/>
      <point x="741" y="436" type="curve" smooth="yes"/>
      <point x="741" y="315" type="line" smooth="yes"/>
      <point x="741" y="125"/>
      <point x="661" y="14"/>
      <point x="489" y="14" type="curve" smooth="yes"/>
      <point x="288" y="14"/>
      <point x="194" y="150"/>
      <point x="194" y="378" type="curve" smooth="yes"/>
      <point x="194" y="556" type="line"/>
      <point x="193" y="556" type="line"/>
      <point x="193" y="623"/>
      <point x="193" y="668"/>
      <point x="193" y="735" type="curve" smooth="yes"/>
      <point x="193" y="1119"/>
      <point x="358" y="1309"/>
      <point x="690" y="1309" type="curve" smooth="yes"/>
      <point x="978" y="1309"/>
      <point x="1104" y="1144"/>
      <point x="1142" y="899" type="curve"/>
      <point x="1167" y="942" type="line"/>
      <point x="1125" y="1179"/>
      <point x="984" y="1343"/>
    </contour>
    <contour>
      <point x="1069" y="588" type="curve" smooth="yes"/>
      <point x="1069" y="356" type="line" smooth="yes"/>
      <point x="1069" y="119"/>
      <point x="1166" y="-20"/>
      <point x="1375" y="-20" type="curve" smooth="yes"/>
      <point x="1565" y="-20"/>
      <point x="1655" y="100"/>
      <point x="1655" y="300" type="curve" smooth="yes"/>
      <point x="1655" y="423" type="line" smooth="yes"/>
      <point x="1655" y="618"/>
      <point x="1566" y="724"/>
      <point x="1390" y="724" type="curve" smooth="yes"/>
      <point x="1245" y="724"/>
      <point x="1142" y="637"/>
      <point x="1105" y="531" type="curve"/>
      <point x="1097" y="531" type="line"/>
      <point x="1097" y="443" type="line"/>
      <point x="1126" y="584"/>
      <point x="1233" y="689"/>
      <point x="1386" y="689" type="curve" smooth="yes"/>
      <point x="1544" y="689"/>
      <point x="1619" y="595"/>
      <point x="1619" y="422" type="curve" smooth="yes"/>
      <point x="1619" y="301" type="line" smooth="yes"/>
      <point x="1619" y="119"/>
      <point x="1541" y="14"/>
      <point x="1375" y="14" type="curve" smooth="yes"/>
      <point x="1191" y="14"/>
      <point x="1106" y="139"/>
      <point x="1106" y="345" type="curve"/>
      <point x="1106" y="531" type="line"/>
      <point x="1105" y="531" type="line"/>
      <point x="1105" y="552"/>
      <point x="1105" y="566"/>
      <point x="1105" y="587" type="curve" smooth="yes"/>
      <point x="1105" y="931"/>
      <point x="1269" y="1116"/>
      <point x="1587" y="1116" type="curve" smooth="yes"/>
      <point x="1905" y="1116"/>
      <point x="2027" y="933"/>
      <point x="2027" y="632" type="curve" smooth="yes"/>
      <point x="2027" y="515" type="line" smooth="yes"/>
      <point x="2027" y="286"/>
      <point x="1979" y="141"/>
      <point x="1878" y="8" type="curve"/>
      <point x="1878" y="0" type="line"/>
      <point x="2349" y="0" type="line"/>
      <point x="2349" y="33" type="line"/>
      <point x="1925" y="33" type="line"/>
      <point x="1924" y="14" type="line"/>
      <point x="2013" y="134"/>
      <point x="2064" y="280"/>
      <point x="2064" y="515" type="curve" smooth="yes"/>
      <point x="2064" y="632" type="line" smooth="yes"/>
      <point x="2064" y="955"/>
      <point x="1924" y="1151"/>
      <point x="1587" y="1151" type="curve" smooth="yes"/>
      <point x="1386" y="1151"/>
      <point x="1231" y="1073"/>
      <point x="1156" y="943" type="curve"/>
      <point x="1149" y="938" type="line"/>
      <point x="1096" y="846"/>
      <point x="1069" y="729"/>
    </contour>
    <component base="Ssa_Above_NonExporting" xOffset="2018"/>
    <component base="Ssa_Below_Simple_NonExporting" xOffset="2485"/>
  </outline>
</glyph>
<glyph name="CaMatraI.tm" format="2">
  <advance width="1650"/>
  <note>
CaMatraI.tm
</note>
  <outline>
    <contour>
      <point x="877" y="624" type="line"/>
      <point x="1261" y="624" type="line"/>
      <point x="1252" y="656" type="line"/>
      <point x="877" y="656" type="line"/>
    </contour>
    <contour>
      <point x="1120" y="1698" type="curve" smooth="yes"/>
      <point x="903" y="1698"/>
      <point x="793" y="1575"/>
      <point x="793" y="1356" type="curve" smooth="yes"/>
      <point x="793" y="1350" type="line" smooth="yes"/>
      <point x="793" y="1251"/>
      <point x="820" y="1175"/>
      <point x="853" y="1129" type="curve"/>
      <point x="891" y="1129" type="line"/>
      <point x="852" y="1184"/>
      <point x="829" y="1249"/>
      <point x="829" y="1350" type="curve" smooth="yes"/>
      <point x="829" y="1354" type="line" smooth="yes"/>
      <point x="829" y="1556"/>
      <point x="925" y="1663"/>
      <point x="1120" y="1663" type="curve" smooth="yes"/>
      <point x="1328" y="1663"/>
      <point x="1409" y="1555"/>
      <point x="1409" y="1318" type="curve" smooth="yes"/>
      <point x="1409" y="0" type="line"/>
      <point x="1445" y="0" type="line"/>
      <point x="1445" y="1323" type="line" smooth="yes"/>
      <point x="1445" y="1576"/>
      <point x="1347" y="1698"/>
    </contour>
    <component base="KaComponent_Nonexporting" xOffset="88"/>
    <component base="KaBeak_Nonexporting" xOffset="886"/>
  </outline>
</glyph>
<glyph name="CaMatraUu_Simple.tm" format="2">
  <advance width="2307"/>
  <note>
CaMatraUu.tm
</note>
  <outline>
    <contour>
      <point x="1358" y="624" type="line"/>
      <point x="1721" y="624" type="line"/>
      <point x="1733" y="624" type="line"/>
      <point x="2093" y="624" type="line"/>
      <point x="2084" y="656" type="line"/>
      <point x="1358" y="656" type="line"/>
    </contour>
    <contour>
      <point x="1707" y="638" type="line"/>
      <point x="1707" y="0" type="line"/>
      <point x="1743" y="0" type="line"/>
      <point x="1743" y="638" type="line"/>
    </contour>
    <contour>
      <point x="200" y="1131" type="line"/>
      <point x="200" y="425" type="line"/>
      <point x="200" y="-200"/>
      <point x="557" y="-529"/>
      <point x="1295" y="-529" type="curve" smooth="yes"/>
      <point x="1299" y="-529" type="line" smooth="yes"/>
      <point x="1916" y="-529"/>
      <point x="2227" y="-294"/>
      <point x="2227" y="132" type="curve" smooth="yes"/>
      <point x="2227" y="141" type="line" smooth="yes"/>
      <point x="2227" y="325"/>
      <point x="2149" y="435"/>
      <point x="1987" y="435" type="curve" smooth="yes"/>
      <point x="1858" y="435"/>
      <point x="1773" y="352"/>
      <point x="1743" y="260" type="curve"/>
      <point x="1730" y="260" type="line"/>
      <point x="1730" y="179" type="line"/>
      <point x="1737" y="179" type="line"/>
      <point x="1769" y="316"/>
      <point x="1855" y="402"/>
      <point x="1983" y="402" type="curve" smooth="yes"/>
      <point x="2130" y="402"/>
      <point x="2191" y="302"/>
      <point x="2191" y="138" type="curve" smooth="yes"/>
      <point x="2191" y="134" type="line" smooth="yes"/>
      <point x="2191" y="-277"/>
      <point x="1895" y="-495"/>
      <point x="1299" y="-495" type="curve" smooth="yes"/>
      <point x="1295" y="-495" type="line" smooth="yes"/>
      <point x="581" y="-495"/>
      <point x="237" y="-178"/>
      <point x="237" y="425" type="curve"/>
      <point x="237" y="1131" type="line"/>
    </contour>
    <component base="KaComponent_Nonexporting" xOffset="565"/>
    <component base="KaBeak_Nonexporting" xOffset="1429"/>
  </outline>
</glyph>
<glyph name="DebitSign_Simple.tm" format="2">
  <advance width="1932"/>
  <note>
DebitSign.tm
</note>
  <anchor x="663" y="1245" name="top"/>
  <outline>
    <contour>
      <point x="1727" y="-310" type="line"/>
      <point x="98" y="-310" type="line"/>
      <point x="107" y="-342" type="line"/>
      <point x="1727" y="-342" type="line"/>
    </contour>
    <contour>
      <point x="1691" y="1131" type="line"/>
      <point x="1691" y="-329" type="line"/>
      <point x="1727" y="-329" type="line"/>
      <point x="1727" y="1131" type="line"/>
    </contour>
    <contour>
      <point x="1185" y="167" type="line"/>
      <point x="1185" y="-329" type="line"/>
      <point x="1221" y="-329" type="line"/>
      <point x="1221" y="167" type="line"/>
    </contour>
    <component base="Pa.tm"/>
  </outline>
</glyph>
<glyph name="HaMatraI_Fly.tm" format="2">
  <advance width="2926"/>
  <note>
HaMatraI.tm
</note>
  <anchor x="1308" y="1245" name="top"/>
  <outline>
    <contour>
      <point x="2845" y="1517" type="line"/>
      <point x="2572" y="1517" type="line" smooth="yes"/>
      <point x="2406" y="1517"/>
      <point x="2343" y="1459"/>
      <point x="2343" y="1346" type="curve" smooth="yes"/>
      <point x="2343" y="1271"/>
      <point x="2384" y="1196"/>
      <point x="2417" y="1135" type="curve"/>
      <point x="2456" y="1135" type="line"/>
      <point x="2419" y="1202"/>
      <point x="2380" y="1271"/>
      <point x="2380" y="1342" type="curve" smooth="yes"/>
      <point x="2380" y="1438"/>
      <point x="2432" y="1483"/>
      <point x="2578" y="1483" type="curve" smooth="yes"/>
      <point x="2855" y="1483" type="line"/>
    </contour>
    <component base="Ha.tm"/>
  </outline>
</glyph>
<glyph name="HaMatraI_Simple_Fly.tm" format="2">
  <advance width="2926"/>
  <note>
HaMatraI.tm
</note>
  <anchor x="2126" y="1245" name="top"/>
  <outline>
    <contour>
      <point x="1246" y="33" type="line"/>
      <point x="1246" y="0" type="line"/>
      <point x="1572" y="0" type="line"/>
      <point x="1572" y="33" type="line"/>
    </contour>
    <contour>
      <point x="1607" y="-285" type="line"/>
      <point x="120" y="-285" type="line"/>
      <point x="130" y="-318" type="line"/>
      <point x="1607" y="-318" type="line"/>
    </contour>
    <component base="Va_NonExporting" xOffset="25"/>
    <component base="RraMatraI_Simple_Fly.tm" xOffset="1354"/>
  </outline>
</glyph>
<glyph name="HaMatraIi.tm" format="2">
  <advance width="2926"/>
  <note>
HaMatraIi.tm
</note>
  <anchor x="1308" y="1245" name="top"/>
  <outline>
    <contour>
      <point x="2733" y="1786" type="curve" smooth="yes"/>
      <point x="2492" y="1786"/>
      <point x="2366" y="1665"/>
      <point x="2366" y="1442" type="curve" smooth="yes"/>
      <point x="2366" y="1428" type="line" smooth="yes"/>
      <point x="2366" y="1295"/>
      <point x="2414" y="1186"/>
      <point x="2469" y="1129" type="curve"/>
      <point x="2510" y="1129" type="line"/>
      <point x="2445" y="1195"/>
      <point x="2402" y="1297"/>
      <point x="2402" y="1428" type="curve" smooth="yes"/>
      <point x="2402" y="1440" type="line" smooth="yes"/>
      <point x="2402" y="1618"/>
      <point x="2488" y="1726"/>
      <point x="2655" y="1748" type="curve"/>
      <point x="2655" y="1748" type="line"/>
      <point x="2681" y="1752"/>
      <point x="2707" y="1753"/>
      <point x="2735" y="1753" type="curve" smooth="yes"/>
      <point x="2918" y="1753"/>
      <point x="2998" y="1677"/>
      <point x="2998" y="1531" type="curve" smooth="yes"/>
      <point x="2998" y="1526" type="line" smooth="yes"/>
      <point x="2998" y="1397"/>
      <point x="2940" y="1334"/>
      <point x="2821" y="1334" type="curve" smooth="yes"/>
      <point x="2693" y="1334"/>
      <point x="2636" y="1409"/>
      <point x="2636" y="1539" type="curve" smooth="yes"/>
      <point x="2636" y="1555" type="line" smooth="yes"/>
      <point x="2636" y="1638"/>
      <point x="2653" y="1709"/>
      <point x="2691" y="1757" type="curve"/>
      <point x="2655" y="1758" type="line"/>
      <point x="2655" y="1748" type="line"/>
      <point x="2622" y="1706"/>
      <point x="2600" y="1638"/>
      <point x="2600" y="1551" type="curve" smooth="yes"/>
      <point x="2600" y="1534" type="line" smooth="yes"/>
      <point x="2600" y="1391"/>
      <point x="2672" y="1301"/>
      <point x="2822" y="1301" type="curve" smooth="yes"/>
      <point x="2964" y="1301"/>
      <point x="3033" y="1379"/>
      <point x="3033" y="1524" type="curve" smooth="yes"/>
      <point x="3033" y="1533" type="line" smooth="yes"/>
      <point x="3033" y="1694"/>
      <point x="2939" y="1786"/>
    </contour>
    <component base="Ha.tm"/>
  </outline>
</glyph>
<glyph name="HaMatraIi_Simple_SimpleIi.tm" format="2">
  <advance width="2926"/>
  <note>
HaMatraIi.tm
</note>
  <anchor x="2126" y="1245" name="top"/>
  <outline>
    <contour>
      <point x="1246" y="32" type="line"/>
      <point x="1246" y="0" type="line"/>
      <point x="1577" y="0" type="line"/>
      <point x="1577" y="32" type="line"/>
    </contour>
    <contour>
      <point x="1602" y="-285" type="line"/>
      <point x="120" y="-285" type="line"/>
      <point x="130" y="-318" type="line"/>
      <point x="1602" y="-318" type="line"/>
    </contour>
    <component base="Va_NonExporting" xOffset="25"/>
    <component base="RraMatraIi_Simple_SimpleIi.tm" xOffset="1354"/>
  </outline>
</glyph>
<glyph name="Ha_Simple.tm" format="2">
  <advance width="2916"/>
  <note>
Ha.tm
</note>
  <anchor x="1308" y="1245" name="top"/>
  <outline>
    <contour>
      <point x="1246" y="34" type="line"/>
      <point x="1246" y="0" type="line"/>
      <point x="1572" y="0" type="line"/>
      <point x="1572" y="34" type="line"/>
    </contour>
    <contour>
      <point x="1607" y="-285" type="line"/>
      <point x="120" y="-285" type="line"/>
      <point x="130" y="-318" type="line"/>
      <point x="1607" y="-318" type="line"/>
    </contour>
    <component base="Va_NonExporting" xOffset="25"/>
    <component base="Rra_Simple.tm" xOffset="1354"/>
  </outline>
</glyph>
<glyph name="JaMatraI_Fly.tm" format="2">
  <advance width="1775"/>
  <note>
JaMatraI.tm
</note>
  <anchor x="1002" y="1245" name="top"/>
  <outline>
    <contour>
      <point x="1746" y="1517" type="line"/>
      <point x="1473" y="1517" type="line" smooth="yes"/>
      <point x="1307" y="1517"/>
      <point x="1244" y="1459"/>
      <point x="1244" y="1346" type="curve" smooth="yes"/>
      <point x="1244" y="1271"/>
      <point x="1285" y="1196"/>
      <point x="1318" y="1135" type="curve"/>
      <point x="1357" y="1135" type="line"/>
      <point x="1320" y="1202"/>
      <point x="1281" y="1271"/>
      <point x="1281" y="1342" type="curve" smooth="yes"/>
      <point x="1281" y="1438"/>
      <point x="1333" y="1483"/>
      <point x="1479" y="1483" type="curve" smooth="yes"/>
      <point x="1756" y="1483" type="line"/>
    </contour>
    <component base="Ja.tm"/>
  </outline>
</glyph>
<glyph name="JaMatraI_Fused_Fly.tm" format="2">
  <advance width="1785"/>
  <note>
JaMatraI.tm
</note>
  <anchor x="1006" y="1245" name="top"/>
  <outline>
    <contour>
      <point x="1756" y="1517" type="line"/>
      <point x="1483" y="1517" type="line" smooth="yes"/>
      <point x="1317" y="1517"/>
      <point x="1254" y="1459"/>
      <point x="1254" y="1346" type="curve" smooth="yes"/>
      <point x="1254" y="1271"/>
      <point x="1295" y="1196"/>
      <point x="1328" y="1135" type="curve"/>
      <point x="1367" y="1135" type="line"/>
      <point x="1330" y="1202"/>
      <point x="1291" y="1271"/>
      <point x="1291" y="1342" type="curve" smooth="yes"/>
      <point x="1291" y="1438"/>
      <point x="1343" y="1483"/>
      <point x="1489" y="1483" type="curve" smooth="yes"/>
      <point x="1766" y="1483" type="line"/>
    </contour>
    <component base="Ja_Fused.tm"/>
  </outline>
</glyph>
<glyph name="JaMatraIi.tm" format="2">
  <advance width="1775"/>
  <note>
JaMatraIi.tm
</note>
  <anchor x="1002" y="1245" name="top"/>
  <outline>
    <contour>
      <point x="1597" y="1786" type="curve" smooth="yes"/>
      <point x="1356" y="1786"/>
      <point x="1230" y="1665"/>
      <point x="1230" y="1442" type="curve" smooth="yes"/>
      <point x="1230" y="1428" type="line" smooth="yes"/>
      <point x="1230" y="1303"/>
      <point x="1273" y="1201"/>
      <point x="1324" y="1147" type="curve"/>
      <point x="1365" y="1147" type="line"/>
      <point x="1305" y="1209"/>
      <point x="1266" y="1305"/>
      <point x="1266" y="1428" type="curve" smooth="yes"/>
      <point x="1266" y="1440" type="line" smooth="yes"/>
      <point x="1266" y="1618"/>
      <point x="1352" y="1726"/>
      <point x="1519" y="1748" type="curve"/>
      <point x="1519" y="1748" type="line"/>
      <point x="1545" y="1752"/>
      <point x="1571" y="1753"/>
      <point x="1599" y="1753" type="curve" smooth="yes"/>
      <point x="1782" y="1753"/>
      <point x="1862" y="1677"/>
      <point x="1862" y="1531" type="curve" smooth="yes"/>
      <point x="1862" y="1526" type="line" smooth="yes"/>
      <point x="1862" y="1397"/>
      <point x="1804" y="1334"/>
      <point x="1685" y="1334" type="curve" smooth="yes"/>
      <point x="1557" y="1334"/>
      <point x="1500" y="1409"/>
      <point x="1500" y="1539" type="curve" smooth="yes"/>
      <point x="1500" y="1555" type="line" smooth="yes"/>
      <point x="1500" y="1638"/>
      <point x="1517" y="1709"/>
      <point x="1555" y="1757" type="curve"/>
      <point x="1519" y="1758" type="line"/>
      <point x="1519" y="1748" type="line"/>
      <point x="1486" y="1706"/>
      <point x="1464" y="1638"/>
      <point x="1464" y="1551" type="curve" smooth="yes"/>
      <point x="1464" y="1534" type="line" smooth="yes"/>
      <point x="1464" y="1391"/>
      <point x="1536" y="1301"/>
      <point x="1686" y="1301" type="curve" smooth="yes"/>
      <point x="1828" y="1301"/>
      <point x="1897" y="1379"/>
      <point x="1897" y="1524" type="curve" smooth="yes"/>
      <point x="1897" y="1533" type="line" smooth="yes"/>
      <point x="1897" y="1694"/>
      <point x="1803" y="1786"/>
    </contour>
    <component base="Ja.tm"/>
  </outline>
</glyph>
<glyph name="JaMatraIi_Fused.tm" format="2">
  <advance width="1785"/>
  <note>
JaMatraIi.tm
</note>
  <anchor x="1006" y="1245" name="top"/>
  <outline>
    <contour>
      <point x="1607" y="1786" type="curve" smooth="yes"/>
      <point x="1366" y="1786"/>
      <point x="1240" y="1665"/>
      <point x="1240" y="1442" type="curve" smooth="yes"/>
      <point x="1240" y="1428" type="line" smooth="yes"/>
      <point x="1240" y="1303"/>
      <point x="1283" y="1201"/>
      <point x="1334" y="1147" type="curve"/>
      <point x="1375" y="1147" type="line"/>
      <point x="1315" y="1209"/>
      <point x="1276" y="1305"/>
      <point x="1276" y="1428" type="curve" smooth="yes"/>
      <point x="1276" y="1440" type="line" smooth="yes"/>
      <point x="1276" y="1618"/>
      <point x="1362" y="1726"/>
      <point x="1529" y="1748" type="curve"/>
      <point x="1529" y="1748" type="line"/>
      <point x="1555" y="1752"/>
      <point x="1581" y="1753"/>
      <point x="1609" y="1753" type="curve" smooth="yes"/>
      <point x="1792" y="1753"/>
      <point x="1872" y="1677"/>
      <point x="1872" y="1531" type="curve" smooth="yes"/>
      <point x="1872" y="1526" type="line" smooth="yes"/>
      <point x="1872" y="1397"/>
      <point x="1814" y="1334"/>
      <point x="1695" y="1334" type="curve" smooth="yes"/>
      <point x="1567" y="1334"/>
      <point x="1510" y="1409"/>
      <point x="1510" y="1539" type="curve" smooth="yes"/>
      <point x="1510" y="1555" type="line" smooth="yes"/>
      <point x="1510" y="1638"/>
      <point x="1527" y="1709"/>
      <point x="1565" y="1757" type="curve"/>
      <point x="1529" y="1758" type="line"/>
      <point x="1529" y="1748" type="line"/>
      <point x="1496" y="1706"/>
      <point x="1474" y="1638"/>
      <point x="1474" y="1551" type="curve" smooth="yes"/>
      <point x="1474" y="1534" type="line" smooth="yes"/>
      <point x="1474" y="1391"/>
      <point x="1546" y="1301"/>
      <point x="1696" y="1301" type="curve" smooth="yes"/>
      <point x="1838" y="1301"/>
      <point x="1907" y="1379"/>
      <point x="1907" y="1524" type="curve" smooth="yes"/>
      <point x="1907" y="1533" type="line" smooth="yes"/>
      <point x="1907" y="1694"/>
      <point x="1813" y="1786"/>
    </contour>
    <component base="Ja_Fused.tm"/>
  </outline>
</glyph>
<glyph name="JaMatraIi_SimpleIi.tm" format="2">
  <advance width="1775"/>
  <note>
JaMatraIi.tm
</note>
  <anchor x="1002" y="1245" name="top"/>
  <outline>
    <contour>
      <point x="1499" y="1786" type="curve" smooth="yes"/>
      <point x="1331" y="1786"/>
      <point x="1230" y="1688"/>
      <point x="1230" y="1490" type="curve" smooth="yes"/>
      <point x="1230" y="1434" type="line" smooth="yes"/>
      <point x="1230" y="1299"/>
      <point x="1261" y="1203"/>
      <point x="1325" y="1146" type="curve"/>
      <point x="1372" y="1146" type="line"/>
      <point x="1293" y="1209"/>
      <point x="1266" y="1302"/>
      <point x="1266" y="1426" type="curve" smooth="yes"/>
      <point x="1266" y="1451" type="line"/>
      <point x="1266" y="1494" type="line" smooth="yes"/>
      <point x="1266" y="1669"/>
      <point x="1353" y="1753"/>
      <point x="1499" y="1753" type="curve" smooth="yes"/>
      <point x="1636" y="1753"/>
      <point x="1710" y="1686"/>
      <point x="1710" y="1558" type="curve" smooth="yes"/>
      <point x="1710" y="1543" type="line" smooth="yes"/>
      <point x="1710" y="1416"/>
      <point x="1645" y="1350"/>
      <point x="1504" y="1350" type="curve" smooth="yes"/>
      <point x="1380" y="1350"/>
      <point x="1294" y="1402"/>
      <point x="1262" y="1471" type="curve"/>
      <point x="1259" y="1471" type="line"/>
      <point x="1259" y="1439" type="line"/>
      <point x="1265" y="1439" type="line"/>
      <point x="1293" y="1395" type="line"/>
      <point x="1322" y="1359"/>
      <point x="1399" y="1317"/>
      <point x="1508" y="1317" type="curve" smooth="yes"/>
      <point x="1676" y="1317"/>
      <point x="1746" y="1404"/>
      <point x="1746" y="1542" type="curve" smooth="yes"/>
      <point x="1746" y="1559" type="line" smooth="yes"/>
      <point x="1746" y="1705"/>
      <point x="1658" y="1786"/>
    </contour>
    <component base="Ja.tm"/>
  </outline>
</glyph>
<glyph name="JaMatraUu_Fused_SimpleUu.tm" format="2">
  <advance width="3008"/>
  <note>
JaMatraUu.tm
</note>
  <outline>
    <contour>
      <point x="1691" y="1131" type="line"/>
      <point x="1434" y="1131" type="line"/>
      <point x="1468" y="1098" type="line"/>
      <point x="1691" y="1098" type="line"/>
    </contour>
    <contour>
      <point x="1322" y="1155" type="curve" smooth="yes"/>
      <point x="1133" y="1155"/>
      <point x="1038" y="1036"/>
      <point x="1032" y="830" type="curve"/>
      <point x="1030" y="830" type="line"/>
      <point x="1005" y="1045"/>
      <point x="879" y="1163"/>
      <point x="623" y="1163" type="curve" smooth="yes"/>
      <point x="325" y="1163"/>
      <point x="170" y="996"/>
      <point x="170" y="701" type="curve" smooth="yes"/>
      <point x="170" y="550" type="line" smooth="yes"/>
      <point x="170" y="328"/>
      <point x="262" y="199"/>
      <point x="464" y="199" type="curve"/>
      <point x="598" y="227" type="line"/>
      <point x="693" y="265"/>
      <point x="735" y="367"/>
      <point x="735" y="501" type="curve" smooth="yes"/>
      <point x="735" y="613" type="line" smooth="yes"/>
      <point x="735" y="794"/>
      <point x="649" y="893"/>
      <point x="479" y="893" type="curve" smooth="yes"/>
      <point x="342" y="893"/>
      <point x="242" y="813"/>
      <point x="205" y="713" type="curve"/>
      <point x="197" y="713" type="line"/>
      <point x="197" y="626" type="line"/>
      <point x="225" y="761"/>
      <point x="333" y="859"/>
      <point x="475" y="859" type="curve" smooth="yes"/>
      <point x="626" y="859"/>
      <point x="699" y="772"/>
      <point x="699" y="612" type="curve" smooth="yes"/>
      <point x="699" y="503" type="line" smooth="yes"/>
      <point x="699" y="333"/>
      <point x="631" y="228"/>
      <point x="466" y="228" type="curve" smooth="yes"/>
      <point x="285" y="228"/>
      <point x="207" y="350"/>
      <point x="207" y="546" type="curve" smooth="yes"/>
      <point x="207" y="713" type="line"/>
      <point x="205" y="713" type="line"/>
      <point x="208" y="979"/>
      <point x="354" y="1129"/>
      <point x="623" y="1129" type="curve" smooth="yes"/>
      <point x="909" y="1129"/>
      <point x="1018" y="981"/>
      <point x="1018" y="701" type="curve" smooth="yes"/>
      <point x="1018" y="406" type="line"/>
      <point x="1053" y="406" type="line"/>
      <point x="1053" y="774" type="line" smooth="yes"/>
      <point x="1053" y="1025"/>
      <point x="1157" y="1121"/>
      <point x="1321" y="1121" type="curve" smooth="yes"/>
      <point x="1512" y="1121"/>
      <point x="1583" y="1002"/>
      <point x="1583" y="798" type="curve" smooth="yes"/>
      <point x="1583" y="661" type="line"/>
      <point x="1583" y="418"/>
      <point x="1493" y="291"/>
      <point x="1177" y="269" type="curve" smooth="yes"/>
      <point x="598" y="228" type="line"/>
      <point x="479" y="213" type="line"/>
      <point x="277" y="178"/>
      <point x="199" y="75"/>
      <point x="199" y="-114" type="curve" smooth="yes"/>
      <point x="199" y="-128" type="line" smooth="yes"/>
      <point x="199" y="-312"/>
      <point x="295" y="-423"/>
      <point x="481" y="-423" type="curve" smooth="yes"/>
      <point x="659" y="-423"/>
      <point x="738" y="-327"/>
      <point x="851" y="-190" type="curve" smooth="yes"/>
      <point x="1017" y="10" type="line" smooth="yes"/>
      <point x="1143" y="161"/>
      <point x="1223" y="256"/>
      <point x="1374" y="256" type="curve" smooth="yes"/>
      <point x="1516" y="256"/>
      <point x="1579" y="148"/>
      <point x="1579" y="-28" type="curve" smooth="yes"/>
      <point x="1579" y="-91" type="line" smooth="yes"/>
      <point x="1579" y="-289"/>
      <point x="1500" y="-389"/>
      <point x="1319" y="-389" type="curve" smooth="yes"/>
      <point x="1229" y="-389"/>
      <point x="1138" y="-369"/>
      <point x="1049" y="-328" type="curve"/>
      <point x="1059" y="-368" type="line"/>
      <point x="1138" y="-402"/>
      <point x="1227" y="-423"/>
      <point x="1320" y="-423" type="curve" smooth="yes"/>
      <point x="1520" y="-423"/>
      <point x="1615" y="-308"/>
      <point x="1615" y="-91" type="curve" smooth="yes"/>
      <point x="1615" y="-26" type="line" smooth="yes"/>
      <point x="1615" y="152"/>
      <point x="1546" y="276"/>
      <point x="1399" y="281" type="curve"/>
      <point x="1366" y="282" type="line"/>
      <point x="1214" y="282"/>
      <point x="1117" y="184"/>
      <point x="994" y="36" type="curve" smooth="yes"/>
      <point x="828" y="-164" type="line" smooth="yes"/>
      <point x="718" y="-296"/>
      <point x="640" y="-389"/>
      <point x="482" y="-389" type="curve" smooth="yes"/>
      <point x="315" y="-389"/>
      <point x="235" y="-295"/>
      <point x="235" y="-125" type="curve" smooth="yes"/>
      <point x="235" y="-114" type="line" smooth="yes"/>
      <point x="235" y="80"/>
      <point x="318" y="178"/>
      <point x="611" y="198" type="curve" smooth="yes"/>
      <point x="1182" y="237" type="line" smooth="yes"/>
      <point x="1522" y="260"/>
      <point x="1619" y="404"/>
      <point x="1619" y="662" type="curve" smooth="yes"/>
      <point x="1619" y="799" type="line" smooth="yes"/>
      <point x="1619" y="942"/>
      <point x="1584" y="1052"/>
      <point x="1496" y="1108" type="curve"/>
      <point x="1491" y="1115" type="line"/>
      <point x="1451" y="1140"/>
      <point x="1394" y="1155"/>
    </contour>
    <component base="MatraUuDflt_Simple.tm" xOffset="1551"/>
  </outline>
</glyph>
<glyph name="KaBeak_Nonexporting" format="2">
  <advance width="271"/>
  <outline>
    <contour>
      <point x="-15" y="1099" type="line"/>
      <point x="271" y="1099" type="line"/>
      <point x="262" y="1131" type="line"/>
      <point x="-15" y="1131" type="line"/>
    </contour>
  </outline>
</glyph>
<glyph name="KaComponent_Nonexporting" format="2">
  <advance width="912"/>
  <outline>
    <contour>
      <point x="790" y="656" type="line"/>
      <point x="310" y="656" type="line"/>
      <point x="288" y="652" type="line"/>
      <point x="92" y="615" type="line"/>
      <point x="82" y="547"/>
      <point x="77" y="435"/>
      <point x="77" y="358" type="curve" smooth="yes"/>
      <point x="77" y="112"/>
      <point x="208" y="-20"/>
      <point x="460" y="-20" type="curve" smooth="yes"/>
      <point x="698" y="-20"/>
      <point x="804" y="104"/>
      <point x="804" y="365" type="curve" smooth="yes"/>
      <point x="804" y="637" type="line"/>
      <point x="804" y="645" type="line"/>
      <point x="804" y="1113" type="line"/>
      <point x="769" y="1113" type="line"/>
      <point x="769" y="645" type="line"/>
      <point x="768" y="637" type="line"/>
      <point x="768" y="366" type="line" smooth="yes"/>
      <point x="768" y="123"/>
      <point x="675" y="15"/>
      <point x="460" y="15" type="curve" smooth="yes"/>
      <point x="232" y="15"/>
      <point x="114" y="129"/>
      <point x="114" y="359" type="curve" smooth="yes"/>
      <point x="114" y="430"/>
      <point x="117" y="527"/>
      <point x="125" y="589" type="curve"/>
      <point x="310" y="624" type="line"/>
      <point x="790" y="624" type="line"/>
    </contour>
    <contour>
      <point x="912" y="1131" type="line"/>
      <point x="280" y="1131" type="line"/>
      <point x="280" y="633" type="line"/>
      <point x="316" y="644" type="line"/>
      <point x="316" y="1099" type="line"/>
      <point x="772" y="1099" type="line"/>
      <point x="790" y="1099" type="line"/>
      <point x="912" y="1099" type="line"/>
    </contour>
  </outline>
</glyph>
<glyph name="KaMatraI.tm" format="2">
  <advance width="1584"/>
  <note>
KaMatraI.tm
</note>
  <outline>
    <contour>
      <point x="886" y="624" type="line"/>
      <point x="1106" y="624" type="line" smooth="yes"/>
      <point x="1287" y="624"/>
      <point x="1366" y="554"/>
      <point x="1366" y="371" type="curve" smooth="yes"/>
      <point x="1366" y="294" type="line" smooth="yes"/>
      <point x="1366" y="123"/>
      <point x="1296" y="14"/>
      <point x="1096" y="14" type="curve" smooth="yes"/>
      <point x="973" y="14"/>
      <point x="889" y="41"/>
      <point x="814" y="87" type="curve"/>
      <point x="811" y="83" type="line"/>
      <point x="824" y="42" type="line"/>
      <point x="878" y="10"/>
      <point x="969" y="-21"/>
      <point x="1095" y="-21" type="curve" smooth="yes"/>
      <point x="1320" y="-21"/>
      <point x="1403" y="101"/>
      <point x="1403" y="293" type="curve" smooth="yes"/>
      <point x="1403" y="374" type="line" smooth="yes"/>
      <point x="1403" y="576"/>
      <point x="1309" y="656"/>
      <point x="1109" y="656" type="curve" smooth="yes"/>
      <point x="886" y="656" type="line"/>
    </contour>
    <contour>
      <point x="1109" y="1698" type="curve" smooth="yes"/>
      <point x="899" y="1698"/>
      <point x="792" y="1576"/>
      <point x="792" y="1359" type="curve"/>
      <point x="792" y="1350" type="line" smooth="yes"/>
      <point x="792" y="1257"/>
      <point x="820" y="1175"/>
      <point x="852" y="1129" type="curve"/>
      <point x="890" y="1129" type="line"/>
      <point x="852" y="1184"/>
      <point x="828" y="1254"/>
      <point x="828" y="1350" type="curve" smooth="yes"/>
      <point x="828" y="1356" type="line"/>
      <point x="828" y="1558"/>
      <point x="921" y="1663"/>
      <point x="1109" y="1663" type="curve" smooth="yes"/>
      <point x="1308" y="1663"/>
      <point x="1388" y="1554"/>
      <point x="1388" y="1316" type="curve" smooth="yes"/>
      <point x="1388" y="729" type="line"/>
      <point x="1424" y="729" type="line"/>
      <point x="1424" y="1321" type="line" smooth="yes"/>
      <point x="1424" y="1576"/>
      <point x="1327" y="1698"/>
    </contour>
    <component base="KaComponent_Nonexporting" xOffset="88"/>
    <component base="KaBeak_Nonexporting" xOffset="941"/>
  </outline>
</glyph>
<glyph name="KaMatraU.tm" format="2">
  <advance width="2023"/>
  <note>
KaMatraU.tm
</note>
  <outline>
    <contour>
      <point x="1386" y="624" type="line"/>
      <point x="1451" y="624" type="line" smooth="yes"/>
      <point x="1739" y="624"/>
      <point x="1851" y="514"/>
      <point x="1851" y="242" type="curve" smooth="yes"/>
      <point x="1851" y="209" type="line" smooth="yes"/>
      <point x="1851" y="-184"/>
      <point x="1625" y="-402"/>
      <point x="1089" y="-402" type="curve" smooth="yes"/>
      <point x="1087" y="-402" type="line" smooth="yes"/>
      <point x="500" y="-402"/>
      <point x="219" y="-117"/>
      <point x="219" y="425" type="curve" smooth="yes"/>
      <point x="219" y="733"/>
      <point x="280" y="981"/>
      <point x="346" y="1131" type="curve"/>
      <point x="307" y="1131" type="line"/>
      <point x="249" y="997"/>
      <point x="182" y="744"/>
      <point x="182" y="425" type="curve" smooth="yes"/>
      <point x="182" y="-140"/>
      <point x="476" y="-437"/>
      <point x="1087" y="-437" type="curve" smooth="yes"/>
      <point x="1089" y="-437" type="line" smooth="yes"/>
      <point x="1646" y="-437"/>
      <point x="1888" y="-204"/>
      <point x="1888" y="209" type="curve" smooth="yes"/>
      <point x="1888" y="242" type="line" smooth="yes"/>
      <point x="1888" y="529"/>
      <point x="1762" y="656"/>
      <point x="1455" y="656" type="curve" smooth="yes"/>
      <point x="1386" y="656" type="line"/>
    </contour>
    <component base="KaComponent_Nonexporting" xOffset="597"/>
    <component base="KaBeak_Nonexporting" xOffset="1454"/>
  </outline>
</glyph>
<glyph name="KaMatraU_Simple.tm" format="2">
  <advance width="2021"/>
  <note>
KaMatraU.tm
</note>
  <outline>
    <contour>
      <point x="1384" y="624" type="line"/>
      <point x="1449" y="624" type="line" smooth="yes"/>
      <point x="1737" y="624"/>
      <point x="1849" y="514"/>
      <point x="1849" y="242" type="curve" smooth="yes"/>
      <point x="1849" y="209" type="line" smooth="yes"/>
      <point x="1849" y="-184"/>
      <point x="1626" y="-402"/>
      <point x="1097" y="-402" type="curve" smooth="yes"/>
      <point x="1095" y="-402" type="line" smooth="yes"/>
      <point x="515" y="-402"/>
      <point x="237" y="-117"/>
      <point x="237" y="425" type="curve"/>
      <point x="237" y="1131" type="line"/>
      <point x="200" y="1131" type="line"/>
      <point x="200" y="425" type="line"/>
      <point x="200" y="-140"/>
      <point x="491" y="-437"/>
      <point x="1095" y="-437" type="curve" smooth="yes"/>
      <point x="1097" y="-437" type="line" smooth="yes"/>
      <point x="1647" y="-437"/>
      <point x="1886" y="-204"/>
      <point x="1886" y="209" type="curve" smooth="yes"/>
      <point x="1886" y="242" type="line" smooth="yes"/>
      <point x="1886" y="529"/>
      <point x="1760" y="656"/>
      <point x="1453" y="656" type="curve" smooth="yes"/>
      <point x="1384" y="656" type="line"/>
    </contour>
    <component base="KaComponent_Nonexporting" xOffset="595"/>
    <component base="KaBeak_Nonexporting" xOffset="1452"/>
  </outline>
</glyph>
<glyph name="KaMatraUu.tm" format="2">
  <advance width="2267"/>
  <note>
KaMatraUu.tm
</note>
  <outline>
    <contour>
      <point x="880" y="624" type="line"/>
      <point x="1025" y="624" type="line" smooth="yes"/>
      <point x="1225" y="624"/>
      <point x="1294" y="550"/>
      <point x="1294" y="353" type="curve" smooth="yes"/>
      <point x="1294" y="0" type="line"/>
      <point x="1330" y="0" type="line"/>
      <point x="1330" y="413" type="line" smooth="yes"/>
      <point x="1330" y="648"/>
      <point x="1441" y="747"/>
      <point x="1598" y="747" type="curve" smooth="yes"/>
      <point x="1761" y="747"/>
      <point x="1834" y="648"/>
      <point x="1834" y="472" type="curve" smooth="yes"/>
      <point x="1834" y="374" type="line" smooth="yes"/>
      <point x="1834" y="197"/>
      <point x="1784" y="103"/>
      <point x="1698" y="8" type="curve"/>
      <point x="1698" y="0" type="line"/>
      <point x="2226" y="0" type="line"/>
      <point x="2235" y="33" type="line"/>
      <point x="1742" y="33" type="line"/>
      <point x="1746" y="14" type="line"/>
      <point x="1816" y="92"/>
      <point x="1871" y="192"/>
      <point x="1871" y="373" type="curve" smooth="yes"/>
      <point x="1871" y="473" type="line" smooth="yes"/>
      <point x="1871" y="672"/>
      <point x="1785" y="781"/>
      <point x="1602" y="781" type="curve" smooth="yes"/>
      <point x="1422" y="781"/>
      <point x="1310" y="663"/>
      <point x="1310" y="443" type="curve" smooth="yes"/>
      <point x="1310" y="421" type="line"/>
      <point x="1308" y="421" type="line"/>
      <point x="1301" y="578"/>
      <point x="1232" y="656"/>
      <point x="1027" y="656" type="curve" smooth="yes"/>
      <point x="880" y="656" type="line"/>
    </contour>
    <component base="KaComponent_Nonexporting" xOffset="88"/>
    <component base="KaBeak_Nonexporting" xOffset="952"/>
  </outline>
</glyph>
<glyph name="KssaMatraI_Simple.tm" format="2">
  <advance width="3502"/>
  <note>
KshaMatraI.tm
</note>
  <anchor x="1758" y="1245" name="top"/>
  <outline>
    <contour>
      <point x="2885" y="1698" type="curve" smooth="yes"/>
      <point x="2630" y="1698"/>
      <point x="2475" y="1552"/>
      <point x="2475" y="1307" type="curve" smooth="yes"/>
      <point x="2475" y="1303" type="line" smooth="yes"/>
      <point x="2475" y="1237"/>
      <point x="2487" y="1178"/>
      <point x="2506" y="1139" type="curve"/>
      <point x="2542" y="1139" type="line"/>
      <point x="2522" y="1179"/>
      <point x="2510" y="1235"/>
      <point x="2510" y="1302" type="curve" smooth="yes"/>
      <point x="2510" y="1303" type="line" smooth="yes"/>
      <point x="2510" y="1538"/>
      <point x="2650" y="1663"/>
      <point x="2885" y="1663" type="curve" smooth="yes"/>
      <point x="3149" y="1663"/>
      <point x="3261" y="1528"/>
      <point x="3261" y="1211" type="curve" smooth="yes"/>
      <point x="3261" y="0" type="line"/>
      <point x="3297" y="0" type="line"/>
      <point x="3297" y="1217" type="line" smooth="yes"/>
      <point x="3297" y="1549"/>
      <point x="3166" y="1698"/>
    </contour>
    <component base="Kssa_Simple.tm"/>
  </outline>
</glyph>
<glyph name="KssaMatraUu.tm" format="2">
  <advance width="4245"/>
  <note>
KshaMatraUu.tm
</note>
  <outline>
    <contour>
      <point x="864" y="624" type="line"/>
      <point x="1025" y="624" type="line" smooth="yes"/>
      <point x="1225" y="624"/>
      <point x="1294" y="549"/>
      <point x="1294" y="352" type="curve" smooth="yes"/>
      <point x="1294" y="0" type="line"/>
      <point x="1330" y="0" type="line"/>
      <point x="1330" y="412" type="line" smooth="yes"/>
      <point x="1330" y="646"/>
      <point x="1441" y="747"/>
      <point x="1598" y="747" type="curve" smooth="yes"/>
      <point x="1761" y="747"/>
      <point x="1834" y="647"/>
      <point x="1834" y="472" type="curve" smooth="yes"/>
      <point x="1834" y="374" type="line" smooth="yes"/>
      <point x="1834" y="197"/>
      <point x="1784" y="103"/>
      <point x="1698" y="8" type="curve"/>
      <point x="1698" y="0" type="line"/>
      <point x="2240" y="0" type="line"/>
      <point x="2240" y="33" type="line"/>
      <point x="1742" y="33" type="line"/>
      <point x="1746" y="14" type="line"/>
      <point x="1816" y="92"/>
      <point x="1871" y="192"/>
      <point x="1871" y="373" type="curve" smooth="yes"/>
      <point x="1871" y="473" type="line" smooth="yes"/>
      <point x="1871" y="672"/>
      <point x="1785" y="781"/>
      <point x="1602" y="781" type="curve" smooth="yes"/>
      <point x="1422" y="781"/>
      <point x="1310" y="662"/>
      <point x="1310" y="442" type="curve" smooth="yes"/>
      <point x="1310" y="420" type="line"/>
      <point x="1308" y="420" type="line"/>
      <point x="1301" y="578"/>
      <point x="1232" y="656"/>
      <point x="1027" y="656" type="curve" smooth="yes"/>
      <point x="864" y="656" type="line"/>
    </contour>
    <contour>
      <point x="1861" y="33" type="line"/>
      <point x="1861" y="0" type="line"/>
      <point x="3029" y="0" type="line"/>
      <point x="3038" y="33" type="line"/>
      <point x="2539" y="33" type="line"/>
      <point x="2518" y="22" type="line"/>
      <point x="2497" y="33" type="line"/>
    </contour>
    <contour>
      <point x="2518" y="1150" type="curve" smooth="yes"/>
      <point x="2291" y="1150"/>
      <point x="2178" y="1000"/>
      <point x="2178" y="741" type="curve" smooth="yes"/>
      <point x="2178" y="518" type="line" smooth="yes"/>
      <point x="2178" y="270"/>
      <point x="2261" y="102"/>
      <point x="2497" y="10" type="curve"/>
      <point x="2534" y="21" type="line"/>
      <point x="2289" y="118"/>
      <point x="2215" y="279"/>
      <point x="2215" y="518" type="curve" smooth="yes"/>
      <point x="2215" y="740" type="line" smooth="yes"/>
      <point x="2215" y="979"/>
      <point x="2313" y="1116"/>
      <point x="2518" y="1116" type="curve" smooth="yes"/>
      <point x="2723" y="1116"/>
      <point x="2821" y="979"/>
      <point x="2821" y="740" type="curve" smooth="yes"/>
      <point x="2821" y="518" type="line" smooth="yes"/>
      <point x="2821" y="279"/>
      <point x="2746" y="118"/>
      <point x="2501" y="21" type="curve"/>
      <point x="2538" y="10" type="line"/>
      <point x="2774" y="102"/>
      <point x="2858" y="270"/>
      <point x="2858" y="518" type="curve" smooth="yes"/>
      <point x="2858" y="741" type="line" smooth="yes"/>
      <point x="2858" y="920"/>
      <point x="2805" y="1052"/>
      <point x="2692" y="1110" type="curve"/>
      <point x="2686" y="1116" type="line"/>
      <point x="2641" y="1139"/>
      <point x="2584" y="1150"/>
    </contour>
    <contour>
      <point x="2964" y="1131" type="line"/>
      <point x="2632" y="1131" type="line"/>
      <point x="2684" y="1098" type="line"/>
      <point x="2964" y="1098" type="line"/>
    </contour>
    <component base="MatraUuDflt.tm" xOffset="2782"/>
    <component base="KaComponent_Nonexporting" xOffset="88"/>
    <component base="KaBeak_Nonexporting" xOffset="953"/>
    <component base="Ssa_Below_NonExporting" xOffset="2269"/>
  </outline>
</glyph>
<glyph name="LaMatraI_Fly.tm" format="2">
  <advance width="1865"/>
  <note>
LaMatraI.tm
</note>
  <outline>
    <contour>
      <point x="657" y="1150" type="curve" smooth="yes"/>
      <point x="335" y="1150"/>
      <point x="170" y="958"/>
      <point x="170" y="589" type="curve" smooth="yes"/>
      <point x="170" y="356" type="line" smooth="yes"/>
      <point x="170" y="119"/>
      <point x="268" y="-20"/>
      <point x="477" y="-20" type="curve" smooth="yes"/>
      <point x="666" y="-20"/>
      <point x="756" y="100"/>
      <point x="756" y="300" type="curve" smooth="yes"/>
      <point x="756" y="423" type="line" smooth="yes"/>
      <point x="756" y="618"/>
      <point x="667" y="724"/>
      <point x="491" y="724" type="curve" smooth="yes"/>
      <point x="347" y="724"/>
      <point x="244" y="637"/>
      <point x="206" y="531" type="curve"/>
      <point x="198" y="531" type="line"/>
      <point x="198" y="443" type="line"/>
      <point x="228" y="584"/>
      <point x="335" y="689"/>
      <point x="487" y="689" type="curve" smooth="yes"/>
      <point x="646" y="689"/>
      <point x="720" y="595"/>
      <point x="720" y="422" type="curve" smooth="yes"/>
      <point x="720" y="301" type="line" smooth="yes"/>
      <point x="720" y="119"/>
      <point x="643" y="14"/>
      <point x="477" y="14" type="curve" smooth="yes"/>
      <point x="293" y="14"/>
      <point x="207" y="139"/>
      <point x="207" y="345" type="curve"/>
      <point x="207" y="531" type="line"/>
      <point x="206" y="531" type="line"/>
      <point x="206" y="552"/>
      <point x="206" y="567"/>
      <point x="206" y="588" type="curve" smooth="yes"/>
      <point x="206" y="934"/>
      <point x="356" y="1115"/>
      <point x="657" y="1115" type="curve" smooth="yes"/>
      <point x="955" y="1115"/>
      <point x="1062" y="935"/>
      <point x="1062" y="614" type="curve" smooth="yes"/>
      <point x="1062" y="381" type="line" smooth="yes"/>
      <point x="1062" y="116"/>
      <point x="1165" y="-19"/>
      <point x="1377" y="-19" type="curve" smooth="yes"/>
      <point x="1588" y="-19"/>
      <point x="1685" y="126"/>
      <point x="1685" y="402" type="curve" smooth="yes"/>
      <point x="1685" y="693" type="line" smooth="yes"/>
      <point x="1685" y="977"/>
      <point x="1596" y="1150"/>
      <point x="1314" y="1150" type="curve" smooth="yes"/>
      <point x="1288" y="1150"/>
      <point x="1253" y="1146"/>
      <point x="1232" y="1142" type="curve"/>
      <point x="1245" y="1129" type="line"/>
      <point x="1209" y="1194"/>
      <point x="1171" y="1271"/>
      <point x="1171" y="1342" type="curve" smooth="yes"/>
      <point x="1171" y="1438"/>
      <point x="1223" y="1483"/>
      <point x="1369" y="1483" type="curve" smooth="yes"/>
      <point x="1646" y="1483" type="line"/>
      <point x="1636" y="1517" type="line"/>
      <point x="1363" y="1517" type="line" smooth="yes"/>
      <point x="1197" y="1517"/>
      <point x="1134" y="1459"/>
      <point x="1134" y="1346" type="curve" smooth="yes"/>
      <point x="1134" y="1264"/>
      <point x="1181" y="1173"/>
      <point x="1217" y="1108" type="curve"/>
      <point x="1245" y="1112"/>
      <point x="1283" y="1116"/>
      <point x="1313" y="1116" type="curve" smooth="yes"/>
      <point x="1576" y="1116"/>
      <point x="1648" y="955"/>
      <point x="1648" y="693" type="curve" smooth="yes"/>
      <point x="1648" y="403" type="line" smooth="yes"/>
      <point x="1648" y="150"/>
      <point x="1568" y="15"/>
      <point x="1377" y="15" type="curve" smooth="yes"/>
      <point x="1185" y="15"/>
      <point x="1099" y="136"/>
      <point x="1099" y="385" type="curve" smooth="yes"/>
      <point x="1099" y="617" type="line" smooth="yes"/>
      <point x="1099" y="958"/>
      <point x="973" y="1150"/>
    </contour>
  </outline>
</glyph>
<glyph name="LaMatraIi.tm" format="2">
  <advance width="1865"/>
  <note>
LaMatraIi.tm
</note>
  <outline>
    <contour>
      <point x="1169" y="1430" type="line" smooth="yes"/>
      <point x="1169" y="1614"/>
      <point x="1255" y="1725"/>
      <point x="1422" y="1748" type="curve"/>
      <point x="1422" y="1748" type="line"/>
      <point x="1448" y="1752"/>
      <point x="1474" y="1753"/>
      <point x="1502" y="1753" type="curve" smooth="yes"/>
      <point x="1685" y="1753"/>
      <point x="1765" y="1677"/>
      <point x="1765" y="1531" type="curve" smooth="yes"/>
      <point x="1765" y="1526" type="line" smooth="yes"/>
      <point x="1765" y="1397"/>
      <point x="1707" y="1334"/>
      <point x="1588" y="1334" type="curve" smooth="yes"/>
      <point x="1460" y="1334"/>
      <point x="1403" y="1409"/>
      <point x="1403" y="1539" type="curve" smooth="yes"/>
      <point x="1403" y="1555" type="line" smooth="yes"/>
      <point x="1403" y="1638"/>
      <point x="1420" y="1709"/>
      <point x="1458" y="1757" type="curve"/>
      <point x="1422" y="1758" type="line"/>
      <point x="1422" y="1748" type="line"/>
      <point x="1389" y="1706"/>
      <point x="1367" y="1638"/>
      <point x="1367" y="1551" type="curve" smooth="yes"/>
      <point x="1367" y="1534" type="line" smooth="yes"/>
      <point x="1367" y="1391"/>
      <point x="1439" y="1301"/>
      <point x="1589" y="1301" type="curve" smooth="yes"/>
      <point x="1731" y="1301"/>
      <point x="1800" y="1379"/>
      <point x="1800" y="1524" type="curve" smooth="yes"/>
      <point x="1800" y="1533" type="line" smooth="yes"/>
      <point x="1800" y="1694"/>
      <point x="1706" y="1786"/>
      <point x="1500" y="1786" type="curve" smooth="yes"/>
      <point x="1259" y="1786"/>
      <point x="1133" y="1661"/>
      <point x="1133" y="1432" type="curve" smooth="yes"/>
      <point x="1133" y="1418" type="line" smooth="yes"/>
      <point x="1133" y="1278"/>
      <point x="1180" y="1169"/>
      <point x="1223" y="1107" type="curve"/>
      <point x="1250" y="1112"/>
      <point x="1288" y="1116"/>
      <point x="1320" y="1116" type="curve" smooth="yes"/>
      <point x="1576" y="1116"/>
      <point x="1648" y="955"/>
      <point x="1648" y="693" type="curve" smooth="yes"/>
      <point x="1648" y="403" type="line" smooth="yes"/>
      <point x="1648" y="150"/>
      <point x="1568" y="15"/>
      <point x="1377" y="15" type="curve" smooth="yes"/>
      <point x="1185" y="15"/>
      <point x="1099" y="136"/>
      <point x="1099" y="385" type="curve" smooth="yes"/>
      <point x="1099" y="617" type="line" smooth="yes"/>
      <point x="1099" y="958"/>
      <point x="972" y="1150"/>
      <point x="656" y="1150" type="curve" smooth="yes"/>
      <point x="334" y="1150"/>
      <point x="170" y="958"/>
      <point x="170" y="589" type="curve" smooth="yes"/>
      <point x="170" y="356" type="line" smooth="yes"/>
      <point x="170" y="119"/>
      <point x="268" y="-20"/>
      <point x="476" y="-20" type="curve" smooth="yes"/>
      <point x="666" y="-20"/>
      <point x="756" y="100"/>
      <point x="756" y="300" type="curve" smooth="yes"/>
      <point x="756" y="423" type="line" smooth="yes"/>
      <point x="756" y="618"/>
      <point x="667" y="724"/>
      <point x="491" y="724" type="curve" smooth="yes"/>
      <point x="346" y="724"/>
      <point x="243" y="637"/>
      <point x="206" y="531" type="curve"/>
      <point x="198" y="531" type="line"/>
      <point x="198" y="443" type="line"/>
      <point x="227" y="584"/>
      <point x="334" y="689"/>
      <point x="487" y="689" type="curve" smooth="yes"/>
      <point x="645" y="689"/>
      <point x="720" y="595"/>
      <point x="720" y="422" type="curve" smooth="yes"/>
      <point x="720" y="301" type="line" smooth="yes"/>
      <point x="720" y="119"/>
      <point x="642" y="14"/>
      <point x="476" y="14" type="curve" smooth="yes"/>
      <point x="293" y="14"/>
      <point x="207" y="139"/>
      <point x="207" y="345" type="curve"/>
      <point x="207" y="531" type="line"/>
      <point x="206" y="531" type="line"/>
      <point x="206" y="552"/>
      <point x="206" y="567"/>
      <point x="206" y="588" type="curve" smooth="yes"/>
      <point x="206" y="934"/>
      <point x="355" y="1115"/>
      <point x="656" y="1115" type="curve" smooth="yes"/>
      <point x="954" y="1115"/>
      <point x="1062" y="935"/>
      <point x="1062" y="614" type="curve" smooth="yes"/>
      <point x="1062" y="381" type="line" smooth="yes"/>
      <point x="1062" y="116"/>
      <point x="1165" y="-19"/>
      <point x="1377" y="-19" type="curve" smooth="yes"/>
      <point x="1588" y="-19"/>
      <point x="1685" y="126"/>
      <point x="1685" y="402" type="curve" smooth="yes"/>
      <point x="1685" y="693" type="line" smooth="yes"/>
      <point x="1685" y="977"/>
      <point x="1596" y="1150"/>
      <point x="1322" y="1150" type="curve" smooth="yes"/>
      <point x="1295" y="1150"/>
      <point x="1262" y="1146"/>
      <point x="1242" y="1142" type="curve"/>
      <point x="1249" y="1132" type="line"/>
      <point x="1211" y="1187"/>
      <point x="1169" y="1290"/>
      <point x="1169" y="1418" type="curve" smooth="yes"/>
    </contour>
  </outline>
</glyph>
<glyph name="LaMatraIi_SimpleIi.tm" format="2">
  <advance width="1865"/>
  <note>
LaMatraIi.tm
</note>
  <outline>
    <contour>
      <point x="656" y="1150" type="curve" smooth="yes"/>
      <point x="334" y="1150"/>
      <point x="170" y="958"/>
      <point x="170" y="589" type="curve" smooth="yes"/>
      <point x="170" y="356" type="line" smooth="yes"/>
      <point x="170" y="119"/>
      <point x="268" y="-20"/>
      <point x="476" y="-20" type="curve" smooth="yes"/>
      <point x="666" y="-20"/>
      <point x="756" y="100"/>
      <point x="756" y="300" type="curve" smooth="yes"/>
      <point x="756" y="423" type="line" smooth="yes"/>
      <point x="756" y="618"/>
      <point x="667" y="724"/>
      <point x="491" y="724" type="curve" smooth="yes"/>
      <point x="346" y="724"/>
      <point x="243" y="637"/>
      <point x="206" y="531" type="curve"/>
      <point x="198" y="531" type="line"/>
      <point x="198" y="443" type="line"/>
      <point x="227" y="584"/>
      <point x="334" y="689"/>
      <point x="487" y="689" type="curve" smooth="yes"/>
      <point x="645" y="689"/>
      <point x="720" y="595"/>
      <point x="720" y="422" type="curve" smooth="yes"/>
      <point x="720" y="301" type="line" smooth="yes"/>
      <point x="720" y="119"/>
      <point x="642" y="14"/>
      <point x="476" y="14" type="curve" smooth="yes"/>
      <point x="293" y="14"/>
      <point x="207" y="139"/>
      <point x="207" y="345" type="curve"/>
      <point x="207" y="531" type="line"/>
      <point x="206" y="531" type="line"/>
      <point x="206" y="552"/>
      <point x="206" y="567"/>
      <point x="206" y="588" type="curve" smooth="yes"/>
      <point x="206" y="934"/>
      <point x="355" y="1115"/>
      <point x="656" y="1115" type="curve" smooth="yes"/>
      <point x="954" y="1115"/>
      <point x="1062" y="935"/>
      <point x="1062" y="614" type="curve" smooth="yes"/>
      <point x="1062" y="381" type="line" smooth="yes"/>
      <point x="1062" y="116"/>
      <point x="1165" y="-19"/>
      <point x="1377" y="-19" type="curve" smooth="yes"/>
      <point x="1588" y="-19"/>
      <point x="1685" y="126"/>
      <point x="1685" y="402" type="curve" smooth="yes"/>
      <point x="1685" y="693" type="line" smooth="yes"/>
      <point x="1685" y="977"/>
      <point x="1596" y="1150"/>
      <point x="1322" y="1150" type="curve" smooth="yes"/>
      <point x="1295" y="1150"/>
      <point x="1262" y="1146"/>
      <point x="1242" y="1142" type="curve"/>
      <point x="1259" y="1137" type="line"/>
      <point x="1259" y="1433" type="line"/>
      <point x="1259" y="1441" type="line"/>
      <point x="1259" y="1494" type="line" smooth="yes"/>
      <point x="1259" y="1669"/>
      <point x="1346" y="1753"/>
      <point x="1492" y="1753" type="curve" smooth="yes"/>
      <point x="1629" y="1753"/>
      <point x="1703" y="1686"/>
      <point x="1703" y="1558" type="curve" smooth="yes"/>
      <point x="1703" y="1543" type="line" smooth="yes"/>
      <point x="1703" y="1416"/>
      <point x="1638" y="1350"/>
      <point x="1497" y="1350" type="curve" smooth="yes"/>
      <point x="1373" y="1350"/>
      <point x="1287" y="1402"/>
      <point x="1255" y="1471" type="curve"/>
      <point x="1252" y="1471" type="line"/>
      <point x="1252" y="1439" type="line"/>
      <point x="1258" y="1439" type="line"/>
      <point x="1286" y="1395" type="line"/>
      <point x="1315" y="1359"/>
      <point x="1392" y="1317"/>
      <point x="1501" y="1317" type="curve" smooth="yes"/>
      <point x="1669" y="1317"/>
      <point x="1739" y="1404"/>
      <point x="1739" y="1542" type="curve" smooth="yes"/>
      <point x="1739" y="1559" type="line" smooth="yes"/>
      <point x="1739" y="1705"/>
      <point x="1651" y="1786"/>
      <point x="1492" y="1786" type="curve" smooth="yes"/>
      <point x="1324" y="1786"/>
      <point x="1223" y="1688"/>
      <point x="1223" y="1490" type="curve" smooth="yes"/>
      <point x="1223" y="1107" type="line"/>
      <point x="1250" y="1112"/>
      <point x="1288" y="1116"/>
      <point x="1320" y="1116" type="curve" smooth="yes"/>
      <point x="1576" y="1116"/>
      <point x="1648" y="955"/>
      <point x="1648" y="693" type="curve" smooth="yes"/>
      <point x="1648" y="403" type="line" smooth="yes"/>
      <point x="1648" y="150"/>
      <point x="1568" y="15"/>
      <point x="1377" y="15" type="curve" smooth="yes"/>
      <point x="1185" y="15"/>
      <point x="1099" y="136"/>
      <point x="1099" y="385" type="curve" smooth="yes"/>
      <point x="1099" y="617" type="line" smooth="yes"/>
      <point x="1099" y="958"/>
      <point x="972" y="1150"/>
    </contour>
  </outline>
</glyph>
<glyph name="LaMatraU.tm" format="2">
  <advance width="2329"/>
  <note>
LaMatraU.tm
</note>
  <anchor x="1047" y="1245" name="top"/>
  <outline>
    <contour>
      <point x="2088" y="1131" type="line"/>
      <point x="2088" y="-292" type="line"/>
      <point x="2124" y="-292" type="line"/>
      <point x="2124" y="1131" type="line"/>
    </contour>
    <contour>
      <point x="744" y="-676" type="curve" smooth="yes"/>
      <point x="1152" y="-676"/>
      <point x="1341" y="-516"/>
      <point x="1391" y="-291" type="curve"/>
      <point x="1392" y="-284" type="line"/>
      <point x="1401" y="-233"/>
      <point x="1413" y="-108"/>
      <point x="1413" y="-13" type="curve"/>
      <point x="1377" y="-13" type="line"/>
      <point x="1377" y="-109"/>
      <point x="1365" y="-234"/>
      <point x="1355" y="-282" type="curve"/>
      <point x="1354" y="-288" type="line"/>
      <point x="1306" y="-492"/>
      <point x="1136" y="-642"/>
      <point x="744" y="-642" type="curve" smooth="yes"/>
      <point x="323" y="-642"/>
      <point x="160" y="-477"/>
      <point x="129" y="-300" type="curve"/>
      <point x="2124" y="-300" type="line"/>
      <point x="2124" y="-268" type="line"/>
      <point x="84" y="-268" type="line"/>
      <point x="117" y="-506"/>
      <point x="305" y="-676"/>
    </contour>
    <component base="La.tm"/>
  </outline>
</glyph>
<glyph name="LaMatraU_Simple.tm" format="2">
  <advance width="2329"/>
  <note>
LaMatraU.tm
</note>
  <anchor x="1047" y="1245" name="top"/>
  <outline>
    <contour>
      <point x="2124" y="-285" type="line"/>
      <point x="120" y="-285" type="line"/>
      <point x="130" y="-318" type="line"/>
      <point x="2124" y="-318" type="line"/>
    </contour>
    <contour>
      <point x="1367" y="-7" type="line"/>
      <point x="1367" y="-292" type="line"/>
      <point x="1402" y="-292" type="line"/>
      <point x="1402" y="-7" type="line"/>
    </contour>
    <contour>
      <point x="2088" y="1131" type="line"/>
      <point x="2088" y="-310" type="line"/>
      <point x="2124" y="-310" type="line"/>
      <point x="2124" y="1131" type="line"/>
    </contour>
    <component base="La.tm"/>
  </outline>
</glyph>
<glyph name="LlaMatraI.tm" format="2">
  <advance width="2494"/>
  <note>
LlaMatraI.tm
</note>
  <outline>
    <contour>
      <point x="1689" y="1115" type="line"/>
      <point x="1689" y="0" type="line"/>
      <point x="1725" y="0" type="line"/>
      <point x="1725" y="1115" type="line"/>
    </contour>
    <contour>
      <point x="670" y="1150" type="curve" smooth="yes"/>
      <point x="341" y="1150"/>
      <point x="170" y="961"/>
      <point x="170" y="604" type="curve" smooth="yes"/>
      <point x="170" y="356" type="line" smooth="yes"/>
      <point x="170" y="119"/>
      <point x="268" y="-20"/>
      <point x="476" y="-20" type="curve" smooth="yes"/>
      <point x="666" y="-20"/>
      <point x="756" y="100"/>
      <point x="756" y="300" type="curve" smooth="yes"/>
      <point x="756" y="423" type="line" smooth="yes"/>
      <point x="756" y="618"/>
      <point x="667" y="724"/>
      <point x="491" y="724" type="curve" smooth="yes"/>
      <point x="346" y="724"/>
      <point x="243" y="637"/>
      <point x="206" y="531" type="curve"/>
      <point x="198" y="531" type="line"/>
      <point x="198" y="443" type="line"/>
      <point x="227" y="584"/>
      <point x="334" y="689"/>
      <point x="487" y="689" type="curve" smooth="yes"/>
      <point x="645" y="689"/>
      <point x="720" y="595"/>
      <point x="720" y="422" type="curve" smooth="yes"/>
      <point x="720" y="301" type="line" smooth="yes"/>
      <point x="720" y="119"/>
      <point x="642" y="14"/>
      <point x="476" y="14" type="curve" smooth="yes"/>
      <point x="293" y="14"/>
      <point x="207" y="139"/>
      <point x="207" y="345" type="curve"/>
      <point x="207" y="531" type="line"/>
      <point x="206" y="531" type="line"/>
      <point x="206" y="558"/>
      <point x="206" y="577"/>
      <point x="206" y="604" type="curve" smooth="yes"/>
      <point x="206" y="938"/>
      <point x="362" y="1115"/>
      <point x="670" y="1115" type="curve" smooth="yes"/>
      <point x="988" y="1115"/>
      <point x="1103" y="928"/>
      <point x="1103" y="580" type="curve" smooth="yes"/>
      <point x="1103" y="0" type="line"/>
      <point x="1139" y="0" type="line"/>
      <point x="1139" y="1098" type="line"/>
      <point x="1719" y="1098" type="line"/>
      <point x="1719" y="1131" type="line"/>
      <point x="1105" y="1131" type="line"/>
      <point x="1109" y="778" type="line"/>
      <point x="1107" y="778" type="line"/>
      <point x="1086" y="979"/>
      <point x="973" y="1150"/>
    </contour>
    <component base="MatraIDflt.tm" xOffset="1625"/>
    <component base="RaBeak_Nonexporting" xOffset="1540"/>
  </outline>
</glyph>
<glyph name="LlaMatraU.tm" format="2">
  <advance width="2943"/>
  <note>
LlaMatraU.tm
</note>
  <outline>
    <contour>
      <point x="2517" y="734" type="curve" smooth="yes"/>
      <point x="2360" y="734"/>
      <point x="2262" y="645"/>
      <point x="2227" y="524" type="curve"/>
      <point x="2214" y="524" type="line"/>
      <point x="2214" y="431" type="line"/>
      <point x="2221" y="431" type="line"/>
      <point x="2258" y="602"/>
      <point x="2359" y="699"/>
      <point x="2513" y="699" type="curve" smooth="yes"/>
      <point x="2700" y="699"/>
      <point x="2766" y="576"/>
      <point x="2766" y="350" type="curve" smooth="yes"/>
      <point x="2766" y="340" type="line" smooth="yes"/>
      <point x="2766" y="-252"/>
      <point x="2402" y="-513"/>
      <point x="1577" y="-513" type="curve" smooth="yes"/>
      <point x="1559" y="-513" type="line" smooth="yes"/>
      <point x="663" y="-513"/>
      <point x="222" y="-191"/>
      <point x="222" y="527" type="curve" smooth="yes"/>
      <point x="222" y="754"/>
      <point x="244" y="957"/>
      <point x="293" y="1131" type="curve"/>
      <point x="256" y="1131" type="line"/>
      <point x="211" y="971"/>
      <point x="185" y="754"/>
      <point x="185" y="527" type="curve" smooth="yes"/>
      <point x="185" y="-211"/>
      <point x="644" y="-547"/>
      <point x="1559" y="-547" type="curve" smooth="yes"/>
      <point x="1577" y="-547" type="line" smooth="yes"/>
      <point x="2425" y="-547"/>
      <point x="2803" y="-271"/>
      <point x="2803" y="338" type="curve" smooth="yes"/>
      <point x="2803" y="353" type="line" smooth="yes"/>
      <point x="2803" y="601"/>
      <point x="2720" y="734"/>
    </contour>
    <contour>
      <point x="2191" y="1115" type="line"/>
      <point x="2191" y="0" type="line"/>
      <point x="2227" y="0" type="line"/>
      <point x="2227" y="1115" type="line"/>
    </contour>
    <contour>
      <point x="1181" y="1150" type="curve" smooth="yes"/>
      <point x="855" y="1150"/>
      <point x="685" y="961"/>
      <point x="685" y="604" type="curve" smooth="yes"/>
      <point x="685" y="356" type="line" smooth="yes"/>
      <point x="685" y="119"/>
      <point x="783" y="-20"/>
      <point x="991" y="-20" type="curve" smooth="yes"/>
      <point x="1181" y="-20"/>
      <point x="1271" y="100"/>
      <point x="1271" y="300" type="curve" smooth="yes"/>
      <point x="1271" y="423" type="line" smooth="yes"/>
      <point x="1271" y="618"/>
      <point x="1182" y="724"/>
      <point x="1006" y="724" type="curve" smooth="yes"/>
      <point x="861" y="724"/>
      <point x="758" y="637"/>
      <point x="721" y="531" type="curve"/>
      <point x="713" y="531" type="line"/>
      <point x="713" y="443" type="line"/>
      <point x="742" y="584"/>
      <point x="849" y="689"/>
      <point x="1002" y="689" type="curve" smooth="yes"/>
      <point x="1160" y="689"/>
      <point x="1235" y="595"/>
      <point x="1235" y="422" type="curve" smooth="yes"/>
      <point x="1235" y="301" type="line" smooth="yes"/>
      <point x="1235" y="119"/>
      <point x="1157" y="14"/>
      <point x="991" y="14" type="curve" smooth="yes"/>
      <point x="808" y="14"/>
      <point x="722" y="139"/>
      <point x="722" y="345" type="curve"/>
      <point x="722" y="531" type="line"/>
      <point x="721" y="531" type="line"/>
      <point x="721" y="558"/>
      <point x="721" y="577"/>
      <point x="721" y="604" type="curve" smooth="yes"/>
      <point x="721" y="938"/>
      <point x="876" y="1115"/>
      <point x="1181" y="1115" type="curve" smooth="yes"/>
      <point x="1496" y="1115"/>
      <point x="1610" y="928"/>
      <point x="1610" y="580" type="curve" smooth="yes"/>
      <point x="1610" y="0" type="line"/>
      <point x="1646" y="0" type="line"/>
      <point x="1646" y="1098" type="line"/>
      <point x="2352" y="1098" type="line"/>
      <point x="2352" y="1131" type="line"/>
      <point x="1612" y="1131" type="line"/>
      <point x="1616" y="778" type="line"/>
      <point x="1614" y="778" type="line"/>
      <point x="1593" y="979"/>
      <point x="1481" y="1150"/>
    </contour>
    <component base="RaBeak_Nonexporting" xOffset="2158"/>
  </outline>
</glyph>
<glyph name="LlaMatraU_Simple.tm" format="2">
  <advance width="2958"/>
  <note>
LlaMatraU.tm
</note>
  <outline>
    <contour>
      <point x="2532" y="734" type="curve" smooth="yes"/>
      <point x="2375" y="734"/>
      <point x="2277" y="645"/>
      <point x="2242" y="524" type="curve"/>
      <point x="2229" y="524" type="line"/>
      <point x="2229" y="431" type="line"/>
      <point x="2236" y="431" type="line"/>
      <point x="2273" y="602"/>
      <point x="2374" y="699"/>
      <point x="2528" y="699" type="curve" smooth="yes"/>
      <point x="2715" y="699"/>
      <point x="2781" y="576"/>
      <point x="2781" y="350" type="curve" smooth="yes"/>
      <point x="2781" y="340" type="line" smooth="yes"/>
      <point x="2781" y="-252"/>
      <point x="2417" y="-513"/>
      <point x="1592" y="-513" type="curve" smooth="yes"/>
      <point x="1574" y="-513" type="line" smooth="yes"/>
      <point x="678" y="-513"/>
      <point x="237" y="-191"/>
      <point x="237" y="527" type="curve"/>
      <point x="237" y="1131" type="line"/>
      <point x="200" y="1131" type="line"/>
      <point x="200" y="527" type="line"/>
      <point x="200" y="-211"/>
      <point x="659" y="-547"/>
      <point x="1574" y="-547" type="curve" smooth="yes"/>
      <point x="1592" y="-547" type="line" smooth="yes"/>
      <point x="2440" y="-547"/>
      <point x="2818" y="-271"/>
      <point x="2818" y="338" type="curve" smooth="yes"/>
      <point x="2818" y="353" type="line" smooth="yes"/>
      <point x="2818" y="601"/>
      <point x="2735" y="734"/>
    </contour>
    <contour>
      <point x="2206" y="1115" type="line"/>
      <point x="2206" y="0" type="line"/>
      <point x="2242" y="0" type="line"/>
      <point x="2242" y="1115" type="line"/>
    </contour>
    <contour>
      <point x="1196" y="1150" type="curve" smooth="yes"/>
      <point x="870" y="1150"/>
      <point x="700" y="961"/>
      <point x="700" y="604" type="curve" smooth="yes"/>
      <point x="700" y="356" type="line" smooth="yes"/>
      <point x="700" y="119"/>
      <point x="798" y="-20"/>
      <point x="1006" y="-20" type="curve" smooth="yes"/>
      <point x="1196" y="-20"/>
      <point x="1286" y="100"/>
      <point x="1286" y="300" type="curve" smooth="yes"/>
      <point x="1286" y="423" type="line" smooth="yes"/>
      <point x="1286" y="618"/>
      <point x="1197" y="724"/>
      <point x="1021" y="724" type="curve" smooth="yes"/>
      <point x="876" y="724"/>
      <point x="773" y="637"/>
      <point x="736" y="531" type="curve"/>
      <point x="728" y="531" type="line"/>
      <point x="728" y="443" type="line"/>
      <point x="757" y="584"/>
      <point x="864" y="689"/>
      <point x="1017" y="689" type="curve" smooth="yes"/>
      <point x="1175" y="689"/>
      <point x="1250" y="595"/>
      <point x="1250" y="422" type="curve" smooth="yes"/>
      <point x="1250" y="301" type="line" smooth="yes"/>
      <point x="1250" y="119"/>
      <point x="1172" y="14"/>
      <point x="1006" y="14" type="curve" smooth="yes"/>
      <point x="823" y="14"/>
      <point x="737" y="139"/>
      <point x="737" y="345" type="curve"/>
      <point x="737" y="531" type="line"/>
      <point x="736" y="531" type="line"/>
      <point x="736" y="558"/>
      <point x="736" y="577"/>
      <point x="736" y="604" type="curve" smooth="yes"/>
      <point x="736" y="938"/>
      <point x="891" y="1115"/>
      <point x="1196" y="1115" type="curve" smooth="yes"/>
      <point x="1511" y="1115"/>
      <point x="1625" y="928"/>
      <point x="1625" y="580" type="curve" smooth="yes"/>
      <point x="1625" y="0" type="line"/>
      <point x="1661" y="0" type="line"/>
      <point x="1661" y="1098" type="line"/>
      <point x="2367" y="1098" type="line"/>
      <point x="2367" y="1131" type="line"/>
      <point x="1627" y="1131" type="line"/>
      <point x="1631" y="778" type="line"/>
      <point x="1629" y="778" type="line"/>
      <point x="1608" y="979"/>
      <point x="1496" y="1150"/>
    </contour>
    <component base="RaBeak_Nonexporting" xOffset="2173"/>
  </outline>
</glyph>
<glyph name="LlaMatraUu.tm" format="2">
  <advance width="3239"/>
  <note>
LlaMatraUu.tm
</note>
  <outline>
    <contour>
      <point x="1477" y="1150" type="curve" smooth="yes"/>
      <point x="1151" y="1150"/>
      <point x="981" y="961"/>
      <point x="981" y="604" type="curve" smooth="yes"/>
      <point x="981" y="356" type="line" smooth="yes"/>
      <point x="981" y="119"/>
      <point x="1079" y="-20"/>
      <point x="1287" y="-20" type="curve" smooth="yes"/>
      <point x="1477" y="-20"/>
      <point x="1567" y="100"/>
      <point x="1567" y="300" type="curve" smooth="yes"/>
      <point x="1567" y="423" type="line" smooth="yes"/>
      <point x="1567" y="618"/>
      <point x="1478" y="724"/>
      <point x="1302" y="724" type="curve" smooth="yes"/>
      <point x="1157" y="724"/>
      <point x="1054" y="637"/>
      <point x="1017" y="531" type="curve"/>
      <point x="1009" y="531" type="line"/>
      <point x="1009" y="443" type="line"/>
      <point x="1038" y="584"/>
      <point x="1145" y="689"/>
      <point x="1298" y="689" type="curve" smooth="yes"/>
      <point x="1456" y="689"/>
      <point x="1531" y="595"/>
      <point x="1531" y="422" type="curve" smooth="yes"/>
      <point x="1531" y="301" type="line" smooth="yes"/>
      <point x="1531" y="119"/>
      <point x="1453" y="14"/>
      <point x="1287" y="14" type="curve" smooth="yes"/>
      <point x="1104" y="14"/>
      <point x="1018" y="139"/>
      <point x="1018" y="345" type="curve"/>
      <point x="1018" y="531" type="line"/>
      <point x="1017" y="531" type="line"/>
      <point x="1017" y="558"/>
      <point x="1017" y="577"/>
      <point x="1017" y="604" type="curve" smooth="yes"/>
      <point x="1017" y="938"/>
      <point x="1172" y="1115"/>
      <point x="1477" y="1115" type="curve" smooth="yes"/>
      <point x="1792" y="1115"/>
      <point x="1906" y="928"/>
      <point x="1906" y="580" type="curve" smooth="yes"/>
      <point x="1906" y="0" type="line"/>
      <point x="1942" y="0" type="line"/>
      <point x="1942" y="1098" type="line"/>
      <point x="2640" y="1098" type="line"/>
      <point x="2640" y="1131" type="line"/>
      <point x="1908" y="1131" type="line"/>
      <point x="1912" y="778" type="line"/>
      <point x="1910" y="778" type="line"/>
      <point x="1889" y="979"/>
      <point x="1777" y="1150"/>
    </contour>
    <contour>
      <point x="2487" y="1115" type="line"/>
      <point x="2487" y="0" type="line"/>
      <point x="2523" y="0" type="line"/>
      <point x="2523" y="1115" type="line"/>
    </contour>
    <contour>
      <point x="2813" y="734" type="curve" smooth="yes"/>
      <point x="2656" y="734"/>
      <point x="2558" y="645"/>
      <point x="2523" y="524" type="curve"/>
      <point x="2510" y="524" type="line"/>
      <point x="2510" y="431" type="line"/>
      <point x="2517" y="431" type="line"/>
      <point x="2554" y="602"/>
      <point x="2655" y="699"/>
      <point x="2809" y="699" type="curve" smooth="yes"/>
      <point x="2995" y="699"/>
      <point x="3062" y="576"/>
      <point x="3062" y="350" type="curve" smooth="yes"/>
      <point x="3062" y="340" type="line" smooth="yes"/>
      <point x="3062" y="-257"/>
      <point x="2665" y="-550"/>
      <point x="1741" y="-550" type="curve" smooth="yes"/>
      <point x="1673" y="-550" type="line" smooth="yes"/>
      <point x="695" y="-550"/>
      <point x="217" y="-214"/>
      <point x="217" y="508" type="curve" smooth="yes"/>
      <point x="217" y="571" type="line"/>
      <point x="217" y="700" type="line"/>
      <point x="217" y="982"/>
      <point x="311" y="1117"/>
      <point x="484" y="1117" type="curve" smooth="yes"/>
      <point x="637" y="1117"/>
      <point x="711" y="1013"/>
      <point x="711" y="824" type="curve"/>
      <point x="711" y="747" type="line" smooth="yes"/>
      <point x="711" y="562"/>
      <point x="641" y="454"/>
      <point x="472" y="454" type="curve" smooth="yes"/>
      <point x="352" y="454"/>
      <point x="250" y="512"/>
      <point x="213" y="599" type="curve"/>
      <point x="210" y="599" type="line"/>
      <point x="210" y="571" type="line"/>
      <point x="217" y="571" type="line"/>
      <point x="238" y="528" type="line"/>
      <point x="274" y="477"/>
      <point x="353" y="420"/>
      <point x="476" y="420" type="curve" smooth="yes"/>
      <point x="666" y="420"/>
      <point x="747" y="540"/>
      <point x="747" y="745" type="curve"/>
      <point x="747" y="825" type="line" smooth="yes"/>
      <point x="747" y="1033"/>
      <point x="658" y="1150"/>
      <point x="484" y="1150" type="curve" smooth="yes"/>
      <point x="288" y="1150"/>
      <point x="180" y="1006"/>
      <point x="180" y="702" type="curve" smooth="yes"/>
      <point x="180" y="508" type="line" smooth="yes"/>
      <point x="180" y="-235"/>
      <point x="675" y="-584"/>
      <point x="1673" y="-584" type="curve" smooth="yes"/>
      <point x="1741" y="-584" type="line" smooth="yes"/>
      <point x="2687" y="-584"/>
      <point x="3099" y="-276"/>
      <point x="3099" y="338" type="curve" smooth="yes"/>
      <point x="3099" y="353" type="line" smooth="yes"/>
      <point x="3099" y="601"/>
      <point x="3015" y="734"/>
    </contour>
    <component base="RaBeak_Nonexporting" xOffset="2454"/>
  </outline>
</glyph>
<glyph name="LllaMatraI_Fly.tm" format="2">
  <advance width="1607"/>
  <note>
LllaMatraI.tm
</note>
  <anchor x="793" y="1245" name="top"/>
  <outline>
    <contour>
      <point x="735" y="-584" type="curve" smooth="yes"/>
      <point x="918" y="-584"/>
      <point x="984" y="-487"/>
      <point x="1048" y="-329" type="curve" smooth="yes"/>
      <point x="1056" y="-309" type="line" smooth="yes"/>
      <point x="1066" y="-283"/>
      <point x="1075" y="-268"/>
      <point x="1108" y="-268" type="curve" smooth="yes"/>
      <point x="1234" y="-268" type="line"/>
      <point x="1244" y="-236" type="line"/>
      <point x="1088" y="-236" type="line" smooth="yes"/>
      <point x="886" y="-236"/>
      <point x="834" y="-174"/>
      <point x="834" y="-22" type="curve" smooth="yes"/>
      <point x="834" y="9" type="line"/>
      <point x="798" y="9" type="line"/>
      <point x="798" y="-24" type="line" smooth="yes"/>
      <point x="798" y="-195"/>
      <point x="866" y="-257"/>
      <point x="1064" y="-260" type="curve"/>
      <point x="1064" y="-262" type="line"/>
      <point x="1042" y="-263"/>
      <point x="1031" y="-279"/>
      <point x="1020" y="-304" type="curve" smooth="yes"/>
      <point x="1014" y="-319" type="line" smooth="yes"/>
      <point x="957" y="-453"/>
      <point x="900" y="-551"/>
      <point x="735" y="-551" type="curve" smooth="yes"/>
      <point x="561" y="-551"/>
      <point x="467" y="-459"/>
      <point x="467" y="-265" type="curve" smooth="yes"/>
      <point x="467" y="-223"/>
      <point x="472" y="-180"/>
      <point x="476" y="-155" type="curve"/>
      <point x="440" y="-155" type="line"/>
      <point x="436" y="-179"/>
      <point x="431" y="-218"/>
      <point x="431" y="-265" type="curve" smooth="yes"/>
      <point x="431" y="-481"/>
      <point x="544" y="-584"/>
    </contour>
    <component base="MaMatraI_Fly.tm"/>
  </outline>
</glyph>
<glyph name="LllaMatraIi_Simple.tm" format="2">
  <advance width="1607"/>
  <note>
LllaMatraIi.tm
</note>
  <anchor x="793" y="1245" name="top"/>
  <outline>
    <contour>
      <point x="798" y="22" type="line"/>
      <point x="798" y="-19" type="line" smooth="yes"/>
      <point x="798" y="-219"/>
      <point x="768" y="-285"/>
      <point x="581" y="-285" type="curve" smooth="yes"/>
      <point x="88" y="-285" type="line"/>
      <point x="98" y="-318" type="line"/>
      <point x="588" y="-318" type="line" smooth="yes"/>
      <point x="745" y="-318"/>
      <point x="808" y="-263"/>
      <point x="817" y="-127" type="curve"/>
      <point x="819" y="-127" type="line"/>
      <point x="832" y="-263"/>
      <point x="903" y="-318"/>
      <point x="1040" y="-318" type="curve" smooth="yes"/>
      <point x="1243" y="-318" type="line"/>
      <point x="1253" y="-285" type="line"/>
      <point x="1045" y="-285" type="line" smooth="yes"/>
      <point x="881" y="-285"/>
      <point x="834" y="-219"/>
      <point x="834" y="-19" type="curve" smooth="yes"/>
      <point x="834" y="22" type="line"/>
    </contour>
    <component base="MaMatraIi.tm"/>
  </outline>
</glyph>
<glyph name="LllaMatraU.tm" format="2">
  <advance width="2198"/>
  <note>
LllaMatraU.tm
</note>
  <anchor x="1384" y="1245" name="top"/>
  <outline>
    <contour>
      <point x="300" y="1131" type="line"/>
      <point x="244" y="958"/>
      <point x="188" y="664"/>
      <point x="188" y="307" type="curve" smooth="yes"/>
      <point x="188" y="-220"/>
      <point x="429" y="-529"/>
      <point x="1005" y="-529" type="curve" smooth="yes"/>
      <point x="1275" y="-529"/>
      <point x="1460" y="-441"/>
      <point x="1600" y="-319" type="curve" smooth="yes"/>
      <point x="1615" y="-306" type="line" smooth="yes"/>
      <point x="1643" y="-281"/>
      <point x="1662" y="-268"/>
      <point x="1702" y="-268" type="curve" smooth="yes"/>
      <point x="1824" y="-268" type="line"/>
      <point x="1834" y="-236" type="line"/>
      <point x="1671" y="-236" type="line" smooth="yes"/>
      <point x="1472" y="-236"/>
      <point x="1425" y="-174"/>
      <point x="1425" y="-22" type="curve" smooth="yes"/>
      <point x="1425" y="9" type="line"/>
      <point x="1389" y="9" type="line"/>
      <point x="1389" y="-24" type="line" smooth="yes"/>
      <point x="1389" y="-195"/>
      <point x="1451" y="-256"/>
      <point x="1629" y="-260" type="curve"/>
      <point x="1629" y="-262" type="line"/>
      <point x="1609" y="-266"/>
      <point x="1597" y="-277"/>
      <point x="1577" y="-294" type="curve" smooth="yes"/>
      <point x="1562" y="-307" type="line" smooth="yes"/>
      <point x="1440" y="-413"/>
      <point x="1268" y="-494"/>
      <point x="1005" y="-494" type="curve" smooth="yes"/>
      <point x="452" y="-494"/>
      <point x="225" y="-201"/>
      <point x="225" y="307" type="curve" smooth="yes"/>
      <point x="225" y="652"/>
      <point x="275" y="942"/>
      <point x="337" y="1131" type="curve"/>
    </contour>
    <component base="Ma.tm" xOffset="591"/>
  </outline>
</glyph>
<glyph name="LllaMatraU_Simple.tm" format="2">
  <advance width="2190"/>
  <note>
LllaMatraU.tm
</note>
  <anchor x="1376" y="1245" name="top"/>
  <outline>
    <contour>
      <point x="200" y="1131" type="line"/>
      <point x="200" y="307" type="line"/>
      <point x="200" y="-220"/>
      <point x="438" y="-529"/>
      <point x="1007" y="-529" type="curve" smooth="yes"/>
      <point x="1272" y="-529"/>
      <point x="1453" y="-440"/>
      <point x="1592" y="-319" type="curve" smooth="yes"/>
      <point x="1607" y="-306" type="line" smooth="yes"/>
      <point x="1635" y="-281"/>
      <point x="1654" y="-268"/>
      <point x="1694" y="-268" type="curve" smooth="yes"/>
      <point x="1816" y="-268" type="line"/>
      <point x="1826" y="-236" type="line"/>
      <point x="1663" y="-236" type="line" smooth="yes"/>
      <point x="1464" y="-236"/>
      <point x="1417" y="-174"/>
      <point x="1417" y="-22" type="curve" smooth="yes"/>
      <point x="1417" y="9" type="line"/>
      <point x="1381" y="9" type="line"/>
      <point x="1381" y="-24" type="line" smooth="yes"/>
      <point x="1381" y="-195"/>
      <point x="1443" y="-256"/>
      <point x="1621" y="-260" type="curve"/>
      <point x="1621" y="-262" type="line"/>
      <point x="1601" y="-266"/>
      <point x="1589" y="-277"/>
      <point x="1569" y="-294" type="curve" smooth="yes"/>
      <point x="1554" y="-307" type="line" smooth="yes"/>
      <point x="1433" y="-412"/>
      <point x="1265" y="-494"/>
      <point x="1007" y="-494" type="curve" smooth="yes"/>
      <point x="461" y="-494"/>
      <point x="237" y="-201"/>
      <point x="237" y="307" type="curve"/>
      <point x="237" y="1131" type="line"/>
    </contour>
    <component base="Ma.tm" xOffset="583"/>
  </outline>
</glyph>
<glyph name="LllaMatraUu.tm" format="2">
  <advance width="2429"/>
  <note>
LllaMatraUu.tm
</note>
  <anchor x="1615" y="1245" name="top"/>
  <outline>
    <contour>
      <point x="1113" y="-529" type="curve" smooth="yes"/>
      <point x="527" y="-529"/>
      <point x="217" y="-243"/>
      <point x="217" y="351" type="curve" smooth="yes"/>
      <point x="217" y="424"/>
      <point x="217" y="498"/>
      <point x="217" y="571" type="curve"/>
      <point x="217" y="700" type="line"/>
      <point x="217" y="982"/>
      <point x="311" y="1117"/>
      <point x="484" y="1117" type="curve" smooth="yes"/>
      <point x="637" y="1117"/>
      <point x="711" y="1013"/>
      <point x="711" y="824" type="curve"/>
      <point x="711" y="747" type="line" smooth="yes"/>
      <point x="711" y="562"/>
      <point x="641" y="454"/>
      <point x="472" y="454" type="curve" smooth="yes"/>
      <point x="352" y="454"/>
      <point x="250" y="512"/>
      <point x="213" y="599" type="curve"/>
      <point x="210" y="599" type="line"/>
      <point x="210" y="571" type="line"/>
      <point x="217" y="571" type="line"/>
      <point x="238" y="528" type="line"/>
      <point x="274" y="477"/>
      <point x="353" y="420"/>
      <point x="476" y="420" type="curve" smooth="yes"/>
      <point x="666" y="420"/>
      <point x="747" y="540"/>
      <point x="747" y="745" type="curve"/>
      <point x="747" y="825" type="line" smooth="yes"/>
      <point x="747" y="1033"/>
      <point x="658" y="1150"/>
      <point x="484" y="1150" type="curve" smooth="yes"/>
      <point x="288" y="1150"/>
      <point x="180" y="1006"/>
      <point x="180" y="702" type="curve" smooth="yes"/>
      <point x="180" y="350" type="line" smooth="yes"/>
      <point x="180" y="-262"/>
      <point x="505" y="-563"/>
      <point x="1113" y="-563" type="curve" smooth="yes"/>
      <point x="1416" y="-563"/>
      <point x="1652" y="-493"/>
      <point x="1824" y="-328" type="curve" smooth="yes"/>
      <point x="1846" y="-307" type="line" smooth="yes"/>
      <point x="1874" y="-280"/>
      <point x="1889" y="-268"/>
      <point x="1929" y="-268" type="curve" smooth="yes"/>
      <point x="2057" y="-268" type="line"/>
      <point x="2066" y="-236" type="line"/>
      <point x="1903" y="-236" type="line" smooth="yes"/>
      <point x="1704" y="-236"/>
      <point x="1656" y="-174"/>
      <point x="1656" y="-22" type="curve" smooth="yes"/>
      <point x="1656" y="9" type="line"/>
      <point x="1620" y="9" type="line"/>
      <point x="1620" y="-24" type="line" smooth="yes"/>
      <point x="1620" y="-195"/>
      <point x="1687" y="-256"/>
      <point x="1866" y="-260" type="curve"/>
      <point x="1866" y="-262" type="line"/>
      <point x="1841" y="-266"/>
      <point x="1826" y="-283"/>
      <point x="1804" y="-302" type="curve" smooth="yes"/>
      <point x="1786" y="-318" type="line" smooth="yes"/>
      <point x="1632" y="-454"/>
      <point x="1403" y="-529"/>
    </contour>
    <component base="Ma.tm" xOffset="822"/>
  </outline>
</glyph>
<glyph name="MaMatraI.tm" format="2">
  <advance width="2055"/>
  <note>
MaMatraI.tm
</note>
  <anchor x="793" y="1245" name="top"/>
  <outline>
    <contour>
      <point x="1454" y="1698" type="curve" smooth="yes"/>
      <point x="1202" y="1698"/>
      <point x="1054" y="1560"/>
      <point x="1054" y="1321" type="curve" smooth="yes"/>
      <point x="1054" y="1306" type="line" smooth="yes"/>
      <point x="1054" y="1226"/>
      <point x="1072" y="1160"/>
      <point x="1100" y="1108" type="curve"/>
      <point x="1136" y="1108" type="line"/>
      <point x="1107" y="1161"/>
      <point x="1089" y="1223"/>
      <point x="1089" y="1305" type="curve" smooth="yes"/>
      <point x="1089" y="1318" type="line" smooth="yes"/>
      <point x="1089" y="1544"/>
      <point x="1221" y="1663"/>
      <point x="1454" y="1663" type="curve" smooth="yes"/>
      <point x="1707" y="1663"/>
      <point x="1814" y="1536"/>
      <point x="1814" y="1238" type="curve" smooth="yes"/>
      <point x="1814" y="0" type="line"/>
      <point x="1850" y="0" type="line"/>
      <point x="1850" y="1244" type="line" smooth="yes"/>
      <point x="1850" y="1557"/>
      <point x="1724" y="1698"/>
    </contour>
    <component base="Ma.tm"/>
  </outline>
</glyph>
<glyph name="MaMatraI_Fly.tm" format="2">
  <advance width="1607"/>
  <note>
MaMatraI.tm
</note>
  <anchor x="793" y="1245" name="top"/>
  <outline>
    <contour>
      <point x="1429" y="1517" type="line"/>
      <point x="1156" y="1517" type="line" smooth="yes"/>
      <point x="990" y="1517"/>
      <point x="927" y="1459"/>
      <point x="927" y="1346" type="curve" smooth="yes"/>
      <point x="927" y="1267"/>
      <point x="970" y="1184"/>
      <point x="1003" y="1122" type="curve"/>
      <point x="1042" y="1122" type="line"/>
      <point x="1005" y="1190"/>
      <point x="964" y="1267"/>
      <point x="964" y="1342" type="curve" smooth="yes"/>
      <point x="964" y="1438"/>
      <point x="1016" y="1483"/>
      <point x="1162" y="1483" type="curve" smooth="yes"/>
      <point x="1439" y="1483" type="line"/>
    </contour>
    <component base="Ma.tm"/>
  </outline>
</glyph>
<glyph name="MaMatraIi.tm" format="2">
  <advance width="1607"/>
  <note>
MaMatraIi.tm
</note>
  <anchor x="793" y="1245" name="top"/>
  <outline>
    <contour>
      <point x="1309" y="1786" type="curve" smooth="yes"/>
      <point x="1068" y="1786"/>
      <point x="942" y="1665"/>
      <point x="942" y="1442" type="curve" smooth="yes"/>
      <point x="942" y="1428" type="line" smooth="yes"/>
      <point x="942" y="1291"/>
      <point x="992" y="1178"/>
      <point x="1050" y="1119" type="curve"/>
      <point x="1091" y="1119" type="line"/>
      <point x="1023" y="1187"/>
      <point x="978" y="1293"/>
      <point x="978" y="1428" type="curve" smooth="yes"/>
      <point x="978" y="1440" type="line" smooth="yes"/>
      <point x="978" y="1618"/>
      <point x="1064" y="1726"/>
      <point x="1231" y="1748" type="curve"/>
      <point x="1231" y="1748" type="line"/>
      <point x="1257" y="1752"/>
      <point x="1283" y="1753"/>
      <point x="1311" y="1753" type="curve" smooth="yes"/>
      <point x="1494" y="1753"/>
      <point x="1574" y="1677"/>
      <point x="1574" y="1531" type="curve" smooth="yes"/>
      <point x="1574" y="1526" type="line" smooth="yes"/>
      <point x="1574" y="1397"/>
      <point x="1516" y="1334"/>
      <point x="1397" y="1334" type="curve" smooth="yes"/>
      <point x="1269" y="1334"/>
      <point x="1212" y="1409"/>
      <point x="1212" y="1539" type="curve" smooth="yes"/>
      <point x="1212" y="1555" type="line" smooth="yes"/>
      <point x="1212" y="1638"/>
      <point x="1229" y="1709"/>
      <point x="1267" y="1757" type="curve"/>
      <point x="1231" y="1758" type="line"/>
      <point x="1231" y="1748" type="line"/>
      <point x="1198" y="1706"/>
      <point x="1176" y="1638"/>
      <point x="1176" y="1551" type="curve" smooth="yes"/>
      <point x="1176" y="1534" type="line" smooth="yes"/>
      <point x="1176" y="1391"/>
      <point x="1248" y="1301"/>
      <point x="1398" y="1301" type="curve" smooth="yes"/>
      <point x="1540" y="1301"/>
      <point x="1609" y="1379"/>
      <point x="1609" y="1524" type="curve" smooth="yes"/>
      <point x="1609" y="1533" type="line" smooth="yes"/>
      <point x="1609" y="1694"/>
      <point x="1515" y="1786"/>
    </contour>
    <component base="Ma.tm"/>
  </outline>
</glyph>
<glyph name="MaMatraIi_SimpleIi.tm" format="2">
  <advance width="1607"/>
  <note>
MaMatraIi.tm
</note>
  <anchor x="793" y="1245" name="top"/>
  <outline>
    <contour>
      <point x="1210" y="1786" type="curve" smooth="yes"/>
      <point x="1042" y="1786"/>
      <point x="941" y="1688"/>
      <point x="941" y="1490" type="curve" smooth="yes"/>
      <point x="941" y="1434" type="line" smooth="yes"/>
      <point x="941" y="1275"/>
      <point x="987" y="1167"/>
      <point x="1068" y="1109" type="curve"/>
      <point x="1115" y="1109" type="line"/>
      <point x="1016" y="1176"/>
      <point x="977" y="1281"/>
      <point x="977" y="1426" type="curve" smooth="yes"/>
      <point x="977" y="1451" type="line"/>
      <point x="977" y="1494" type="line" smooth="yes"/>
      <point x="977" y="1669"/>
      <point x="1064" y="1753"/>
      <point x="1210" y="1753" type="curve" smooth="yes"/>
      <point x="1347" y="1753"/>
      <point x="1421" y="1686"/>
      <point x="1421" y="1558" type="curve" smooth="yes"/>
      <point x="1421" y="1543" type="line" smooth="yes"/>
      <point x="1421" y="1416"/>
      <point x="1356" y="1350"/>
      <point x="1215" y="1350" type="curve" smooth="yes"/>
      <point x="1091" y="1350"/>
      <point x="1005" y="1402"/>
      <point x="973" y="1471" type="curve"/>
      <point x="970" y="1471" type="line"/>
      <point x="970" y="1439" type="line"/>
      <point x="976" y="1439" type="line"/>
      <point x="1004" y="1395" type="line"/>
      <point x="1033" y="1359"/>
      <point x="1110" y="1317"/>
      <point x="1219" y="1317" type="curve" smooth="yes"/>
      <point x="1387" y="1317"/>
      <point x="1457" y="1404"/>
      <point x="1457" y="1542" type="curve" smooth="yes"/>
      <point x="1457" y="1559" type="line" smooth="yes"/>
      <point x="1457" y="1705"/>
      <point x="1369" y="1786"/>
    </contour>
    <component base="Ma.tm"/>
  </outline>
</glyph>
<glyph name="MaMatraU_Simple.tm" format="2">
  <advance width="2212"/>
  <note>
MaMatraU.tm
</note>
  <anchor x="1398" y="1245" name="top"/>
  <outline>
    <contour>
      <point x="200" y="1131" type="line"/>
      <point x="200" y="307" type="line"/>
      <point x="200" y="-191"/>
      <point x="397" y="-499"/>
      <point x="854" y="-499" type="curve" smooth="yes"/>
      <point x="859" y="-499" type="line" smooth="yes"/>
      <point x="1250" y="-499"/>
      <point x="1429" y="-321"/>
      <point x="1439" y="6" type="curve"/>
      <point x="1439" y="27" type="line"/>
      <point x="1403" y="27" type="line"/>
      <point x="1403" y="7" type="line"/>
      <point x="1393" y="-306"/>
      <point x="1223" y="-465"/>
      <point x="859" y="-465" type="curve" smooth="yes"/>
      <point x="854" y="-465" type="line" smooth="yes"/>
      <point x="421" y="-465"/>
      <point x="237" y="-173"/>
      <point x="237" y="307" type="curve"/>
      <point x="237" y="1131" type="line"/>
    </contour>
    <component base="Ma.tm" xOffset="605"/>
  </outline>
</glyph>
<glyph name="MaMatraUu.tm" format="2">
  <advance width="2429"/>
  <note>
MaMatraUu.tm
</note>
  <anchor x="1615" y="1245" name="top"/>
  <outline>
    <contour>
      <point x="484" y="1150" type="curve" smooth="yes"/>
      <point x="288" y="1150"/>
      <point x="180" y="1006"/>
      <point x="180" y="702" type="curve" smooth="yes"/>
      <point x="180" y="350" type="line" smooth="yes"/>
      <point x="180" y="-252"/>
      <point x="455" y="-541"/>
      <point x="967" y="-541" type="curve" smooth="yes"/>
      <point x="972" y="-541" type="line" smooth="yes"/>
      <point x="1428" y="-541"/>
      <point x="1643" y="-345"/>
      <point x="1655" y="8" type="curve"/>
      <point x="1655" y="27" type="line"/>
      <point x="1619" y="27" type="line"/>
      <point x="1619" y="9" type="line"/>
      <point x="1607" y="-330"/>
      <point x="1401" y="-506"/>
      <point x="972" y="-506" type="curve" smooth="yes"/>
      <point x="967" y="-506" type="line" smooth="yes"/>
      <point x="476" y="-506"/>
      <point x="217" y="-234"/>
      <point x="217" y="351" type="curve" smooth="yes"/>
      <point x="217" y="424"/>
      <point x="217" y="497"/>
      <point x="217" y="571" type="curve"/>
      <point x="217" y="700" type="line"/>
      <point x="217" y="982"/>
      <point x="311" y="1117"/>
      <point x="484" y="1117" type="curve" smooth="yes"/>
      <point x="637" y="1117"/>
      <point x="711" y="1013"/>
      <point x="711" y="824" type="curve"/>
      <point x="711" y="747" type="line" smooth="yes"/>
      <point x="711" y="562"/>
      <point x="641" y="454"/>
      <point x="472" y="454" type="curve" smooth="yes"/>
      <point x="352" y="454"/>
      <point x="250" y="512"/>
      <point x="213" y="599" type="curve"/>
      <point x="210" y="599" type="line"/>
      <point x="210" y="571" type="line"/>
      <point x="217" y="571" type="line"/>
      <point x="238" y="528" type="line"/>
      <point x="274" y="477"/>
      <point x="353" y="420"/>
      <point x="476" y="420" type="curve" smooth="yes"/>
      <point x="666" y="420"/>
      <point x="747" y="540"/>
      <point x="747" y="745" type="curve"/>
      <point x="747" y="825" type="line" smooth="yes"/>
      <point x="747" y="1033"/>
      <point x="658" y="1150"/>
    </contour>
    <component base="Ma.tm" xOffset="822"/>
  </outline>
</glyph>
<glyph name="MatraAa_dummy.tm" format="2">
  <advance width="1086"/>
  <note>
RaAltMatraAa.tm
</note>
  <outline>
    <contour>
      <point x="791" y="1109" type="line"/>
      <point x="791" y="0" type="line"/>
      <point x="827" y="0" type="line"/>
      <point x="827" y="1109" type="line"/>
    </contour>
    <contour>
      <point x="821" y="1131" type="line"/>
      <point x="205" y="1131" type="line"/>
      <point x="205" y="0" type="line"/>
      <point x="241" y="0" type="line"/>
      <point x="241" y="1098" type="line"/>
      <point x="821" y="1098" type="line"/>
    </contour>
    <component base="RaBeak_Nonexporting" xOffset="642"/>
  </outline>
</glyph>
<glyph name="MatraAiComponent_Nonexporting" format="2">
  <advance width="1212"/>
  <outline>
    <contour>
      <point x="524" y="1527" type="curve" smooth="yes"/>
      <point x="254" y="1527"/>
      <point x="133" y="1400"/>
      <point x="133" y="1186" type="curve" smooth="yes"/>
      <point x="133" y="1148" type="line" smooth="yes"/>
      <point x="133" y="977"/>
      <point x="217" y="881"/>
      <point x="379" y="881" type="curve" smooth="yes"/>
      <point x="553" y="881"/>
      <point x="634" y="989"/>
      <point x="634" y="1164" type="curve" smooth="yes"/>
      <point x="634" y="1220" type="line" smooth="yes"/>
      <point x="634" y="1354"/>
      <point x="609" y="1443"/>
      <point x="573" y="1493" type="curve"/>
      <point x="573" y="1499" type="line"/>
      <point x="540" y="1499" type="line"/>
      <point x="580" y="1436"/>
      <point x="598" y="1349"/>
      <point x="598" y="1223" type="curve" smooth="yes"/>
      <point x="598" y="1167" type="line" smooth="yes"/>
      <point x="598" y="1005"/>
      <point x="532" y="914"/>
      <point x="379" y="914" type="curve" smooth="yes"/>
      <point x="239" y="914"/>
      <point x="168" y="995"/>
      <point x="168" y="1150" type="curve" smooth="yes"/>
      <point x="168" y="1184" type="line" smooth="yes"/>
      <point x="168" y="1384"/>
      <point x="281" y="1491"/>
      <point x="511" y="1495" type="curve" smooth="yes"/>
      <point x="532" y="1495"/>
      <point x="557" y="1494"/>
      <point x="573" y="1493" type="curve"/>
      <point x="573" y="1493" type="line"/>
      <point x="818" y="1479"/>
      <point x="936" y="1380"/>
      <point x="936" y="1110" type="curve" smooth="yes"/>
      <point x="936" y="1051" type="line" smooth="yes"/>
      <point x="936" y="810"/>
      <point x="831" y="698"/>
      <point x="567" y="625" type="curve" smooth="yes"/>
      <point x="455" y="594" type="line" smooth="yes"/>
      <point x="222" y="530"/>
      <point x="124" y="452"/>
      <point x="124" y="285" type="curve" smooth="yes"/>
      <point x="124" y="276" type="line" smooth="yes"/>
      <point x="124" y="85"/>
      <point x="265" y="-24"/>
      <point x="592" y="-24" type="curve" smooth="yes"/>
      <point x="837" y="-24"/>
      <point x="1040" y="39"/>
      <point x="1212" y="119" type="curve"/>
      <point x="1212" y="157" type="line"/>
      <point x="1037" y="75"/>
      <point x="831" y="11"/>
      <point x="593" y="11" type="curve" smooth="yes"/>
      <point x="288" y="11"/>
      <point x="161" y="105"/>
      <point x="161" y="278" type="curve" smooth="yes"/>
      <point x="161" y="285" type="line" smooth="yes"/>
      <point x="161" y="440"/>
      <point x="255" y="505"/>
      <point x="475" y="565" type="curve" smooth="yes"/>
      <point x="585" y="595" type="line" smooth="yes"/>
      <point x="858" y="669"/>
      <point x="973" y="794"/>
      <point x="973" y="1051" type="curve" smooth="yes"/>
      <point x="973" y="1112" type="line" smooth="yes"/>
      <point x="973" y="1387"/>
      <point x="846" y="1527"/>
    </contour>
  </outline>
</glyph>
<glyph name="MatraE_Simple.tm" format="2">
  <advance width="1334"/>
  <note>
MatraE.tm
</note>
  <outline>
    <contour>
      <point x="674" y="1343" type="curve" smooth="yes"/>
      <point x="332" y="1343"/>
      <point x="157" y="1141"/>
      <point x="157" y="738" type="curve" smooth="yes"/>
      <point x="157" y="389" type="line" smooth="yes"/>
      <point x="157" y="129"/>
      <point x="264" y="-20"/>
      <point x="489" y="-20" type="curve" smooth="yes"/>
      <point x="684" y="-20"/>
      <point x="778" y="106"/>
      <point x="778" y="314" type="curve" smooth="yes"/>
      <point x="778" y="437" type="line" smooth="yes"/>
      <point x="778" y="639"/>
      <point x="683" y="749"/>
      <point x="495" y="749" type="curve" smooth="yes"/>
      <point x="341" y="749"/>
      <point x="232" y="662"/>
      <point x="193" y="556" type="curve"/>
      <point x="184" y="556" type="line"/>
      <point x="184" y="468" type="line"/>
      <point x="216" y="609"/>
      <point x="329" y="714"/>
      <point x="491" y="714" type="curve" smooth="yes"/>
      <point x="660" y="714"/>
      <point x="741" y="616"/>
      <point x="741" y="436" type="curve" smooth="yes"/>
      <point x="741" y="315" type="line" smooth="yes"/>
      <point x="741" y="125"/>
      <point x="661" y="14"/>
      <point x="489" y="14" type="curve" smooth="yes"/>
      <point x="288" y="14"/>
      <point x="194" y="150"/>
      <point x="194" y="378" type="curve" smooth="yes"/>
      <point x="194" y="556" type="line"/>
      <point x="193" y="556" type="line"/>
      <point x="193" y="623"/>
      <point x="193" y="668"/>
      <point x="193" y="735" type="curve" smooth="yes"/>
      <point x="193" y="1120"/>
      <point x="353" y="1310"/>
      <point x="674" y="1310" type="curve" smooth="yes"/>
      <point x="1010" y="1310"/>
      <point x="1125" y="1121"/>
      <point x="1125" y="755" type="curve"/>
      <point x="1125" y="0" type="line"/>
      <point x="1161" y="0" type="line"/>
      <point x="1161" y="757" type="line"/>
      <point x="1161" y="1143"/>
      <point x="1029" y="1343"/>
    </contour>
  </outline>
</glyph>
